<svg xmlns="http://www.w3.org/2000/svg" xmlns:xlink="http://www.w3.org/1999/xlink" viewBox="0 0 778.61 778.61"><defs><style>.cls-1{opacity:0.85;}.cls-2{fill:#0e1322;}.cls-3{fill:url(#Dégradé_sans_nom_18);}.cls-4{fill:#010101;}.cls-5{fill:url(#Dégradé_sans_nom_18-2);}.cls-6{fill:url(#Dégradé_sans_nom_18-3);}</style><linearGradient id="Dégradé_sans_nom_18" x1="176.65" y1="389.96" x2="388.99" y2="389.96" gradientUnits="userSpaceOnUse"><stop offset="0" stop-color="#202c53"/><stop offset="0.8" stop-color="#202c53" stop-opacity="0.93"/><stop offset="1" stop-color="#202c53" stop-opacity="0.9"/></linearGradient><linearGradient id="Dégradé_sans_nom_18-2" x1="483.31" y1="334.11" x2="483.45" y2="334.11" xlink:href="#Dégradé_sans_nom_18"/><linearGradient id="Dégradé_sans_nom_18-3" x1="421.5" y1="384.22" x2="641.96" y2="384.22" xlink:href="#Dégradé_sans_nom_18"/></defs><title>Logo_LP_Cercle</title><g id="Calque_4" data-name="Calque 4"><g class="cls-1"><path class="cls-2" d="M641.06,105.84c-4.94-4.64-10.22-9-15.41-13.4,2.58,2.26,5.1,4.53,7.65,6.9.83.74,1.57,1.38,2.26,2l1.89,1.62C638.64,103.91,639.76,104.79,641.06,105.84Z"/><path class="cls-2" d="M610.7,80.9l-2.93-2.14L605.22,77Z"/><path class="cls-2" d="M580.92,61.52c2.71,1.6,5.28,3.29,7.85,4.85s5.1,3.1,7.5,4.73c-1.06-.72-2.14-1.5-3.31-2.25l-3.68-2.3C586.71,65,584,63.24,580.92,61.52Z"/><path class="cls-2" d="M604.58,77c-1.72-1.34-2.51-2.08.51-.12l.13.09c-2.93-2-5.9-3.88-9-5.91C599.42,73.3,602.22,75.27,604.58,77Z"/><path class="cls-2" d="M604.58,77l5.13,4.17C608.24,80,606.52,78.58,604.58,77Z"/><path class="cls-2" d="M595.28,74.85c-3-1.86-1.73-2.31-7.83-5.82-3.55-2.1-6.92-4.2-10.37-6L572,60.27c-1.67-.91-3.31-1.83-5-2.64l-10-5c-3.41-1.57-6.82-3.16-10.3-4.82-1.59-.73-3.44-1.51-5.37-2.42s-4-1.9-6-2.89-4.11-1.91-6.08-2.75-3.83-1.58-5.48-2.16c-1-.35-2-.76-3.18-1.15l-3.66-1.17-8.14-2.58c-2.83-.82-5.72-1.56-8.46-2.31s-5.34-1.46-7.67-1.93c-9.27-2-13.5-2.83-1.52.26a355,355,0,0,1,46.29,15.68,338.49,338.49,0,0,1,41.26,20.47,359.21,359.21,0,0,1,65.56,47.91l8.17,8c2.61,2.66,5.07,5.38,7.6,8-3.28-3.5-6.49-7.16-10.1-10.67l-5.41-5.44c-1.86-1.82-3.84-3.61-5.83-5.48C628.16,97.33,614,87.12,595.28,74.85Z"/><path class="cls-2" d="M728.78,226.61l-3-5.92-1.29-2.52c-.34-.63-.56-1-.56-1-6.39-14.48-15-28.79-24.49-42.42l3.66,6.41c1.34,2,2.28,3.55,3,4.63a19,19,0,0,0,1.3,1.88c.3.29-.56-1.34-2.67-5a502.47,502.47,0,0,1,26,49.87C730.47,231.36,730.93,231.42,728.78,226.61Z"/><path class="cls-2" d="M735.11,242.58c-1.47-3.36-3-6.74-4.39-10.05,0,.09,0,.26.07.4l4.46,10C735.2,242.83,735.16,242.7,735.11,242.58Z"/><path class="cls-2" d="M512.18,31.14A354.1,354.1,0,0,0,379.26,13.73c-3.31.45-5.62.85-10.09,1.09l-5.09.19c-1.69.14-3.38.34-5.06.52l-9.41,1.22c-1.57.22-3.14.36-4.69.64l-4.64.84-6.55,1.29-.18,0c-3.47.75-2.4.71-.22.45,2.43-.35,4.66-.64,6.57-.87l-6.57.87-4.7.7c-1.67.27-3.42.71-5.32,1.12L314.72,24,310.3,25l-4.46,1.28c1.66-.51,3.25-1,4.81-1.46l4.53-1.11q4.38-1,8.13-1.89c1.78-.43,3.5-.92,5.24-1.28l5.18-1,3-.64-5.33,1c-1.77.34-3.56.6-5.3,1l-10.52,2.48-5.26,1.24-5.18,1.5-10.37,3c-1.59.45-3.11,1-4.55,1.53l-4,1.45L279,34.76c-1.19.44-2.39.82-3.52,1.3l-3.35,1.37c-4.35,1.77-8.28,3.28-11.35,4.29-1.19.45-2.35,1-3.52,1.56l-3.52,1.63,1.38-.55-2.66,1.15L245,48.94c-.62.29-1.24.56-1.85.87l-1.81.95-3.61,1.9-7.25,3.81c-1.2.66-2.44,1.24-3.61,2l-3.54,2.09-9.08,5.75c-1.55.93-3,2-4.51,3l-4.49,3.12-6.38,3.67c-1.19.88-2.55,2.08-4.17,3.35s-3.42,2.69-5.39,4.2c4.92-3.26,9.35-6.25,13.68-8.76a111.71,111.71,0,0,0,9.89-6.8,86.52,86.52,0,0,1,11.22-6.54,86.52,86.52,0,0,0-11.22,6.54,111.71,111.71,0,0,1-9.89,6.8c-4.33,2.51-8.76,5.5-13.68,8.76l-3.19,2.41c-1.09.84-2.26,1.63-3.35,2.57-2.23,1.81-4.54,3.67-6.89,5.53l-3.52,2.77c-1.16.93-2.37,1.8-3.46,2.77-2.23,1.89-4.42,3.73-6.5,5.44q3.63-3.47,7.07-6.57c2.38-2,4.7-3.82,7-5.59s4.43-3.43,6.55-5,4.3-2.93,6.34-4.3,3.79-2.92,5.39-4.2,3-2.47,4.17-3.35l6.38-3.67,4.49-3.12c1.49-1,3-2.12,4.51-3l9.08-5.75a359.12,359.12,0,0,0-53.19,37.3c-3.37,2.89-6.64,5.88-10,8.8l-2.48,2.21c-.82.73-1.65,1.46-2.42,2.24l-4.72,4.63-4.71,4.62-2.35,2.3L141.29,125l-8.92,9.63c-.76.79-1.46,1.63-2.16,2.46l-2.1,2.51-4.21,5c-1.4,1.67-2.82,3.32-4.19,5l-3.95,5.18-4,5.18c-1.3,1.73-2.67,3.42-3.86,5.23l-7.37,10.69c-.61.89-1.24,1.77-1.83,2.67L97,181.35l-3.42,5.5-3.42,5.49c-.58.91-1.12,1.85-1.63,2.79L87,198,80.7,209.25,75,220.82c-.94,1.94-2,3.83-2.83,5.81l-2.59,5.91-2.59,5.91c-.86,2-1.77,3.93-2.5,6l-4.61,12.07-1.15,3-1,3.07-2,6.15c-2.86,8.14-4.95,16.53-7.29,24.87-.31,1-.55,2.09-.78,3.15l-.71,3.17-1.42,6.34L44,312.61c-.43,2.12-.76,4.27-1.15,6.41q-1.11,6.44-2.23,12.87L39,344.9c-.25,2.17-.57,4.34-.77,6.52s-.33,4.38-.5,6.57-.32,4.38-.49,6.57l-.25,3.3c-.08,1.1-.17,2.19-.18,3.3q-.18,6.61-.35,13.25l-.09,3.32,0,1.67,0,1.66.15,6.67.15,6.68c.06,2.23.06,4.47.26,6.7q.48,6.69,1,13.42l.24,3.37.4,3.36.81,6.73c.56,4.49,1,9,1.85,13.49s1.52,9,2.29,13.52c.94,4.48,2,9,2.94,13.48,1,4.91,2.36,9.71,3.65,14.52q1,3.6,1.94,7.2c.3,1.2.68,2.38,1.07,3.56l1.14,3.54q1.14,3.54,2.27,7.07c.79,2.34,1.46,4.73,2.38,7q2.6,6.93,5.19,13.82A410.76,410.76,0,0,0,89.8,587.69q3.8,6.19,7.56,12.36c2.62,4.05,5.38,8,8.06,12s5.6,7.8,8.44,11.65l4.31,5.75c1.44,1.91,3,3.71,4.52,5.56l4.56,5.53c1.52,1.83,3,3.7,4.64,5.43l9.59,10.57c6.67,6.77,13.25,13.61,20.36,19.85l5.23,4.75c.85.81,1.77,1.55,2.67,2.3l2.72,2.24,5.42,4.47c1.83,1.47,3.57,3,5.47,4.39l11.21,8.35,1.4,1,1.45,1,2.89,1.94,5.77,3.88c1.94,1.26,3.82,2.62,5.8,3.81l5.93,3.57,5.93,3.56c1,.58,2,1.21,3,1.75l3,1.63,12.15,6.49,12.42,5.86c4.09,2,8.37,3.64,12.58,5.41l6.32,2.59,1.59.65,1.6.57,3.22,1.14c4.3,1.5,8.58,3,12.88,4.5l13.07,3.86,3.26,1c1.09.31,2.2.54,3.3.82l6.62,1.59,6.61,1.59,1.65.4,1.67.31,3.34.62,13.37,2.48,13.47,1.79a364.21,364.21,0,0,0,214.75-40.31,343.48,343.48,0,0,0,43.87-27.92,367.94,367.94,0,0,0,45.82-40.65c1.86-1.84,3.58-3.81,5.33-5.74l5.24-5.79c3.39-3.94,6.69-7.91,10-11.84,3.11-4,6.28-8,9.24-12l4.33-6c1.41-2,2.88-3.92,4.17-5.94a376.91,376.91,0,0,0,25.82-43.74l1.53-3.13,1.35-3c.87-2,1.69-3.85,2.48-5.62s1.53-3.46,2.17-5.08l1.76-4.61c1.1-2.89,2-5.44,2.84-7.67s1.32-4.22,1.81-5.89c1.92-6.67,2-8.83,1.3-8.68-1.48.32-6.31,9.82-7,11.41-1.26,2.59-2.62,5.1-3.87,7.62l-1.89,3.76c-.62,1.25-1.24,2.5-1.92,3.71L724,556.91l-1.94,3.7c-.69,1.22-1.37,2.45-2.07,3.68-1.36,2.46-2.73,5-4.13,7.47s-3,5-4.46,7.59c-2.94,5.2-6.37,10.39-9.85,16a384.57,384.57,0,0,1-26.71,36.14,339.81,339.81,0,0,1-42.45,42.4c3-2.58,5.55-4.64,7.52-6.42s3.5-3.13,4.61-4.1c2.22-1.92,2.79-2.29,2-1.39s-2.89,3-6,6.14c-1.56,1.57-3.51,3.23-5.61,5.16l-3.35,3c-1.17,1-2.38,2.14-3.7,3.21a322.45,322.45,0,0,1-39.44,28.6A299.72,299.72,0,0,1,543.15,731c-2.52,1-5,2-7.64,3l-7.9,2.85-4,1.47-4.11,1.33-8.33,2.73c-2.83.85-5.7,1.65-8.59,2.5l-4.35,1.26c-1.45.43-2.94.76-4.42,1.15l-9,2.27c-3,.7-6.1,1.31-9.18,2l-4.64,1-4.71.84-9.5,1.68-9.68,1.34c-1.62.21-3.24.5-4.88.64l-4.93.49a341.47,341.47,0,0,1-40.32,1.9A353.06,353.06,0,0,1,314.85,749c-3.4-.72-6.7-1.81-10-2.75l-9.95-2.91-9.76-3.41-4.86-1.7c-.8-.29-1.62-.55-2.41-.87l-2.38-1L266,732.5c-1.56-.66-3.15-1.26-4.69-2l-4.58-2.17-9.1-4.33c-1.53-.68-3-1.52-4.45-2.3l-4.38-2.38c-23.26-12.65-47.08-28.09-70.63-49.37a375.67,375.67,0,0,1-41.8-44.51,389,389,0,0,1-33.56-50.12l-3.64-6.58-1.81-3.28-1.66-3.37c-2.2-4.5-4.49-9-6.6-13.48l-6-13.75c-.25-.57-.51-1.14-.74-1.72l-.67-1.75-1.34-3.5-2.67-7A376.4,376.4,0,0,1,44.4,403.11a370.55,370.55,0,0,1,2.53-61.19q.45-3.84.92-7.68c.13-1.29.37-2.56.59-3.83l.65-3.83c.43-2.55.87-5.11,1.31-7.66l.65-3.84c.24-1.28.55-2.54.82-3.82,1.14-5.07,2.22-10.18,3.42-15.27l4.15-15.19a378.2,378.2,0,0,1,23.3-59.48c20.31-41.06,44.27-74.16,71.57-101.61l3.76-3.76,1.9-1.89,2-1.79,8-7.17,2-1.79,1-.89,1-.85,4.17-3.35,8.24-6.63,8.35-6.07,4.08-3,2-1.45,2-1.35,7.94-5.21L214.65,72c1.25-.82,2.53-1.52,3.76-2.27l11.42-6.83c3.83-2.1,7.63-4.09,11.35-6.11,1.87-1,3.68-2,5.57-2.92l5.6-2.67,5.53-2.64c1.83-.86,3.63-1.78,5.49-2.52,7.4-3,14.53-6.27,21.8-8.73l5.38-2c1.79-.63,3.55-1.36,5.37-1.87l10.74-3.32-11.6,3.48c-3.73,1.25-7.31,2.6-10.87,3.85l-5.3,1.9c-.88.3-1.74.64-2.6,1l-2.57,1.07-10.26,4.28C249.93,52,236,58.61,220.29,68.43l-5.45,3.23c-1,.63-1.31.77-1.05.53a85.41,85.41,0,0,1,7.35-5l6.64-4.26,1.81-1.16,1.89-1.09,3.84-2.17c5.12-2.87,10.06-5.78,13.8-7.48,3.15-1.59,7.34-3.32,11.52-5,4.25-1.56,8.53-3,11.74-4.48l5.25-2.16,5.28-1.9,10.47-3.87c3.54-1.19,7.16-2.28,10.84-3.47l5.61-1.77c.94-.32,1.91-.57,2.89-.81l3-.77c6.81-1.84,6.23-.72,9.62-1.64,1.37-.32,2.69-.72,4-1l3.94-.81,7.54-1.58,3.61-.79,1.77-.38,1.76-.29,6.79-1.13,6.42-1.06,3.08-.49,3-.31c4-.39,7.73-.71,11.31-.93l4-.26,3.95-.05,7.66-.09c2.5,0,5-.08,7.4-.05l7.23.25c6.06.07,12.05.6,18.43.91,4,.2,8.06.6,12.17.9A21.21,21.21,0,0,1,434,16.44l4.81.54c1.7.21,3.49.37,5.25.68l10,1.54-10-1.54c-1.76-.31-3.55-.47-5.25-.68L434,16.44A21.21,21.21,0,0,0,439.42,18a347.17,347.17,0,0,1,46.25,7.46,335.43,335.43,0,0,1,46.4,14.32l-.37-.23a449.18,449.18,0,0,0-53.34-17.19c2,.49,3.49.87,4.39,1.12s1.22.43,1,.43c-.41,0-3-.51-7.66-1.5-2.35-.67-4.71-1.38-7-2,16.33,3,32.47,7.13,47.09,13L520,34.54c2.13.63,4.61,1.59,6.28,2.15,4.86,2,4.52,2.21,5.45,2.85,1.71.62,3.38,1.35,5.07,2.06l5.08,2.14c-1.73-.87-4.42-2.17-7.48-3.62s-6.59-2.83-9.86-4.22-6.37-2.51-8.63-3.38Z"/><path class="cls-2" d="M322.89,21.9l4.07-1c1.47-.37,3.07-.61,4.7-.95-1.48.29-3,.51-4.45.84l-4.41,1L314,23.89c-1.47.36-3,.66-4.41,1.07l-4.35,1.26-8.73,2.54c3.14-.68,7.2-1.79,11.72-3.11,2.25-.72,4.68-1.22,7.14-1.86Z"/></g></g><g id="Chapeau"><path class="cls-3" d="M386.54,562.57c11.45,16-61.83,21.07-69.71,21.61q-22,1.5-44.08,1.29c-27.63-.27-60.77-3.66-78-25.48-9.14-11.59-14.37-44.17-16.68-84.61-.05-.91-.11-1.82-.15-2.74-4.72-88.62,4.26-212.95,16.83-238.12,18.49-37,69.5-66.58,91.51-2.58,4.33,12.57,3.45,30.32-.44,50.95-11.22,59.67-47.62,143.53-56.32,196.6,0,0,0,0,0,.06-3.33,20.3-2.57,36.08,5.18,44.27,35,37,186.92-66.29,148-30.13a166.27,166.27,0,0,0-13.36,13.59l-.17.2c-.78.91-1.5,1.78-2.15,2.64a.54.54,0,0,0-.09.12C350.92,530.93,367.44,535.8,386.54,562.57Z"/><path class="cls-4" d="M384.44,563.85c6.1,9.08-25.93,13.62-30.27,14.34a407.9,407.9,0,0,1-42.43,4.48c-28.05,1.63-59,3.53-86.15-5.24-11.4-3.69-23.34-10.18-30-20.51-5.24-8.12-7.3-18.57-9.11-27.9-5.48-28.23-6.59-57.41-7.17-86.1-.56-27.64-.08-55.31,1.2-82.93,1.15-24.93,2.91-49.87,5.93-74.65,1.92-15.73,3.57-32.58,9.28-47.51,5.92-15.49,19.59-30.27,34.51-37.44,7.34-3.53,15.73-5.25,23.74-3.15,9.41,2.46,16.57,9.62,21.66,17.64a70.13,70.13,0,0,1,11.1,37.52c.06,15-2.8,29.89-6.2,44.41-6.27,26.81-15,53-23.61,79.13-8.45,25.6-17.24,51.17-24,77.28a254.37,254.37,0,0,0-6.83,33.9c-1.32,11.09-2.21,24.49,3.89,34.47,6.2,10.14,18.89,12.55,29.92,12.23,14.6-.44,29-4.58,42.75-9.29,26.84-9.22,51.76-22.53,77.64-34,1-.46,7.67-2.7,7.7-2.83s-1.93-.7-1.45-.91c-.71.31-1.94,2.33-2.5,2.91-10.72,10.93-33.55,27.12-23.06,44.81,6.33,10.66,16.24,19.25,23.5,29.3,1.32,1.83,5.72-.45,4.2-2.55C384.05,555,379,549,373.86,543.13c-3.54-4-7.64-8.24-9.77-13.26-4.72-11.14,6.75-21.92,13.88-29,.22-.22,19.48-16,10.87-16.82-2.7-.24-6,1.56-8.37,2.59-4.76,2-9.43,4.3-14.11,6.54-14,6.67-27.93,13.34-42.22,19.31-15.39,6.44-31.25,12.44-47.66,15.69-11.53,2.29-26.19,4.24-36.52-2.88-9-6.18-10.12-18.18-9.87-28.2.32-13,3-25.84,6.13-38.39,6.75-27.43,16-54.21,24.86-81,8.94-27.07,18-54.22,24.43-82,3.31-14.4,6.12-29.2,6.06-44a72.9,72.9,0,0,0-10.5-37.24c-9.24-15.64-24.82-25.19-43.15-20.55-17.4,4.4-31.9,18.17-41.25,33-8,12.64-10.4,27.29-12.69,41.85-3.77,24-5.78,48.25-7.28,72.46q-2.64,42.81-2.46,85.72c.15,29.81,1.06,59.85,5.16,89.4,1.61,11.56,3.54,23.39,7.67,34.36,3.59,9.53,10.07,16.79,18.62,22.31,22.52,14.55,52.06,14.67,77.91,14.39a513.73,513.73,0,0,0,57.62-3.64,230.7,230.7,0,0,0,26.4-4.52c6.34-1.54,13.6-3.26,18.8-7.44,3.51-2.82,4.86-6.51,2.22-10.44C387.39,559.43,383,561.69,384.44,563.85Z"/><path class="cls-5" d="M483.31,334.13l.14-.05Z"/><path class="cls-4" d="M484.67,336.14l.15-.05c.92-.31.16-1.64-.19-2.14a5.5,5.5,0,0,0-1.33-1.39c-.3-.21-.83-.61-1.21-.48l-.15.05c-.91.31-.16,1.63.2,2.13a5.53,5.53,0,0,0,1.33,1.4c.29.2.83.6,1.2.48l.15-.05-2.73-4-.15.05c-.91.3-.16,1.63.2,2.13a5.53,5.53,0,0,0,1.33,1.4C483.76,335.86,484.3,336.26,484.67,336.14Z"/><path class="cls-6" d="M426,471.63c-2,16.1-3.17,32.31-3.77,48.51-.72,19.23-4.88,45.75,18.22,53.37,13,4.3,32.43.8,42.37-9,5-4.86,7.73-11.51,9.6-18.19,9.65-34.41,2.58-74.24-3-108.78-2.37-14.61-5.22-29.13-7.54-43.74a317.6,317.6,0,0,1-4.34-47c0-3.29.55-7.41,1.66-9.61a6.55,6.55,0,0,1,2.89-2.59l.9-.4.34-.13-.3.11c9.82-4.3,21-4.48,32.29-3.08,13.58,1.67,26.86,3.73,40.27-.17,13-3.79,24.45-12,34.78-20.59,14.27-11.82,27.57-25.14,37.16-41,10.83-17.88,24.73-54.08,2.94-69.49-6.41-4.53-13.62-6.18-21.08-6.57-25-1.32-50,3.15-74.1,9.42-12.3,3.2-24.45,7-36.49,11-10.22,3.42-20.74,6.67-28,15.14-2.88,3.34-4.63,7.72-6.2,11.78a194.45,194.45,0,0,0-6.32,20.06c-2.35,8.83-4.38,17.75-6.25,26.7-2.22,10.54-4.21,21.13-6.06,31.72q-3.07,17.54-5.71,35.11-2.79,18.42-5.2,36.87t-4.54,37q-2,17.72-3.71,35.47c-.26,2.68-.51,5.34-.76,8m168.18-223c-.93,6.65-4.25,12.72-8,18.29a99.08,99.08,0,0,1-23.87,25c-11.2,8.05-24.23,13.19-38.25,12.84-7.21-.18-14.58-1.74-20.55-5.79a22.46,22.46,0,0,1-10-21,34.39,34.39,0,0,1,4.69-13.26c12.47-21.62,38.75-33.27,62.2-38.07,7.72-1.59,16.38-3.42,23.75.42C591.84,231,595.31,240.36,594.16,248.6Z"/><path class="cls-4" d="M424.63,469.66c-2,16.11-3.1,32.28-3.78,48.5-.39,9.46-1.39,19-.24,28.48,1,7.92,3.71,15.76,9.23,21.68,7.06,7.57,17.7,9.75,27.7,9,11-.81,23-5,29.68-14.27C495,552.34,497,537.16,498,524.32c2.43-29.13-2.79-58.34-7.53-87-3-17.84-6.58-35.58-8.93-53.52-1.2-9.1-2.07-18.25-2.45-27.42-.25-6.34-2-17.33,5.49-20.14.67-.25-1.46-4.69-2.58-4.28l-.3.11,2.57,4.29c22.39-9.25,45.94,2.6,68.91-2.34,21.46-4.6,40.19-21.54,55.16-36.72,12.65-12.83,23.16-27.6,29.55-44.51,5.08-13.44,8.44-29.59,1.7-43.07-9-17.94-28.8-19.31-46.7-18.67-24.07.85-47.81,6.16-70.87,12.83-11.17,3.24-22.4,6.64-33.3,10.72-8.78,3.29-17.48,8-22.21,16.42-5.81,10.38-8.57,22.9-11.41,34.35-3,12.19-5.56,24.5-7.9,36.84-10.47,55.31-17.43,111.37-22.63,167.41-.13,1.38,2.76,4.25,2.79,4,4.33-46.77,10.07-93.46,17.75-139.8,3.84-23.2,8-46.44,14-69.2,2.74-10.52,5.34-23.33,11.88-32.27,5.55-7.58,14.64-11.46,23.23-14.46C515.37,210.48,537,204,559,199.75a232.55,232.55,0,0,1,36.06-4.36c10.14-.35,21.3-.75,30.77,3.47C644.24,207,642,228,636.8,244.09c-5.41,16.74-14.95,31.64-26.82,44.54a212.84,212.84,0,0,1-26.17,23.86c-8.89,6.91-18.61,13.2-29.53,16.36-24,6.93-49-6.49-72.56,3.25-.7.29,1.49,4.68,2.57,4.29l.31-.12L482,332c-4.49,1.68-5.37,5.57-5.77,9.94-.62,6.87.12,14.07.65,20.94,1.16,14.95,3.54,29.75,6.13,44.51,4.78,27.18,10.19,54.5,12.16,82.06,1,13.78,1,27.7-1.2,41.38-1.92,12.15-5,26.3-15.37,34.09-15.95,12-49.32,13.36-54.5-10.58-2.2-10.19-1-20.81-.53-31.12.73-16.59,1.81-33.11,3.82-49.6.17-1.36-2.74-4.28-2.78-3.95Z"/><path class="cls-4" d="M592.77,246.63c-2.89,17-17.63,32.75-31,42.61-13.78,10.12-31.61,16.24-48.69,12.1a28.69,28.69,0,0,1-12.48-6.1c-5.2-4.65-6.57-11.35-5.18-17.94,1.74-8.32,6.95-15.82,12.75-21.86,10.09-10.53,23.43-17.57,37.11-22.23a119.94,119.94,0,0,1,25.25-6c5.3-.59,11-.43,15.7,2.52,5.8,3.67,7.29,10.51,6.59,16.9-.15,1.37,2.75,4.26,2.78,4A27.28,27.28,0,0,0,590,230.84c-5.66-7.36-14.06-9-22.92-7.83-19,2.48-38.87,9.53-54.07,21.41-13.49,10.55-27.12,29.05-17.69,46.37,9.8,18,33.66,18.88,51,12.55,11.67-4.28,21.91-11.85,30.4-20.83,8.31-8.78,16.78-19.74,18.86-31.93C595.78,249.24,592.84,246.23,592.77,246.63Z"/></g></svg>