<svg xmlns="http://www.w3.org/2000/svg" viewBox="0 0 778.61 778.61"><defs><style>.cls-1{opacity:0.85;}.cls-2{fill:#0e1322;}.cls-3,.cls-6{fill:#1d1d1b;}.cls-4{fill:#fff;}.cls-5,.cls-8,.cls-9{fill:none;}.cls-10,.cls-5,.cls-6,.cls-7{stroke:#0c1610;}.cls-5,.cls-6,.cls-8,.cls-9{stroke-linecap:round;stroke-linejoin:round;}.cls-10,.cls-11,.cls-12,.cls-7{fill:#faf9e2;stroke-miterlimit:10;}.cls-7,.cls-8{stroke-width:2px;}.cls-8,.cls-9{stroke:#1d1d1b;}.cls-11{stroke:#1e1e1e;}.cls-12{stroke:#1c1c1c;}</style></defs><g id="circle"><g class="cls-1"><path class="cls-2" d="M615.75,128.72c-4.53-4.28-9.38-8.27-14.14-12.35,2.34,2.11,4.62,4.25,6.89,6.5.76.69,1.44,1.28,2.08,1.81s1.19,1,1.75,1.46C613.45,127,614.52,127.79,615.75,128.72Z"/><path class="cls-2" d="M587.87,105.74l-2.68-2-2.38-1.57Z"/><path class="cls-2" d="M560.42,88.05c2.48,1.47,4.84,3,7.21,4.46s4.7,2.84,6.91,4.32c-1-.67-2-1.4-3-2.09l-3.38-2.12C565.77,91.19,563.25,89.59,560.42,88.05Z"/><path class="cls-2" d="M582.09,102.42c-1.53-1.3-2.22-2,.61-.3l.11.08c-2.71-1.81-5.45-3.52-8.27-5.37C577.42,98.87,580,100.74,582.09,102.42Z"/><path class="cls-2" d="M582.09,102.42c1.45,1.31,3.82,3.28,4.6,4C585.38,105.22,583.84,103.88,582.09,102.42Z"/><path class="cls-2" d="M572.45,102.05c-2.79-1.65-1.3-2.53-7-5.63-3.27-1.89-6.37-3.77-9.54-5.38l-4.66-2.46c-1.54-.81-3-1.63-4.61-2.35l-9.21-4.51c-3.12-1.41-6.24-2.86-9.42-4.37-3-1.22-6.65-3.07-10.31-5-1.83-1-3.71-1.86-5.49-2.66a52.09,52.09,0,0,0-5-2c-.89-.31-1.86-.67-2.91-1l-3.37-1-7.48-2.24c-2.59-.71-5.25-1.34-7.76-2s-4.91-1.23-7.05-1.61c-8.51-1.67-12.41-2.2-1.48.59a328.28,328.28,0,0,1,42.26,14.15,303.65,303.65,0,0,1,37.73,18.52,361.07,361.07,0,0,1,31.17,19.72,348.65,348.65,0,0,1,29.15,23.5c2.58,2.47,5,4.9,7.47,7.3s4.62,4.94,6.92,7.4c-3-3.24-5.88-6.61-9.15-9.85l-4.91-5c-1.69-1.69-3.48-3.34-5.29-5.07C603,121.92,589.63,113.14,572.45,102.05Z"/><path class="cls-2" d="M696.09,239.88l-2.88-5.38L692,232.21l-.53-.93c-5.52-13.48-13.59-26.56-22.41-39,1,2,2.06,4,3.12,6,1.24,1.79,2.11,3.24,2.79,4.23a11.68,11.68,0,0,0,1.26,1.67c.32.25-.4-1.28-2.29-4.67,8.74,15.47,16.48,30.31,23.57,45.93C697.42,244.35,698,244.34,696.09,239.88Z"/><path class="cls-2" d="M701.58,254.69l-4.08-9.2a3,3,0,0,0,0,.38l4.16,9.16C701.65,254.92,701.61,254.8,701.58,254.69Z"/><path class="cls-2" d="M497.07,60.6a326.64,326.64,0,0,0-122-16,56.4,56.4,0,0,1-9.25,1.17c-1.55,0-3.12,0-4.68.06s-3.11.25-4.65.4l-8.65,1.1c-1.43.2-2.88.33-4.3.58l-4.26.77-6,1.23-.16,0c-3.18.76-2.18.8-.16.64,2.24-.26,4.3-.46,6.06-.59-1.12.08-4.09.44-6.06.59-1.36.16-2.8.34-4.34.56s-3.14.6-4.89,1l-7.87,2-4.06,1-4.09,1.16c1.51-.48,3-1,4.4-1.37l4.16-1q4-1,7.46-1.7c1.63-.4,3.21-.87,4.8-1.21l4.75-1,2.76-.65-4.9.89c-1.63.3-3.27.54-4.87,1l-9.67,2.26-4.82,1.12L307,55.82l-9.52,2.75c-1.46.41-2.86.93-4.17,1.42l-3.67,1.35L283,63.82c-1.09.42-2.19.76-3.23,1.21l-3.07,1.26a104.36,104.36,0,0,1-10.5,3.76c-1.09.42-2.15.93-3.23,1.43L259.71,73l1.29-.46-2.47,1-6.8,3.14c-.57.27-1.14.52-1.7.8l-1.66.86L245,80.05l-6.67,3.49c-1.1.6-2.25,1.13-3.32,1.78l-3.25,1.91-8.26,5.43c-1.41.88-2.74,1.89-4.1,2.87l-4.08,2.92-6,3.14c-1.06.87-2.27,2-3.73,3.22s-3.09,2.54-4.89,3.94c4.62-2.86,8.79-5.45,12.82-7.65a64.19,64.19,0,0,0,9-6.33,48.8,48.8,0,0,1,10.33-5.93,48.8,48.8,0,0,0-10.33,5.93,64.19,64.19,0,0,1-9,6.33c-4,2.2-8.2,4.79-12.82,7.65-1.85,1.47-3.93,2.94-6,4.6s-4.17,3.36-6.34,5.05-4.39,3.31-6.48,5-4.12,3.35-6.08,4.87q3.27-3.24,6.43-6.11c2.18-1.82,4.33-3.5,6.42-5.1s4.12-3.1,6.09-4.52,4-2.59,5.94-3.79c1.8-1.4,3.45-2.73,4.89-3.94s2.67-2.35,3.73-3.22l6-3.14,4.08-2.92c1.36-1,2.69-2,4.1-2.87l8.26-5.43a330.67,330.67,0,0,0-49,34.16A367.28,367.28,0,0,0,148,155.19c-2.68,3-5.21,6.11-7.81,9.15-1.28,1.54-2.6,3-3.86,4.6l-3.64,4.76-3.64,4.75c-1.2,1.6-2.46,3.14-3.56,4.81l-6.79,9.81c-.56.83-1.15,1.63-1.69,2.46l-1.57,2.53-3.16,5.06-3.15,5c-.53.83-1,1.69-1.5,2.56l-1.45,2.6-5.81,10.38-5.3,10.63c-.86,1.78-1.81,3.53-2.6,5.34l-2.39,5.44-2.39,5.43c-.79,1.82-1.63,3.62-2.3,5.48l-4.26,11.1-1.06,2.78-.93,2.82-1.87,5.65c-2.64,7.49-4.57,15.21-6.72,22.87-.29,1-.51,1.93-.72,2.9l-.66,2.92-1.31,5.83-1.32,5.85c-.39,1.95-.7,3.93-1.06,5.9q-1,5.91-2.06,11.84l-1.5,12c-.24,2-.53,4-.72,6s-.31,4-.46,6c-.28,4-.67,8.07-.86,12.12s-.23,8.12-.34,12.19l-.08,3.06,0,1.53,0,1.53c0,2,.09,4.09.13,6.14s.09,4.09.13,6.15.05,4.11.24,6.16q.42,6.17.86,12.35l.21,3.1.37,3.1c.24,2.06.49,4.12.73,6.19.51,4.13.9,8.3,1.68,12.42s1.39,8.28,2.09,12.44c.86,4.13,1.79,8.26,2.68,12.42a366.81,366.81,0,0,0,16.12,52.27,378.48,378.48,0,0,0,23.54,48.41q3.47,5.71,6.92,11.42c2.4,3.73,4.93,7.38,7.38,11.06s5.14,7.21,7.75,10.77l3.95,5.32c1.32,1.76,2.77,3.42,4.15,5.14l4.18,5.11c1.39,1.7,2.75,3.43,4.25,5l8.81,9.79c6.12,6.26,12.17,12.59,18.7,18.39l4.8,4.41c1.59,1.47,3.31,2.8,5,4.2l5,4.15c1.68,1.36,3.28,2.81,5,4.07l10.32,7.74c1.69,1.33,3.53,2.45,5.28,3.67l5.33,3.59c1.78,1.18,3.51,2.43,5.34,3.54l5.47,3.31,5.47,3.29c.92.54,1.81,1.12,2.74,1.63l2.81,1.51,11.21,6,11.46,5.43c3.78,1.89,7.73,3.37,11.62,5l5.84,2.41,1.46.6,1.48.53,3,1c4,1.39,7.91,2.83,11.89,4.17L306.88,728l3,.89c1,.29,2,.5,3.05.76l6.11,1.47,6.1,1.47,1.53.37,1.54.29,3.09.58,12.35,2.3,12.44,1.67c66.45,8.14,135.69-3.72,198.86-36.43a306.32,306.32,0,0,0,40.77-25.66,336.25,336.25,0,0,0,42.5-37.64c1.72-1.71,3.31-3.54,4.94-5.33l4.85-5.37c3.14-3.65,6.19-7.33,9.21-11s5.82-7.41,8.56-11.12l4-5.57c1.31-1.85,2.66-3.64,3.86-5.51a351.14,351.14,0,0,0,23.86-40.55l1.38-2.92c.41-1,.81-1.91,1.21-2.83q1.15-2.76,2.2-5.25c.68-1.66,1.36-3.23,1.91-4.74s1-2.95,1.54-4.31c.94-2.7,1.74-5.09,2.4-7.19s1.06-4,1.43-5.53c1.44-6.3,1.18-8.41.16-8.4-2,0-7.07,8.55-7.8,10l-3.88,6.85-1.87,3.39c-.6,1.13-1.22,2.25-1.87,3.35-1.29,2.21-2.55,4.42-3.79,6.65L688.68,546l-2,3.32-3.89,6.78L678.67,563c-2.74,4.73-5.91,9.44-9.11,14.53A349.17,349.17,0,0,1,645,610.44a296.67,296.67,0,0,1-39.13,38.29c2.76-2.32,5.13-4.16,7-5.76s3.24-2.8,4.29-3.64c2.08-1.7,2.65-2,2-1.12s-2.55,2.87-5.39,5.74c-1.41,1.45-3.17,3-5.09,4.75l-3,2.77c-1.06,1-2.16,2-3.37,2.94a275.05,275.05,0,0,1-36.1,26,247.92,247.92,0,0,1-41.61,20.3c-2.32.83-4.64,1.74-7,2.57l-7.25,2.44L506.56,707l-3.76,1.14-7.62,2.36-7.84,2.17-4,1.1c-1.32.37-2.68.66-4,1l-8.16,2c-2.76.61-5.56,1.15-8.36,1.75l-4.22.89-4.27.73-8.64,1.49-8.79,1.19c-1.47.19-2.94.45-4.43.57l-4.47.44a326.42,326.42,0,0,1-111.23-7.57c-3.08-.65-6.08-1.63-9.11-2.48l-9-2.63-8.86-3.1-4.42-1.54c-.73-.27-1.47-.5-2.19-.79l-2.16-.89-8.59-3.54c-1.42-.6-2.86-1.15-4.26-1.8l-4.15-2-8.26-4c-1.38-.63-2.69-1.4-4-2.12l-4-2.18c-21-11.6-42.73-25.54-64.1-44.91a346.75,346.75,0,0,1-37.81-40.56,358.1,358.1,0,0,1-30.4-45.55l-3.3-6-1.64-3L109,546.21c-2-4.08-4.07-8.12-6-12.24L97.52,521.5c-.48-1-.89-2.09-1.28-3.16L95,515.16l-2.43-6.35a343.28,343.28,0,0,1-21.29-107,336.77,336.77,0,0,1,2.2-55.61c.28-2.33.56-4.65.83-7,.12-1.17.34-2.33.53-3.48l.59-3.48c.39-2.32.79-4.64,1.18-7l.59-3.49c.22-1.16.5-2.31.74-3.46,1-4.62,2-9.26,3.1-13.89l3.76-13.8a340.79,340.79,0,0,1,21.19-54,396.4,396.4,0,0,1,29.89-51l8.16-11.31q4.31-5.4,8.51-10.71c1.37-1.81,2.91-3.46,4.38-5.16l4.42-5.05c2.87-3.42,6-6.53,9.08-9.7l3.43-3.44,1.72-1.72,1.82-1.63,7.29-6.53c2.4-2.22,5-4.22,7.5-6.24l7.53-6,7.63-5.49,3.72-2.67,1.83-1.32,1.88-1.21,7.24-4.72,3.46-2.28c1.13-.74,2.3-1.38,3.42-2.06l10.39-6.23,10.31-5.57c1.7-.9,3.35-1.88,5.06-2.69l5.09-2.44,5-2.43c1.66-.79,3.29-1.64,5-2.32,6.72-2.81,13.19-5.79,19.79-8.08l4.89-1.82c1.63-.59,3.22-1.27,4.87-1.75L309.09,62,298.53,65.2c-3.39,1.15-6.65,2.4-9.89,3.55l-4.81,1.75c-.81.28-1.59.59-2.37.93l-2.33,1-9.33,3.94a332.85,332.85,0,0,0-39.23,20.75c-2.41,1.46-4,2.38-5,2.92s-1.21.67-1,.42a57.47,57.47,0,0,1,6.55-4.78l6-4,1.63-1.09,1.71-1,3.46-2.05c4.62-2.7,9.1-5.42,12.5-7A99.37,99.37,0,0,1,267,76.05a108.11,108.11,0,0,0,10.78-3.91l4.78-2,4.8-1.77,9.52-3.62c3.22-1.13,6.5-2.17,9.85-3.29l5.1-1.68c1.71-.6,3.51-1,5.32-1.5,6.19-1.81,5.79-.24,8.87-1.14,1.23-.3,2.44-.67,3.65-.92l3.59-.77,6.85-1.56,3.29-.77,1.6-.39,1.6-.3,6.18-1.16,5.84-1.09,2.81-.5,2.76-.32c3.62-.41,7.06-.72,10.33-.88l3.68-.21h3.6l7,0c2.29,0,4.54,0,6.76,0l6.61.29c5.52.09,11,.6,16.82.87,3.62.13,7.36.45,11.12.68a13,13,0,0,1-4.88-2c2.7.33,6,.66,9.19,1.2s6.46,1.1,9.14,1.51c-2.68-.41-5.91-1-9.14-1.51s-6.49-.87-9.19-1.2a13,13,0,0,0,4.88,2,311.34,311.34,0,0,1,42.35,6.36A303.07,303.07,0,0,1,515.05,69.2l-.31-.26A506.52,506.52,0,0,0,466,52.87c1.85.48,3.18.86,4,1.12s1.11.46.91.49a66.81,66.81,0,0,1-7.05-1.26c-2.13-.7-4.27-1.45-6.39-2.12,15,2.56,29.88,6.25,43.14,12l3.53,1c2,.54,4.25,1.38,5.79,1.86,4.43,1.93,4.06,2.27,4.86,3,1.56.56,3.09,1.23,4.64,1.87L524,72.75c-1.55-.87-4-2.12-6.76-3.52s-6-2.73-9-4.06-5.81-2.41-7.87-3.24Z"/><path class="cls-2" d="M323.34,52.11l3.74-1c1.34-.35,2.81-.58,4.3-.89-1.36.26-2.73.46-4.08.76l-4.05.94-8.11,1.89c-1.34.33-2.71.6-4,1l-4,1.15-8,2.31a106.08,106.08,0,0,0,10.82-2.67c2.06-.66,4.29-1.13,6.55-1.73Z"/></g></g><g id="Logo"><path class="cls-3" d="M344.68,244.35c-.06.07.11-.11,0,0l-.43.45c-.45.47-.9.93-1.36,1.39q-2.17,2.19-4.49,4.24a49.41,49.41,0,0,1-5.65,4.43,15.68,15.68,0,0,1-2.53,1.41,1.71,1.71,0,0,1-1,.22,7.52,7.52,0,0,1-2.93-1.6,26.74,26.74,0,0,1-3.88-3.79,47.5,47.5,0,0,1-7.66-12.58,43.62,43.62,0,0,1-3.51-17A37.16,37.16,0,0,1,314.3,207a6.53,6.53,0,0,1,1.16-2.18,6.91,6.91,0,0,1,1.44-1c3.41-1.93,7.51-1.47,11.14-.47a44.6,44.6,0,0,1,12.16,5.85,86.12,86.12,0,0,1,9.64,7.36c1.71,1.49,3.26,3.19,5,4.67a2.89,2.89,0,0,1,.24.25c.46.49,3.09-.58,2.74-1a83.33,83.33,0,0,0-14-11.71c-7.62-5.12-17.21-9.59-26.44-6.22a17.36,17.36,0,0,0-3.19,1.54,14.88,14.88,0,0,0-1.33.91,5.58,5.58,0,0,0-1.32,2.26,38.1,38.1,0,0,0-2.84,10.05,41.35,41.35,0,0,0,2.1,19.16A48.77,48.77,0,0,0,318.71,251c1.94,2.41,4.51,5.53,7.6,6.49,1.69.52,3.65-.11,5.22-.76a26.27,26.27,0,0,0,5.89-3.58,82.56,82.56,0,0,0,9.48-8.64l.63-.66c.31-.34-1.08-.21-1.14-.2a3.09,3.09,0,0,0-1.71.74Z"/><path class="cls-3" d="M476.09,219.83a95.34,95.34,0,0,1,11.26-9.49,36.19,36.19,0,0,1,8.9-5.07c2.09-.73,4.44-.89,6,.94s2,4.94,2.08,7.37a41.31,41.31,0,0,1-1,10.57,48.73,48.73,0,0,1-3.46,10.56c-1.29,2.74-2.93,5.64-5.37,7.53-1.42,1.09-2.15,1.15-4,1.18a13.25,13.25,0,0,1-6.88-1.74,11.72,11.72,0,0,1-4.63-4.76c-.37-.8-3.18.15-2.89.77,2.82,6.09,11.13,8.28,17.16,6.54,6.86-2,10.14-10.37,12-16.53a50.55,50.55,0,0,0,2.05-11.89c.13-3,.07-6.5-1.36-9.27-3.32-6.43-12.57-1.63-16.87,1A86.72,86.72,0,0,0,473.45,220c-.49.48.42.6.71.59a3,3,0,0,0,1.93-.72Z"/><path class="cls-3" d="M250.26,439.92a121.69,121.69,0,0,1,11.82-23.29A71.07,71.07,0,0,1,275.22,401a89,89,0,0,1,18.33-12.23c3.66-1.8,7.59-2.87,11.4-4.31,2-.75,4.81-2.48,6.87-1.16a2.22,2.22,0,0,0,1.9-.06c.19-.08,1.33-.68.81-1-2-1.29-4.4-.89-6.58-.21-3.61,1.15-7.17,2.56-10.75,3.8-7.21,2.49-13.89,6.88-19.94,11.43a71.2,71.2,0,0,0-15.15,15.46,121.41,121.41,0,0,0-10.33,17.62c-1.6,3.27-3.13,6.6-4.4,10-.28.77,2.56.43,2.88-.43Z"/><path class="cls-3" d="M306.51,448.81a55.27,55.27,0,0,1-16.07,8.52,50.07,50.07,0,0,1-13.17,3,7.68,7.68,0,0,1-1.74,0c-.2,0-.17-.08-.13,0a.8.8,0,0,1,.09.54c.56-1.57-2.34-1.55-2.78-.33-1.09,3.05,6.49,1.74,7.64,1.55A68,68,0,0,0,298,456.49a54.52,54.52,0,0,0,10.44-6.35c1.55-1.21-.78-2.22-1.92-1.33Z"/><path class="cls-3" d="M300,385.52,285.9,372.83l-2-1.82-2.55,1,9.95,3.09c.43.13,3.09-.55,2.56-1l-12.7-11.67-2.56,1,13.27,2.85c.41.09,2.82-.23,2.64-.95-.94-3.7-1.95-7.38-2.64-11.14a89,89,0,0,1-1.08-24.12c1.4-15.58,7.05-30.38,15.46-43.5a129.36,129.36,0,0,1,15.93-20c.44-.47-.4-.48-.68-.46a3.49,3.49,0,0,0-1.94.69,45.4,45.4,0,0,0-5.3,5.44c-.41.47.37.48.68.46a3.39,3.39,0,0,0,1.94-.69c1.84-1.75,3.55-3.61,5.3-5.44.11-.12.21-.26,0-.38-16.39-12.79-26.68-34.47-24.77-55.35a47.91,47.91,0,0,1,3.88-15.1c2.25-5.09,5.34-10.17,9.95-13.42a26.12,26.12,0,0,1,15.83-4.56c6.09.17,11.89,2.3,17.25,5.08,12.32,6.37,21.62,16.86,31.29,26.53.45.45,2.59-.18,2.79-.75l3.9-10.91-2.87.65,3.78,11.8c.22.67,2.81-.14,2.9-.78L389,189l-2.9.78L392.59,208c.24.69,2.65-.16,2.88-.64l6.45-13.58-2.87.64,4.89,16c.2.63,2.74-.11,2.88-.65l4.87-19,.7-2.74-2.88.65,7.12,17.69c.3.74,2.58-.22,2.88-.64l13.26-18.92,1.88-2.68-2.88.65.78,22.41.11,3.19c0,.66,2.65-.24,2.88-.65,2-3.54,4.12-7.1,6.47-10.45.37-.53,1.13-1.31,1.36-1.71-.39.67-2.33.09-2.27.46,0,.1.11.2.14.3.1.39.26.78.37,1.17.71,2.46,1.21,5,1.73,7.5.39,1.87.77,3.74,1.12,5.61.14.71,2.64-.24,2.88-.65l11.12-18.72,1.57-2.65-2.88.65,2.26,19.49c.09.71,2.5-.29,2.76-.51,7.3-5.95,15.18-11.35,24.09-14.61,5.69-2.08,12-3.7,18.07-3.06,18.67,1.93,14.33,26.09,10.6,38.5A100.51,100.51,0,0,1,500.52,260c-.3.43,1.06.28,1.16.27a2.75,2.75,0,0,0,1.7-.78,101.71,101.71,0,0,0,14-27.43c2.77-8.65,5.09-18.5,3.25-27.57a16.47,16.47,0,0,0-5-9.49,16.2,16.2,0,0,0-8.56-3.47c-6.73-.84-13.68.77-20,2.9-10.18,3.43-19.15,9.33-27.43,16.08l2.76-.5-2.26-19.49c-.08-.7-2.64.25-2.88.65l-11.11,18.72-1.58,2.65,2.88-.65a121.94,121.94,0,0,0-3-13.64c-.26-.79-.37-1.32-1.33-1.26a3.79,3.79,0,0,0-2.67,1.29,43.88,43.88,0,0,0-4.31,6.39q-1.73,2.81-3.37,5.64l2.88-.64-.78-22.41-.11-3.2c0-.7-2.63.3-2.88.65l-13.26,18.92-1.87,2.67,2.87-.64L412.41,188c-.25-.62-2.74.09-2.88.65l-4.86,19-.7,2.74,2.87-.64-4.9-16c-.21-.69-2.65.17-2.87.64l-6.46,13.58,2.88-.64L389,189c-.24-.68-2.8.14-2.9.78l-2.89,20.48,2.9-.78-3.79-11.8c-.21-.65-2.69.14-2.87.65l-3.9,10.91,2.79-.75c-9.1-9.11-17.85-18.95-29.17-25.39-5.35-3-11.27-5.53-17.42-6.21a35,35,0,0,0-17.37,2.52,28.9,28.9,0,0,0-7.29,4.43,27.27,27.27,0,0,0-5.41,6.46,46.65,46.65,0,0,0-6.25,15.33,58.31,58.31,0,0,0,2.74,32.07,66.78,66.78,0,0,0,21.28,29.57l.06-.37c-1.75,1.83-3.46,3.69-5.3,5.44l2.62-.23a45.4,45.4,0,0,1,5.3-5.44l-2.62.23c-10.49,10.86-19.39,23.4-25.14,37.41a91.07,91.07,0,0,0-6,47.13,137.45,137.45,0,0,0,3.22,14.75l2.64-.94L281,362.36c-.38-.08-3.12.53-2.55,1.05l12.69,11.67,2.56-1.05-10-3.09c-.43-.13-3.09.57-2.56,1.05l14.09,12.69,2,1.82c.56.51,3.15-.6,2.73-1Z"/><path class="cls-3" d="M515.45,437c9.16,11.74,13.92,26.5,16.06,41.08a125,125,0,0,1-2.53,49c-3.82,14.85-10.72,29.28-21.77,40.11-9,8.82-20.06,15.56-31.34,21A190.1,190.1,0,0,1,431,603.36a182.4,182.4,0,0,1-52.38,3.23A151.41,151.41,0,0,1,325.12,592a142.51,142.51,0,0,1-12.79-7.11,53.88,53.88,0,0,1-7.07-4.89,64.31,64.31,0,0,1-9.2-10.5,109.14,109.14,0,0,1-17.85-39.37,96.88,96.88,0,0,1,3.55-55.78,109.14,109.14,0,0,1,6.93-14.82c.74-1.33-2.18-1.2-2.74-.21-10,17.95-14.79,38.32-12.74,58.85a109.07,109.07,0,0,0,15.21,45,91.48,91.48,0,0,0,10.24,14.09A46.5,46.5,0,0,0,303,581.5a61.17,61.17,0,0,0,7.8,5.35,149.8,149.8,0,0,0,53.68,20,178,178,0,0,0,54.18.51A199.17,199.17,0,0,0,467,594.23c12.81-5.28,25.33-12,36.15-20.68a78,78,0,0,0,13.68-14,86.4,86.4,0,0,0,11.25-20.79,122,122,0,0,0,7.5-49c-.72-15.62-4.16-31.51-11.78-45.28a65.24,65.24,0,0,0-5.7-8.65c-.71-.92-3.49.15-2.67,1.21Z"/><path class="cls-3" d="M499.49,260.3a46,46,0,0,1,4.55,4.92,86.74,86.74,0,0,1,9.72,14.64c9.31,17.52,12.85,37.59,11.33,57.29-.53,6.84-2.11,13.51-3.44,20.24-.19.93,1.63.55,2,.38,1.77-.77,3.54-1.53,5.33-2.26,1.34-.55,2.68-1.1,4-1.59.5-.19.81-.3,1.26-.44a3.7,3.7,0,0,0,.57-.16c.16-.07-.3,0-.05,0a1.1,1.1,0,0,1-.92-.5c0-.05.12-.15-.12.09s-.59.55-.9.81c-.9.79-1.84,1.54-2.78,2.28-2.32,1.85-4.67,3.65-7,5.44l-4.55,3.41c-.71.54,0,1,.59,1h17.16l-.32-1.21-17.4,8.9L516,374.86c-.64.34-.77,1,0,1.18l5.84,1.49-.27-1-8.17,6.78c-.11.1-.4.42-.29.61a106.58,106.58,0,0,1,6.9,14.62c1.83,4.83,3,9.86,1.9,15-1.91,9.1-9.55,15.38-17.38,19.58a74.58,74.58,0,0,1-16.28,6.14c-.41.11-1.42.5-1.26,1.09s1.25.41,1.63.31c10-2.65,20.06-6.69,27.82-13.76A27.26,27.26,0,0,0,524,416a24,24,0,0,0-.1-15.31A91.18,91.18,0,0,0,516,383.16l-.29.61,8.18-6.79c.48-.4.3-.85-.27-1l-5.83-1.49v1.18l17.39-8.9,2.51-1.29c.87-.44.59-1.21-.32-1.21H520.23l.59,1c4.1-3.06,8.2-6.14,12.19-9.34.91-.73,1.83-1.47,2.7-2.26.35-.32,1.21-.93,1.07-1.5-.41-1.62-6.16,1-6.89,1.33-2.48,1-4.93,2-7.36,3.09l2,.38c1.05-5.31,2.44-10.65,3-16a113.72,113.72,0,0,0-1.19-34.2,96.53,96.53,0,0,0-18.55-41.3,50.43,50.43,0,0,0-5.65-6.3c-.74-.66-3.46.44-2.7,1.12Z"/><path class="cls-3" d="M487.14,400.21a40.38,40.38,0,0,0-12.83,8.72,46.67,46.67,0,0,0-5.24,6.08c-.31.43,1.06.3,1.16.28a2.7,2.7,0,0,0,1.7-.79A44,44,0,0,1,483,403.78a39.56,39.56,0,0,1,3.84-2.29c.39-.2.78-.39,1.18-.56.22-.1.69-.29.14-.07.25-.1,1.19-.42.87-.82s-1.57,0-1.87.17Z"/><path class="cls-3" d="M460.38,430.07a23.26,23.26,0,0,0-3.8,15.36c.82,6.66,5.47,12.06,11.43,14.81,1.26.58,3.35-1.23,1.66-2a17.48,17.48,0,0,1-10.19-13.57,20.1,20.1,0,0,1,1.31-9.49,25.57,25.57,0,0,1,1.36-3c.17-.32.35-.64.54-.95s-.06.07.13-.22c1-1.54-1.66-2.06-2.44-.91Z"/><path class="cls-3" d="M471.26,433.61c-3.22,4.19-5.36,9.93-4.76,15.25a16.54,16.54,0,0,0,5.4,10.1c2.32,2.13,5.23,3.39,8.28,2,2-.92,2.22-2.95,2.54-4.92a31.29,31.29,0,0,1,3.58-10.68,34.62,34.62,0,0,1,7.95-10c1.6-1.31,3.55-2.66,3-5a11.11,11.11,0,0,0-1.12-2.61c-.86-1.65-1.76-3.28-2.61-4.94-.95-1.85-1.67-4-3.08-5.59-2.22-2.47-5.62-3.13-8.8-3.24a53.88,53.88,0,0,0-8.23.36,45.57,45.57,0,0,0-14.63,4.56c-4.91,2.46-9.69,5.81-12.63,10.55-3.48,5.61-3.06,12.25-.23,18.06a28.72,28.72,0,0,0,6.1,8.21c1.56,1.47,2.91,2.23,5.15,1.62a5.27,5.27,0,0,0,3.48-3c.23-.46-1-.27-1.15-.25-.46.08-1.46.28-1.7.77a6.58,6.58,0,0,1-.75,1.25c-.25.32-.93.65-.16.45s.21-.06,0-.2-.36-.16-.53-.27a10.86,10.86,0,0,1-1.68-1.43,27.87,27.87,0,0,1-5.66-7.58c-2.67-5.26-3.49-11.4-.75-16.78,2.25-4.45,6.27-7.75,10.55-10.17a38.44,38.44,0,0,1,12.36-4.51,46.27,46.27,0,0,1,6.33-.48c2.94-.1,6.13,0,8.66,1.7a9.17,9.17,0,0,1,3.16,4.11c1.37,2.85,3,5.58,4.35,8.42.66,1.35,1.21,2.82.27,4.2-.78,1.14-2.21,1.93-3.24,2.84a27.8,27.8,0,0,0-3.77,4.05,37.76,37.76,0,0,0-5.61,10,60.85,60.85,0,0,0-1.77,7.87,7.27,7.27,0,0,1-.36,1.29c-.12.29-.47.64-.54.91s-.13.21.28,0,0-.06-.31-.12a6.51,6.51,0,0,1-2.09-.92,16.3,16.3,0,0,1-6.33-8c-2.15-5.79-.19-12.19,3-17.17.27-.43.56-.85.87-1.25s-1.07-.25-1.15-.24a2.82,2.82,0,0,0-1.71.77Z"/><path class="cls-3" d="M457.77,441.21c1.66,0,2.21-2.15.25-2.15-1.66,0-2.22,2.15-.25,2.15Z"/><path class="cls-3" d="M357.3,465.21A134.7,134.7,0,0,0,338,489.58a91.5,91.5,0,0,0-11.05,23.84,65,65,0,0,0-2.22,18.15,75.49,75.49,0,0,0,6.35,30.4,61.91,61.91,0,0,0,22.67,26.54c13.27,8.64,29.27,12.16,44.91,13,17.43.88,35.68-.74,51.88-7.62A65.18,65.18,0,0,0,480,569.56c6.6-10.19,10.06-22.13,11.36-34.12a103.06,103.06,0,0,0-6.2-48.38A95.07,95.07,0,0,0,469,459.39c-.35-.4-.7-.81-1.08-1.2-.81-.84-3.57.28-2.67,1.21,5.08,5.27,9.11,11.86,12.47,18.31a100.58,100.58,0,0,1,11.36,48.4c-.24,11.91-2.24,24-7.21,34.89a60.86,60.86,0,0,1-23.54,26.76C444.94,596,429,599,413.51,599.62c-16.78.69-34.36-1-49.69-8.29a61.59,61.59,0,0,1-26.5-23.72A70.29,70.29,0,0,1,328,537.89a79.44,79.44,0,0,1-.05-14,66.53,66.53,0,0,1,6.94-23.57,132.41,132.41,0,0,1,23.21-32.74c.53-.55,1.06-1.1,1.61-1.64a.7.7,0,0,0-.33-1.23,2.18,2.18,0,0,0-2.05.55Z"/><path class="cls-3" d="M295.69,437.23c.6,0,1.61-.19,1.9-.81s-.23-.94-.8-.94-1.62.19-1.91.82.23.93.81.93Z"/><path class="cls-3" d="M376.88,303.26c-1.31,4.61-5.49,6.43-6.6,6.91a9.71,9.71,0,0,1-6.59.8c-4-1.09-5.79-4.91-6.27-6-.31-.66-1.4-3.13-.83-8a16.18,16.18,0,0,1,6.14-6.42,11.23,11.23,0,0,1,11.9,3.05C374.85,293.85,378.37,298,376.88,303.26Z"/><path class="cls-3" d="M375.42,303.38A10.28,10.28,0,0,1,368.1,310c-4.18,1.18-7.63-1.75-9.26-5.37a11.77,11.77,0,0,1-.92-4.05c-.09-1.34-.21-3.06.48-4.25a12.78,12.78,0,0,1,2.2-2.77,15.22,15.22,0,0,1,2-1.67l.69-.46c.34-.22,0,0,0,0a16.41,16.41,0,0,0,1.62-.32,10.08,10.08,0,0,1,2,0,9.6,9.6,0,0,1,3.62,1,10,10,0,0,1,4.88,11.31c-.35,1.32,2.61,1,2.93-.25a11.4,11.4,0,0,0-4.78-12.21,13,13,0,0,0-8.81-1.82,8.67,8.67,0,0,0-3.2,1,17.58,17.58,0,0,0-1.94,1.39,17.84,17.84,0,0,0-2.8,2.83,15.52,15.52,0,0,0-1.18,1.73,5.18,5.18,0,0,0-.64,2.56,15.14,15.14,0,0,0,.79,6.44c1.77,4.37,5.68,7.65,10.61,7.22,5.2-.45,10.42-4,12-9.1.21-.69-.87-.91-1.32-.88A1.75,1.75,0,0,0,375.42,303.38Z"/><path class="cls-4" d="M356.43,297.3l.16-.38V297Z"/><path class="cls-3" d="M357.86,297l.14-.33,0,0-2.88.65h0l0-.13c0,.05,0,.11,0,.16l0-.12-.16.33c0,.08,0,.14,0,.18a.26.26,0,0,0,.21.12,1.88,1.88,0,0,0,.41,0,2.22,2.22,0,0,0,.51-.06l.39-.09a4.37,4.37,0,0,0,.72-.25l.27-.15a.84.84,0,0,0,.33-.29l.08-.17,0-.09,0,0v0a.39.39,0,0,0,0-.15l0,.13a1,1,0,0,0,0-.17.21.21,0,0,0-.17-.13.75.75,0,0,0-.33-.06h-.31a3.45,3.45,0,0,0-.56.1,2.36,2.36,0,0,0-.38.1,3.39,3.39,0,0,0-.53.2l-.27.14a.89.89,0,0,0-.32.29l-.15.34,0,0c0,.08,0,.14,0,.18a.26.26,0,0,0,.21.12,1.88,1.88,0,0,0,.41,0,2.22,2.22,0,0,0,.51-.06l.39-.09a4.37,4.37,0,0,0,.72-.25l.27-.15A.84.84,0,0,0,357.86,297Z"/><path class="cls-4" d="M364.82,278s-4.36,6.17-5.44,8.92-2.79,10-2.79,10c.11-.91.27-1.91.51-3A38.3,38.3,0,0,1,364.82,278Z"/><path class="cls-3" d="M363.46,277.92c-2,2.83-4.21,5.81-5.49,9a70.26,70.26,0,0,0-2.83,10.12l2.91-.31a37.59,37.59,0,0,1,8.13-18.69c.45-.57-.38-.95-.82-1a2.2,2.2,0,0,0-1.9.83,38.65,38.65,0,0,0-8.32,19.16c-.16,1.31,2.67.72,2.91-.31a66.9,66.9,0,0,1,2.74-9.88,33,33,0,0,1,3.08-5.38c.75-1.16,1.52-2.3,2.31-3.43.41-.58-.35-.95-.82-1A2.17,2.17,0,0,0,363.46,277.92Z"/><path class="cls-3" d="M398,358.71c-2.08,1.77-4.05,4-4.46,6.81-.45,3.07,1.23,6,3.44,8a18.07,18.07,0,0,0,19.15,3.11c4.68-1.94,11.68-7.22,10.13-13.18-1.08-4.16-6.16-6.49-9.92-7.64-6-1.84-13.1-1.37-18.08,2.73-1.52,1.25.85,1.94,1.86,1.11,3.85-3.18,8.91-3.51,13.6-2.32,3,.78,6.39,2.23,8.43,4.66,3.65,4.34-.92,9.5-4.66,11.85a14.57,14.57,0,0,1-16.38-.4c-2.38-1.62-4.7-4.21-4.73-7.25,0-2.84,2-5,4-6.76.51-.44.21-1-.33-1.22A2.23,2.23,0,0,0,398,358.71Z"/><path class="cls-3" d="M382.82,359.76a145.54,145.54,0,0,0-84.8,32.7,152.69,152.69,0,0,0-13.06,12,.74.74,0,0,0,.35,1.28,2.09,2.09,0,0,0,2.05-.55,146.71,146.71,0,0,1,26.57-21.67A141.09,141.09,0,0,1,359,364.89a143.57,143.57,0,0,1,23.53-3.17c1.58-.08,2.29-2.06.3-2Z"/><path class="cls-3" d="M378.1,367.86a137.65,137.65,0,0,0-40.84,12.94,135.62,135.62,0,0,0-46.63,38.56c-.62.82,2.18.46,2.64-.14a134.51,134.51,0,0,1,23-23.45,130.31,130.31,0,0,1,41.06-22,132.44,132.44,0,0,1,20.24-4.73c.35-.06,1.67-.34,1.68-.84s-.83-.43-1.18-.37Z"/><path class="cls-3" d="M375.8,378a131.12,131.12,0,0,0-38,17.71,128.64,128.64,0,0,0-29.18,27.57,130.53,130.53,0,0,0-9.05,13.32c-.26.45,1,.29,1.16.26.51-.08,1.4-.28,1.7-.78a127,127,0,0,1,54.34-49.94,125.35,125.35,0,0,1,19.3-7.27c.26-.07,1.45-.39,1.33-.82s-1.36-.11-1.56-.05Z"/><path class="cls-3" d="M371.83,387.92a80.24,80.24,0,0,0-34.47,27.85,79.21,79.21,0,0,0-5.35,8.88c-.29.56,1,.51,1.22.49a2.21,2.21,0,0,0,1.66-.91,77.27,77.27,0,0,1,29.48-31,75.86,75.86,0,0,1,8.55-4.29c.39-.17,1.13-.52.81-1s-1.57-.09-1.9.05Z"/><path class="cls-3" d="M439.08,356A100.68,100.68,0,0,1,510,376.09a102.09,102.09,0,0,1,10.92,9.65c.67.68,3.41-.38,2.7-1.1a102.85,102.85,0,0,0-84.14-30.11c-.43,0-1.63.36-1.65.94s.79.6,1.23.55Z"/><path class="cls-3" d="M441.25,363.26A88.64,88.64,0,0,1,483,373.65a92.92,92.92,0,0,1,27.28,22.41,96.19,96.19,0,0,1,7.39,10.11c.45.71,3.13-.42,2.9-.78A98.75,98.75,0,0,0,503.28,385,89.58,89.58,0,0,0,466,365a92.3,92.3,0,0,0-22.86-2.89,3.48,3.48,0,0,0-2.05.55c-.37.31-.47.63.17.63Z"/><path class="cls-3" d="M444.2,369.63a90.17,90.17,0,0,1,63.45,52c.27.62,3.08-.36,2.9-.78a90.8,90.8,0,0,0-63.95-52.25,3.58,3.58,0,0,0-2,.39c-.23.11-1,.53-.38.66Z"/><path class="cls-3" d="M447.12,378.08a62.17,62.17,0,0,1,34.49,24.4,63.6,63.6,0,0,1,4.16,6.91c.43.81,3.21-.19,2.9-.78A63.41,63.41,0,0,0,460.56,381a62.51,62.51,0,0,0-11.09-4.17,2.9,2.9,0,0,0-2,.33c-.27.15-1,.71-.32.89Z"/><path class="cls-3" d="M378.91,397.93a26.28,26.28,0,0,0,18.48,8.49c4.89.13,10.76-.95,13.44-5.49a13.45,13.45,0,0,0,1.86-5.91,17.51,17.51,0,0,0,0-2,6.63,6.63,0,0,0,0-.78c-.2-1.09-2.92-.29-2.9.78a12.53,12.53,0,0,0,1.16,4.45,12.27,12.27,0,0,0,2.77,4.4,14.53,14.53,0,0,0,5.78,3A20.53,20.53,0,0,0,437.7,401c4.15-3.27,6.88-8,8.83-12.8.25-.64-.94-.7-1.27-.67a1.93,1.93,0,0,0-1.64,1c-2.65,6.6-7.35,13.52-14.81,15-4,.78-9,0-12.24-2.73a10.67,10.67,0,0,1-2.67-4,12.63,12.63,0,0,1-1.23-4.63l-2.9.78c0-.31,0,.27,0,.41,0,.44,0,.88,0,1.32A13.43,13.43,0,0,1,409,399a7.46,7.46,0,0,1-4.2,4.75c-4.39,1.77-9.84,1.06-14.13-.66a25,25,0,0,1-9.09-6.32c-.71-.77-3.47.3-2.68,1.16Z"/><ellipse class="cls-4" cx="363.22" cy="304.51" rx="2.09" ry="4.14" transform="translate(-90.08 166.03) rotate(-22.99)"/><path class="cls-3" d="M471.4,294.25c0,5.07-2.83,11-7.49,12.22a8,8,0,0,1-6-1c-.3-.18-5.2-3.15-5-8.05.17-4,3.6-6.31,4.72-7.08,4.51-3.07,9.42-1.38,10.54-1,0,0,1.35.71,2.7,1.35A13.06,13.06,0,0,1,471.4,294.25Z"/><path class="cls-3" d="M470,294.64c0,3.78-1.47,8.14-4.57,10.52a4.72,4.72,0,0,1-5.06.36,9.41,9.41,0,0,1-2-1.21c-2.61-2-4.61-5.27-3.66-8.67.81-2.93,3.92-6,7-6.39a11.08,11.08,0,0,1,5,.6c.49.17,1.29.63,2,1a3.73,3.73,0,0,1,.6.3c.4.3.42.75.5,1.21a13.69,13.69,0,0,1,.21,2.31c0,.47,2.91,0,2.9-.78a13.69,13.69,0,0,0-.21-2.31,6.56,6.56,0,0,0-.19-.88c-.15-.44-.38-.49-.78-.69-.8-.39-1.58-.87-2.42-1.18A14,14,0,0,0,464,288c-4.33.14-9,2.38-11.35,6.15s-.67,8.18,2.57,10.87a9.86,9.86,0,0,0,10.23,1.41c4.9-2,7.37-7.51,7.39-12.57C472.85,293.4,470,293.81,470,294.64Z"/><path class="cls-3" d="M458.86,280.11a15.54,15.54,0,0,1,6.68,4.12,10.6,10.6,0,0,1,2.74,4.33c.45,1.64.75,3.32,1.19,5,.25.91,3.15.15,2.9-.77-.45-1.69-.76-3.42-1.24-5.1a11.42,11.42,0,0,0-2.89-4.52,16.59,16.59,0,0,0-7.05-4.35,2.65,2.65,0,0,0-2,.3c-.31.18-1,.82-.29,1Z"/><ellipse class="cls-4" cx="458.23" cy="300.62" rx="1.9" ry="3.92" transform="translate(-89.79 305.1) rotate(-33.74)"/><path class="cls-5" d="M497.05,272.87c-13-27-52.62-12-52.62-12s-21.07,6.69-28.8,6l-2.22.09c-7.74.56-28.72-6.4-28.72-6.4s-39.41-15.47-52.76,11.35a53.42,53.42,0,0,0-4.87,14.74,44.05,44.05,0,0,0,2.15,23.42,40.45,40.45,0,0,0,12.53,16.72c9.35,7.48,21.62,9.34,33.3,9.49,5.39.07,12.83-.16,17.49-3.22,4.4-2.89,6.47-8,8.89-12.42,1.79-3.27,3.49-6.61,5.09-10,0,0,2.39-8.06,7.34-8.06h1.09c4.95.07,7.05,8.05,7.05,8.05q2.33,5.1,5,10.06c2.36,4.46,4.36,9.58,8.73,12.52,4.62,3.12,12.06,3.45,17.45,3.44,11.68,0,24-1.7,33.41-9.07a40.29,40.29,0,0,0,12.74-16.56C504.27,298.61,502.8,284.8,497.05,272.87ZM492.39,318a38.06,38.06,0,0,1-24.83,15.59c-5.5.87-10.9,1.76-16.43,1.41-5.35-.33-12.44-.68-16.14-5-3.29-3.82-5.81-10-8.15-14.38-1.48-2.79-2.89-5.63-4.2-8.51,0,0-1.68-7.5-7.53-7.07l-1.34.1h0a7.1,7.1,0,0,0-3.95,1,8.87,8.87,0,0,0-2.3,2.43,26.33,26.33,0,0,0-1.62,3.5q-2,4.29-4.31,8.46c-2.39,4.38-5,10.49-8.33,14.28-3.76,4.26-10.84,4.52-16.2,4.78-5.54.28-10.92-.68-16.41-1.61A38,38,0,0,1,336,317.09c-8.86-12.9-9-30.64-1.48-44.14,14.36-25.66,52.88-9.35,52.88-9.35s19.5,6.76,26,6.28l2.08-.09c6.56-.29,26.13-6,26.13-6s38.71-15.82,52.75,10C501.81,287.44,501.41,305.18,492.39,318Z"/><path class="cls-6" d="M327.06,286.68,304.7,287a85.69,85.69,0,0,1-4.41,7.35,54.18,54.18,0,0,0-4.3,8.78L327,302"/><path class="cls-6" d="M501.35,285.09l16.76-.29a65.29,65.29,0,0,1,3.73,8.29,45.62,45.62,0,0,1,1.53,7.38l-21.27-.22a35.71,35.71,0,0,0,.33-7.79A28.34,28.34,0,0,0,501.35,285.09Z"/><path class="cls-7" d="M428.46,398.42a17,17,0,1,1-17-17A17,17,0,0,1,428.46,398.42Z"/><circle class="cls-7" cx="411.14" cy="398.49" r="12.51"/><path class="cls-7" d="M294.94,302.42a46.1,46.1,0,0,0-6.24,1.74c-4.6,1.75-7.93,5-10.79,8.27a29.58,29.58,0,0,0-7.08,12.7c-3.87,14.86,1.7,28.77,12.1,39.47,5.71,5.88,12.46,10.64,19.39,15,20.64,13,43.52,22.18,68.19,22.1,7.75,0,16.5-.7,23.89-3.27,0,0,0-.63.05-1.2s.14-1.5.14-1.5c-1.14.16-7.86,1.36-8.59,1.45a105,105,0,0,1-23.44.32c-24.65-2.34-47.09-12.77-67.07-26.94a83.3,83.3,0,0,1-10-8.15c-5.46-5.31-10-11.84-11.69-19.26a34.36,34.36,0,0,1,1.72-20.06c2.78-7.14,7.76-13.22,15.09-15.87l3.88-1.25,1.57-3.73Z"/><path class="cls-8" d="M311,586.52s-43.83,30.72-49.42,36.4,16.86-15,14,4c0,0,16.11-13.6,18.7,3,0,0,15.28-13.36,15.28,1.42s16.86-37.49,16.86-37.49Z"/><path class="cls-8" d="M455.21,597.93c-2,.76,20.09,43.35,20.09,43.35s-1.5-15.75,15.36-9.35c1.44.55.67-15.36,17.37-5,1.79,1.12-6.57-16,10.35-11.18s-47.09-24.55-47.09-24.55S458.16,596.81,455.21,597.93Z"/><line class="cls-8" x1="280.78" y1="617.74" x2="299.14" y2="602.21"/><line class="cls-8" x1="296.81" y1="623.42" x2="310.16" y2="604.05"/><line class="cls-8" x1="484.98" y1="624.09" x2="469.29" y2="606.72"/><line class="cls-8" x1="501.35" y1="618.91" x2="478.14" y2="602.71"/><path class="cls-9" d="M228.07,471.36c-2.72.82-5.8.4-6.23-2.92a7.77,7.77,0,0,1,.6-3.77,34.52,34.52,0,0,1,2.21-4.78,54.34,54.34,0,0,1,8-11.08c5.18-5.12,14.66-7.94,22.71-6,3.92,1,4.91,1.82,7.87,4.4,5,4.37,9.19,8,10.21,14.14a19.31,19.31,0,0,1-1.1,9.65c-.56,1.69-2,11.93-8,12.22-3.41.16-5.36-1.48-5.13-3.46.26-2.17.18-4.9,2.52-8.65,2-3.14,2.81-6.53.82-7.52-.51-.25-1.66-.52-4.86,1.65-7.7,5.21-7.55,11.14-12.63,12.82-3.4,1.13-7.81-.08-8.94-2.38-2.08-4.27,7.45-10.06,8.23-10.73,2.43-2.1,4.78-3.58,5.94-6.48"/><path class="cls-9" d="M239.92,454.78c-1.81,5.09-11.18,11.17-11.47,18.9a7.17,7.17,0,0,0,.67,3.54,2.58,2.58,0,0,0,2.27,1.51,6.64,6.64,0,0,0,2.18-.1,8,8,0,0,0,2.9-1.92"/><circle class="cls-10" cx="428.26" cy="374.08" r="4.17"/><ellipse class="cls-11" cx="429.43" cy="371.6" rx="0.71" ry="1.58" transform="translate(-107.1 557.7) rotate(-60)"/><circle class="cls-10" cx="435.34" cy="355.69" r="5.69"/><ellipse class="cls-11" cx="436.94" cy="352.3" rx="0.97" ry="2.16" transform="translate(-86.63 554.55) rotate(-60)"/><circle class="cls-10" cx="439.29" cy="324.83" r="10.22"/><ellipse class="cls-11" cx="442.16" cy="318.74" rx="1.73" ry="3.87" transform="translate(-54.95 542.29) rotate(-60)"/><circle class="cls-10" cx="441.41" cy="278.47" r="15.3"/><ellipse class="cls-12" cx="445.71" cy="269.35" rx="2.6" ry="5.8" transform="translate(-10.41 520.67) rotate(-60)"/><circle class="cls-10" cx="446.22" cy="222.37" r="19.57"/><ellipse class="cls-12" cx="451.72" cy="210.71" rx="3.32" ry="7.42" transform="translate(43.38 496.55) rotate(-60)"/><circle class="cls-10" cx="458.05" cy="160.56" r="23.23"/><ellipse class="cls-12" cx="464.58" cy="146.72" rx="3.94" ry="8.8" transform="translate(105.23 475.7) rotate(-60)"/></g></svg>