<svg xmlns="http://www.w3.org/2000/svg" xmlns:xlink="http://www.w3.org/1999/xlink" viewBox="0 0 1504.45 781.87"><defs><style>.cls-1{opacity:0.85;}.cls-2{fill:#0e1322;}.cls-3{fill:#1d1d1b;}.cls-4{fill:#fff;}.cls-5{fill:url(#Dégradé_sans_nom_18);}.cls-6{fill:#010101;}.cls-7{fill:url(#Dégradé_sans_nom_18-2);}.cls-8{fill:url(#Dégradé_sans_nom_18-3);}.cls-9{fill:url(#Dégradé_sans_nom_18-4);}.cls-10{fill:url(#Dégradé_sans_nom_18-5);}.cls-11{fill:url(#Dégradé_sans_nom_18-6);}.cls-12{fill:url(#Dégradé_sans_nom_18-7);}.cls-13{fill:url(#Dégradé_sans_nom_18-8);}.cls-14{fill:url(#Dégradé_sans_nom_18-9);}.cls-15{fill:url(#Dégradé_sans_nom_18-10);}.cls-16{fill:url(#Dégradé_sans_nom_18-11);}.cls-17{fill:url(#Dégradé_sans_nom_18-12);}.cls-18{fill:url(#Dégradé_sans_nom_18-13);}</style><linearGradient id="Dégradé_sans_nom_18" x1="1220.47" y1="360.33" x2="1244.58" y2="360.33" gradientUnits="userSpaceOnUse"><stop offset="0" stop-color="#202c53"/><stop offset="0.8" stop-color="#202c53" stop-opacity="0.93"/><stop offset="1" stop-color="#202c53" stop-opacity="0.9"/></linearGradient><linearGradient id="Dégradé_sans_nom_18-2" x1="1428.25" y1="456.58" x2="1493.05" y2="456.58" xlink:href="#Dégradé_sans_nom_18"/><linearGradient id="Dégradé_sans_nom_18-3" x1="591.49" y1="395.36" x2="699.15" y2="395.36" xlink:href="#Dégradé_sans_nom_18"/><linearGradient id="Dégradé_sans_nom_18-4" x1="796.12" y1="455.69" x2="860.92" y2="455.69" xlink:href="#Dégradé_sans_nom_18"/><linearGradient id="Dégradé_sans_nom_18-5" x1="971.59" y1="360.31" x2="971.68" y2="360.31" xlink:href="#Dégradé_sans_nom_18"/><linearGradient id="Dégradé_sans_nom_18-6" x1="933.89" y1="390.88" x2="1068.37" y2="390.88" xlink:href="#Dégradé_sans_nom_18"/><linearGradient id="Dégradé_sans_nom_18-7" x1="1080.71" y1="421.01" x2="1205.38" y2="421.01" xlink:href="#Dégradé_sans_nom_18"/><linearGradient id="Dégradé_sans_nom_18-8" x1="712.07" y1="468.25" x2="789.07" y2="468.25" xlink:href="#Dégradé_sans_nom_18"/><linearGradient id="Dégradé_sans_nom_18-9" x1="1342.09" y1="468.25" x2="1419.09" y2="468.25" xlink:href="#Dégradé_sans_nom_18"/><linearGradient id="Dégradé_sans_nom_18-10" x1="1000.51" y1="465.43" x2="1067.03" y2="465.43" xlink:href="#Dégradé_sans_nom_18"/><linearGradient id="Dégradé_sans_nom_18-11" x1="1245.54" y1="398.59" x2="1410.04" y2="398.59" xlink:href="#Dégradé_sans_nom_18"/><linearGradient id="Dégradé_sans_nom_18-12" x1="1276.44" y1="438.71" x2="1276.44" y2="438.71" xlink:href="#Dégradé_sans_nom_18"/><linearGradient id="Dégradé_sans_nom_18-13" x1="1171.18" y1="451.98" x2="1235" y2="451.98" xlink:href="#Dégradé_sans_nom_18"/></defs><title>Logo_Los Pepitos_Complet</title><g id="Calque_4" data-name="Calque 4"><g class="cls-1"><path class="cls-2" d="M606,120.37c-2.38-2.16-4.72-4.38-7.15-6.5l-7.38-6.29c2.41,2.18,4.77,4.38,7.12,6.69A69.17,69.17,0,0,0,606,120.37Z"/><path class="cls-2" d="M577.4,96.5l-2.77-2-2.45-1.62Z"/><path class="cls-2" d="M549.22,78.06c5,3.22,9.92,6.1,14.49,9.18l-3.12-2.17-1.66-1.14-1.78-1.11C554.72,81.32,552.09,79.74,549.22,78.06Z"/><path class="cls-2" d="M571.45,93.06c-1.55-1.39-2.25-2.17.61-.29l.12.08c-2.72-2-5.57-3.7-8.47-5.61C566.67,89.35,569.33,91.22,571.45,93.06Z"/><path class="cls-2" d="M571.45,93.06c1.49,1.34,3.94,3.37,4.74,4.1C574.84,95.94,573.25,94.56,571.45,93.06Z"/><path class="cls-2" d="M561.62,92.46a8,8,0,0,1-2.49-2.33,11.72,11.72,0,0,0-1.5-1.47,18.63,18.63,0,0,0-3.15-2.06c-13.34-8-25.35-13.8-38.47-20-1.53-.62-3.2-1.52-5-2.41s-3.7-1.87-5.6-2.86-3.78-2-5.61-2.85-3.6-1.53-5.17-2.06c-7.29-2.81-20.66-6.5-29.37-8.49-8.76-1.82-12.8-2.33-1.52.53a338.68,338.68,0,0,1,43.45,15.11A333.58,333.58,0,0,1,546,83.05a368.83,368.83,0,0,1,32,20.62l7.64,5.7c2.54,1.91,5,4,7.5,6,1.25,1,2.52,2,3.76,3l3.66,3.19,3.69,3.22,1.86,1.61,1.8,1.69c2.66,2.56,5.23,5.05,7.69,7.55l7.11,7.66c-6-6.75-12.38-13.56-19.88-20.64C593,113.2,579.27,104,561.62,92.46Z"/><path class="cls-2" d="M688.55,235.23c-.79-1.47-2-3.69-3-5.55-.49-.93-.94-1.76-1.26-2.36s-.54-1-.54-1c-5.72-13.88-14-27.39-23.06-40.23,1.06,2,2.15,4.11,3.24,6.21,4.82,7.57,5.66,8.29,1.78,1.29,9,16,17,31.27,24.28,47.38C689.93,239.84,690.52,239.83,688.55,235.23Z"/><path class="cls-2" d="M694.23,250.49,690,241a3,3,0,0,0,0,.39l4.29,9.45Z"/><path class="cls-2" d="M484.17,49.14C473.65,45.41,463,42.55,452.5,39.9c-10.58-2.38-21.09-4.54-31.61-5.9a335.94,335.94,0,0,0-62.33-3c-.78.09-1.51.17-2.22.27s-1.41.24-2.14.35a47.84,47.84,0,0,1-5.18.46c-3.21,0-6.44.1-9.65.24-5.95.71-11.89,1.51-17.79,2.24l-6.19,1.25-.17,0c-3.28.77-2.26.81-.18.64,2.31-.27,4.43-.48,6.24-.62-1.15.09-4.21.46-6.24.62-2.8.34-5.92.77-9.55,1.36-2.68.56-5.37,1.33-8.14,2s-5.58,1.35-8.46,2c6.34-1.66,11.82-3.06,16.6-4l9.9-2,2.84-.66L308.14,37c-1.68.33-3.37.55-5,1l-5,1.16-9.95,2.33c-3.3.86-6.55,1.87-9.83,2.79-3,.94-5.88,1.77-8.18,2.57-4.63,1.73-9.24,3.45-13.45,4.91-2.12.68-4.06,1.52-5.89,2.16s-3.49,1.22-5,1.63l-6.8,2.73,1.36-.41c-1,.36-1.9.67-2.58,1l-14,6.48C219.2,67.59,214.63,70,210,72.42c-1.47.82-2.88,1.76-4.29,2.69l-4.29,2.81-4.32,2.82c-1.44,1-2.93,1.83-4.31,2.86l-6.19,3.25c-1.07.92-2.4,2-3.95,3.17-.79.57-1.61,1.19-2.48,1.83s-1.74,1.37-2.67,2.09c2.33-1.53,4.7-2.77,6.94-4s4.39-2.43,6.44-3.62a51.23,51.23,0,0,0,4.62-2.9c1.59-1,3.2-2.18,4.85-3.33s3.36-2.31,5.13-3.36a26.43,26.43,0,0,1,5.57-2.67,26.43,26.43,0,0,0-5.57,2.67c-1.77,1-3.47,2.21-5.13,3.36s-3.26,2.29-4.85,3.33a51.23,51.23,0,0,1-4.62,2.9c-2,1.19-4.19,2.38-6.44,3.62s-4.61,2.48-6.94,4c-1.93,1.5-4,3.08-6.21,4.69L168,101.07l-1.71,1.23-1.67,1.31c-2.22,1.74-4.48,3.46-6.71,5.12l-3.3,2.43L153,112.33l-1.53,1.19c1.11-1.14,2.29-2.14,3.45-3.14s2.29-1.95,3.42-2.88c2.26-1.87,4.47-3.61,6.62-5.26,4.39-3.18,8.66-5.82,12.6-8.3.93-.72,1.8-1.44,2.67-2.09s1.69-1.26,2.48-1.83c1.55-1.18,2.88-2.25,3.95-3.17l6.19-3.25c1.38-1,2.87-1.91,4.31-2.86l4.32-2.82,4.29-2.81c1.41-.93,2.82-1.87,4.29-2.69a352.3,352.3,0,0,0-51.13,34.29c-6.68,5.14-12.8,10.86-19.07,16.37l-8.94,8.72L128.66,134c-.75.72-1.48,1.46-2.17,2.23l-4.24,4.55L118,145.3l-2.11,2.27-2,2.36-8,9.46c-1.36,1.54-2.55,3.23-3.81,4.85l-3.75,4.9L94.64,174c-1.2,1.66-2.34,3.36-3.52,5.05-2.31,3.38-4.69,6.72-7,10.12l-6.49,10.42c-2.24,3.43-4.15,7-6.16,10.6l-3,5.35L67,218.24,65.67,221l-5.45,11c-.95,1.81-1.74,3.69-2.56,5.56l-2.47,5.61-2.46,5.61c-.43.92-.8,1.88-1.16,2.83l-1.09,2.86q-2.2,5.73-4.39,11.46c-1.33,3.87-2.58,7.77-3.87,11.66l-1.91,5.84-1.64,5.93c-1.08,4-2.23,7.91-3.25,11.89s-1.81,8-2.71,12.06l-.68,3c-.24,1-.45,2-.61,3l-1.07,6.11-1.07,6.12c-.34,2-.77,4.08-1,6.14-1,8.24-2.23,16.49-2.69,24.85l-.48,6.27-.23,3.13c-.07,1.05-.07,2.1-.11,3.15q-.16,6.3-.35,12.63l-.08,3.17.06,3.17q.07,3.18.13,6.36c.05,2.12.09,4.25.14,6.37,0,1.07,0,2.13.08,3.2l.23,3.19q.43,6.39.89,12.81c.1,2.15.42,4.28.66,6.42s.51,4.28.76,6.42.51,4.3.76,6.45.7,4.29,1,6.43c.73,4.29,1.41,8.6,2.19,12.91A395.29,395.29,0,0,0,46.19,519l4.87,13.08,5.45,12.8,1.37,3.19c.46,1.06,1,2.09,1.49,3.13,1,2.08,2,4.16,3,6.23s2,4.15,3,6.22,2.18,4.05,3.26,6.08,2.2,4,3.29,6,2.17,4,3.39,6q3.57,5.87,7.11,11.73c2.47,3.84,5.07,7.58,7.59,11.37S95.3,612.29,98,616l4.06,5.46c.66.92,1.37,1.81,2.09,2.68l2.15,2.63,4.3,5.25,2.15,2.62,1.07,1.32,1.13,1.26,9,10.06c1.47,1.71,3.11,3.26,4.68,4.87l4.75,4.8A343.76,343.76,0,0,0,218.6,719l2.88,1.53,3,1.39,5.89,2.78,5.89,2.78c2,.89,4,1.67,6,2.51l6,2.47,3,1.23c1,.42,2,.83,3,1.17l12.23,4.31c1,.36,2,.73,3.06,1.07l3.11.92,6.21,1.84,6.2,1.84c2.07.61,4.19,1,6.28,1.58,4.2,1,8.38,2.06,12.59,3l12.72,2.39c4.23.9,8.53,1.32,12.8,1.93S338,755,342.3,755.25l12.93,1.07c4.32.23,8.65.3,13,.46a348.69,348.69,0,0,0,52.18-2.58,360.51,360.51,0,0,0,103-28.87,318.51,318.51,0,0,0,43.46-24l2.93-1.9c1-.65,1.93-1.34,2.9-2l5.85-4.11c2-1.35,3.89-2.84,5.83-4.31l5.84-4.44c1.93-1.52,3.82-3.11,5.74-4.67s3.86-3.1,5.72-4.76l5.61-4.94L610,667.7l2.72-2.58a363.52,363.52,0,0,0,66.13-83.21c1.07-2,2.15-3.87,3.05-5.72l2.58-5.27,2.28-4.76c.69-1.5,1.28-3,1.86-4.32,1.14-2.73,2.11-5.13,2.92-7.25s1.36-4,1.85-5.58c1.91-6.38,1.8-8.56.77-8.6-2.05,0-7.7,8.4-8.55,9.82-6,9.2-11.37,17.93-17.29,26.78S656.31,595,649,605l-5.79,7.63q-3.1,3.82-6.43,7.91c-1.09,1.38-2.26,2.73-3.46,4.09l-3.66,4.17c-2.43,2.87-5.16,5.65-7.93,8.6s-5.76,5.88-8.87,8.93-6.49,6-9.95,9.21c-1.72,1.6-3.56,3.13-5.44,4.69L591.7,665c-2,1.58-4.05,3.14-6.13,4.74s-4.19,3.26-6.45,4.81c3.06-2.13,5.45-4.09,7.46-5.57s3.55-2.64,4.69-3.44c2.21-1.65,2.8-1.93,2.09-1.07a62.3,62.3,0,0,1-5.94,5.54c-1.58,1.35-3.38,3-5.47,4.65l-7,5.45a292.21,292.21,0,0,1-38.72,24.67,258.39,258.39,0,0,1-44,18.53l-7.38,2.25-7.62,2.11-3.86,1.08-3.94,1-8,2-8.2,1.79c-1.37.3-2.75.63-4.15.91l-4.21.79c-2.83.51-5.66,1.1-8.53,1.58l-8.71,1.36c-11.71,1.64-23.8,3.05-36.21,3.54-1.54.08-3.1.19-4.65.24l-4.69.09-4.7.09c-1.58,0-3.15.08-4.73,0l-9.5-.22c-3.18-.09-6.38-.08-9.56-.39A332.85,332.85,0,0,1,277.13,728a300.29,300.29,0,0,1-69.89-31.22l-8-4.9c-2.64-1.74-5.27-3.55-7.95-5.33l-4-2.7-2-1.36-2-1.45-8-5.92c-1.34-1-2.73-2-4.05-3l-4-3.24-8.1-6.58-8-7.16-4.06-3.65c-1.33-1.26-2.62-2.59-3.94-3.89L138,642.4l-2.53-2.55c-.85-.85-1.62-1.78-2.43-2.66-3.2-3.58-6.44-7.09-9.59-10.68l-9.08-11c-.77-.9-1.49-1.85-2.19-2.81l-2.13-2.86-4.27-5.7A376.16,376.16,0,0,1,76.14,556l-6.22-12.63q-2.83-6.45-5.64-12.89c-.47-1.08-1-2.14-1.4-3.23l-1.25-3.28-2.51-6.57c-.81-2.2-1.71-4.37-2.47-6.58l-2.19-6.68c-1.44-4.46-3-8.88-4.17-13.42l-1.88-6.78-.94-3.39-.47-1.7c-.15-.57-.26-1.14-.4-1.71q-1.55-6.87-3.11-13.74l-.38-1.72-.31-1.74-.61-3.47L41,449.49,40.35,446l-.3-1.74-.22-1.75-.89-7-.89-7-.22-1.75L37.7,425l-.28-3.54-.55-7.07-.27-3.54L36.46,409l-.05-1.77c-.14-4.75-.28-9.49-.41-14.25a388.43,388.43,0,0,1,3.92-57.32q1.21-7.15,2.42-14.33c.18-1.2.46-2.39.72-3.57l.79-3.57c.52-2.38,1-4.76,1.57-7.14l.79-3.58c.27-1.19.63-2.36.94-3.54q1-3.54,1.93-7.1c.66-2.36,1.26-4.75,2-7.1s1.53-4.69,2.29-7a353,353,0,0,1,23.18-55.26,404.32,404.32,0,0,1,32.27-51.77,359.8,359.8,0,0,1,36.57-42.53l7.43-6.74c2.51-2.24,5-4.55,7.65-6.61,5.25-4.21,10.42-8.51,15.82-12.23l7.88-5.67L192,92.82l3.79-2.47c1.24-.82,2.47-1.62,3.73-2.33l7.22-4.27,5.41-3.24,5.47-2.92L223,74.7c1.79-.93,3.51-2,5.32-2.78l10.59-5.08,2.6-1.25c.86-.41,1.76-.75,2.63-1.13l5.22-2.22L254.5,60,257.06,59c.86-.34,1.73-.64,2.59-1l10.24-3.8c3.35-1.34,6.8-2.29,10.17-3.39s6.73-2.2,10.1-3.16c-15.05,4.35-27.94,8.61-40.78,14.2A334.48,334.48,0,0,0,208.45,82.4c-10,6-6.74,3.53.64-1.48.92-.61,1.89-1.32,3-2l3.32-2,7.08-4.19L226,70.71l3.48-1.79c2.24-1.15,4.31-2.19,6-3.07,1.46-.78,3.2-1.55,5.06-2.31s3.93-1.34,6-2c4.07-1.29,8.09-2.66,11.13-4,3.39-1.19,6.7-2.39,10-3.61l4.92-1.85,5-1.63,10.18-3.36c3.48-1.06,7.1-2,10.84-3,6.39-1.84,5.93-.34,9.15-1.08,5.16-1,10-2.12,14.59-3.18l13.12-2.42c4.13-.87,8.08-1.23,11.82-1.69q2.81-.31,5.46-.54l2.63-.21,1.29-.08h1.28l14.74-.06h1.77l1.75.07,3.46.16,6.81.3c2.85.11,5.68.38,8.55.55s5.8.31,8.79.63c3.72.27,7.61.45,11.47.83a15.65,15.65,0,0,1-5-2.08c1.4.17,2.94.31,4.53.57l4.93.83,4.93.82,2.33.39,2.16.42L427,37.9l-2.33-.39-4.93-.82-4.93-.83c-1.59-.26-3.13-.4-4.53-.57a15.65,15.65,0,0,0,5,2.08,315.37,315.37,0,0,1,43.6,7.16,328.85,328.85,0,0,1,43.78,13.6l-.32-.28a516,516,0,0,0-50.14-17.12c3.8,1.11,5.43,1.74,5,1.79a12,12,0,0,1-2.12-.35c-1.2-.26-2.9-.68-5.11-1.11l-6.59-2.18c15.44,2.81,30.76,6.7,44.38,12.77,0,0,1.63.44,3.61,1.13l6,2c4.57,2,4.18,2.32,5,3.09l9.57,4c-3.23-1.73-10-5.29-16.18-7.89-3.07-1.35-5.92-2.67-8.07-3.46Z"/><path class="cls-2" d="M305.08,37.88l8.35-1.66L305,37.73c-2.8.58-5.58,1.28-8.37,1.91l-8.36,2c-2.78.71-5.52,1.57-8.28,2.34,1.5-.26,3.22-.64,5.09-1.11.94-.23,1.91-.52,2.93-.75l3.17-.72C295.51,40.34,300.27,39.05,305.08,37.88Z"/></g></g><g id="Chapeau"><path class="cls-3" d="M304.45,219c-1.81,1.94-3.71,3.8-5.67,5.59-2.74,2.51-8.34,8.52-12.4,7.71-2.83-.56-5.72-4.45-7.41-6.52a51.29,51.29,0,0,1-7.7-13.29,46,46,0,0,1-3.43-17.67c.08-5.66,1.08-16.27,6.83-18.9,8.6-3.94,19,2,26.06,6.73A90.57,90.57,0,0,1,315.45,195c.75.8,3.51-.3,2.68-1.17-10.11-10.62-29-26.35-44.64-19.26-5.89,2.66-7.31,9.52-8.16,15.49a45.15,45.15,0,0,0,2.36,21.39,52.9,52.9,0,0,0,8.6,15.49c2.1,2.59,5.15,6.33,8.62,7.14,4,.94,8.42-2.51,11.34-4.77a88.36,88.36,0,0,0,10.55-9.73c1.19-1.27-1.62-1.37-2.35-.59Z"/><path class="cls-3" d="M445.84,193.31a94.72,94.72,0,0,1,15.1-12.3c3.19-2,9.16-6.13,12.91-3.34,2.58,1.9,2.86,6.33,2.94,9.2.25,8.76-2.22,18.87-7.09,26.21-3.39,5.1-8.28,6.85-14.25,4.24a12.79,12.79,0,0,1-6.34-5.78c-.45-.93-3.27,0-2.9.78,3,6.24,11,8.66,17.36,7.42,7-1.35,10.73-9,12.91-15.13,2.58-7.19,5.43-18.25,1.86-25.61-3-6.11-10.58-3.42-15.23-1-7.24,3.72-13.79,9.26-19.57,14.95-1.17,1.15,1.67,1,2.3.39Z"/><path class="cls-3" d="M201.91,430.88a126,126,0,0,1,17.33-31.72,80.52,80.52,0,0,1,20.94-18.81,66.57,66.57,0,0,1,13.46-7c3.43-1.23,11.65-5.59,15-3.69.7.4,3-.8,2.74-.95-2.13-1.2-4.35-.81-6.61-.17-4.58,1.29-9.24,3.1-13.67,4.83-9.5,3.73-18.66,10-26.17,16.85-11.84,10.83-20.31,26.29-25.9,41.23-.15.41,2.59.17,2.85-.54Z"/><path class="cls-3" d="M262.91,440.57A63.59,63.59,0,0,1,242,450.9c-1.66.49-12.76,2.35-12.76,2.34.27-1.45-2.69-1.1-2.94.22-.65,3.45,10,1,11.21.74a68.55,68.55,0,0,0,27.29-12.28c1.56-1.2-.78-2.24-1.93-1.35Z"/><path class="cls-3" d="M340.37,180.7c-17.38-17.44-40.92-43.2-68.44-31.89-24.34,10-25.62,43.91-17.41,64.92a74.66,74.66,0,0,0,10.6,18.65,68.43,68.43,0,0,0,7.29,8c1,.91,3.6,2.37,3.58,3.69,0,1.76-3.26,4-4.55,5.28l2.52.3A56,56,0,0,1,279.5,244l-2.33-.51c-14.61,15.26-26.55,33.47-31.77,54.13-4.57,18.07-3.1,35.69,1.43,53.54l2.33-1.2-14.34-3.07c-.46-.1-3.13.54-2.23,1.38l13.73,12.61,2.22-1.38-10.75-3.34c-.51-.16-3.1.59-2.23,1.38L253,373.23c.78.7,3.5-.42,2.69-1.15l-17.41-15.69L236,357.77l10.76,3.34c.51.16,3.1-.58,2.23-1.38l-13.73-12.61-2.22,1.38,14.34,3.07c.6.13,2.58-.22,2.33-1.19-4.34-17.08-5.91-34-1.86-51.34,4.9-21,16.84-39.59,31.63-55,1.22-1.27-1.64-1.11-2.33-.51a57.71,57.71,0,0,0-5.91,6.1c-.87,1,2,.81,2.52.29,2-1.9,3.83-3.89,5.72-5.88.17-.18.48-.59.18-.83-21.46-17-34-48.64-23-74.95,3.38-8.08,8.64-15.25,17.08-18.45,9.1-3.45,18.66-1.83,27.31,2.09,14.66,6.64,25.46,18.8,36.61,30,.74.73,3.48-.35,2.69-1.15Z"/><path class="cls-3" d="M475.5,235.94c8.74-12.53,15.31-26.48,18.12-41.56,1.88-10.11,2.74-25.23-8.42-30.34-7.6-3.48-17.08-1.58-24.73.72-12,3.61-22.44,10.33-32.13,18.18-.64.52,2.07.28,2.64-.18,9.53-7.72,19.92-14.46,31.9-17.64,8.58-2.28,20.47-3.41,25.84,5.4,5.79,9.49,2.82,22.86,0,32.81a109.87,109.87,0,0,1-16.12,33.1c-.23.34,2.36.23,2.87-.49Z"/><path class="cls-3" d="M488.77,427.7c20.32,26.4,22.66,65.37,14.8,96.69-4.09,16.31-11.61,32.16-23.72,44.05-9.86,9.68-22,17-34.42,23C413,607.12,375.77,614.3,339.88,611a163.15,163.15,0,0,1-57.79-16.08c-12.42-6.19-22.66-12.88-30.78-24.12a117.38,117.38,0,0,1-20.37-48.26c-4.26-24.42.61-48.83,12.54-70.43.76-1.38-2.18-1.33-2.76-.27-19.67,35.63-18.17,77.51,2.69,112.26,6.48,10.79,13.92,19.36,24.67,25.92a162,162,0,0,0,57.65,21.29c36.77,6.18,75.46.71,109.86-13.33,14.06-5.74,27.79-13,39.65-22.56a88.22,88.22,0,0,0,26.83-37.28c13.37-34.48,12.68-81.39-10.63-111.68-.76-1-3.53.12-2.67,1.24Z"/><path class="cls-3" d="M471.52,236.73c9.91,9,16.84,22.11,21.34,34.45a114.38,114.38,0,0,1,6.67,42c-.24,9.8-2.16,19-4,28.57-.18.89,1.64.48,2,.33,2.49-1.09,5-2.16,7.52-3.16.76-.31,4.18-1.47,3.91-1.78s-2.43,1.66-2.85,2c-4.55,3.73-9.28,7.24-14,10.75-.71.53,0,.94.57.94h18.55l-.3-1.12-21.52,11c-.64.33-.79.91,0,1.1,1.41.36,3.5,1.32,5,1.26,1.71-.06,1.22-.34-.28.58-2.66,1.63-5,4.18-7.44,6.18-.11.09-.41.39-.31.58,6.19,11.12,13.82,25.19,7.51,37.83s-21.72,18.67-34.46,22.12c-1.72.47-1.39,1.77.35,1.3,15.26-4.13,36-12.59,39.12-30.28,1.7-9.5-3-21.44-8.26-29.28-1.29-1.95-1.65-1.29-.54-2.82a16.51,16.51,0,0,1,2.93-2.44l4.79-4c.48-.4.31-.78-.25-.92l-6.31-1.61v1.1l21.51-11c.85-.44.59-1.12-.3-1.12H493.79l.57.94q4.67-3.47,9.26-7c2.2-1.71,6.83-4.15,8-6.84a.32.32,0,0,0-.09-.34c-1.19-1.16-4.75.7-5.88,1.13-3.12,1.17-6.2,2.5-9.25,3.84l2,.32c1.13-5.69,2.59-11.41,3.27-17.17a121,121,0,0,0-1.12-36.38,104.49,104.49,0,0,0-20-45.07,55.63,55.63,0,0,0-6.31-7.05c-.7-.64-3.4.46-2.7,1.09Z"/><path class="cls-3" d="M458,387.43c-7.65,3.08-14.28,9.3-19.1,15.82-1.1,1.49,1.61,2.08,2.45.95,4.55-6.16,10.73-12,18-14.94,1.83-.73.22-2.45-1.31-1.83Z"/><path class="cls-3" d="M429.14,420.82c-7.31,11.13-4.37,25.74,8,31.59.69.33,3.35-.76,2.35-1.23-11.76-5.58-14.63-19.87-7.67-30.47.61-.93-2.22-.54-2.65.11Z"/><path class="cls-3" d="M188.09,451.34c-4.71,7.18-5.7,16.72-1,24.13,3.11,4.9,8.7,7.34,13.52,3.06,1.19-1.06-1.66-.87-2.28-.32-6.11,5.43-11.16-8.87-11.41-12.64a24,24,0,0,1,3.83-14.28c.66-1-2.2-.65-2.66,0Z"/><path class="cls-3" d="M441.23,423.38c-3.62,4.79-6.12,11.18-5.35,17.25.7,5.53,6.22,15.09,13,14.08a4.46,4.46,0,0,0,3.73-3.32c1.34-3.65,1.31-7.59,2.89-11.25a40.09,40.09,0,0,1,10.59-14c1.58-1.4,3.05-2.65,2.89-4.94-.19-2.59-2.42-5.47-3.55-7.65-1.24-2.37-2.15-5.25-3.95-7.3-4.35-4.95-12.62-4.11-18.49-3.48-11.4,1.24-25.79,7.9-30.45,19.06-3.36,8-.21,17.06,5.09,23.46,3.45,4.16,8.08,7.87,11.66,1.65.81-1.4-2.13-1.45-2.77-.34-3.06,5.32-10.28-8.71-11-10.78-2.14-5.78-1.84-11.89,1.68-17,5.28-7.71,15.76-12.55,24.83-13.79,5.12-.7,13-1.68,16.84,2.53,2.6,2.88,4.11,7.48,5.84,10.87,1.17,2.29,2,3.69.15,5.84-2.15,2.46-4.86,4.13-6.87,6.81a39.17,39.17,0,0,0-7.21,15.07c-.59,2.7-.23,7.1-4.07,5.8s-6.89-7-7.67-10.59c-1.26-5.87,1.1-12.39,4.64-17.08,1.1-1.46-1.63-1.92-2.43-.86Z"/><path class="cls-3" d="M201.41,454.56c-3.24,4.28-5.49,9.92-5.31,15.33.2,6.11,4.16,12.81,11,12.82,5.51,0,5.34-3.73,5.18-8.12a20.83,20.83,0,0,1,3.87-13.17c3.15-4,7.48-3.45,11.27-6.07,2.85-2,2.81-5.39,1.19-8.19-3.7-6.36-10.83-9.83-17.8-11.09-14.73-2.65-32.81,3.12-36.88,19.18-1.81,7.12-.26,16.81,4.78,22.38,3.07,3.39,6.82,3.2,9.2-.92.75-1.3-2.18-1.16-2.73-.2-2.07,3.59-4.65-.9-5.69-2.67a26.43,26.43,0,0,1-3-10.09,22.56,22.56,0,0,1,10.43-22.23c7.85-5.08,18.22-5.43,27-2.51,4.36,1.46,14.13,7.05,12.93,13-.77,3.77-8.61,4.47-11.35,6.86-4.14,3.59-6.15,10.13-6.1,15.46,0,.68.12,1.35.15,2a14,14,0,0,1,.08,3c-1.72,1.5-3.42,1.63-5.09.41-4-2.29-5.61-7.39-5.39-11.76a24.64,24.64,0,0,1,5.11-13.29c.86-1.14-2.08-1.07-2.73-.19Z"/><path class="cls-3" d="M425.89,432c1.08,0,3.07-1.64,1.12-1.64-1.08,0-3.07,1.64-1.12,1.64Z"/><path class="cls-3" d="M317.84,458.33c-19.11,18.76-35.53,44.56-35.2,72,.3,24.34,10.81,47.87,31.68,61.28,14.26,9.16,31.37,12.87,48.11,13.72,18.46.94,37.73-.74,55-7.79,26.35-10.78,41.65-34.37,45-62.13,3.49-29.11-4.37-63-25.2-84.72-.76-.79-3.52.3-2.68,1.18,17.67,18.42,26.2,46.75,25.78,71.73-.44,26.17-9.68,52.4-32.76,66.84-14.74,9.23-32.44,12.57-49.6,13.21-18.53.69-37.91-1.31-54.68-9.74-22.31-11.22-35.28-33.21-37.38-57.72-2.54-29.57,13.77-57.11,34.33-77.32,1.23-1.21-1.6-1.32-2.35-.58Z"/><path class="cls-3" d="M432.66,616.68c.73.9.54,4.07.76,5.21.48,2.43,1.15,5.16,2.79,7.1,2.39,2.84,6.17,2.86,9.49,2,4.19-1.11,12.12-3.68,12.81-8.86.4-3.05-1.26-6.49-2.89-8.94-1.16-1.74-4.35-3.75-5-5.59L448,608.63c3.26,1.19,4.83,3.32,8.8,2.94,2.56-.24,6.05-1.41,7.66-3.57,5.16-6.91-8.71-15.93-13.46-18.3-.79-.39-3.46.79-2.32,1.36,4.79,2.38,9.55,5.88,12.38,10.53a7.79,7.79,0,0,1,1.48,3.41c.15,4-4.09,5.49-7.1,5-2.05-.34-3.32-2.05-5.12-2.7-.51-.19-3,.09-2.61,1.06.25.68,1.09,1.17,1.58,1.66a23.7,23.7,0,0,1,4.61,5.88c1.48,2.9,2.77,6.8.22,9.44-2.2,2.29-7.9,4.79-11.07,4.65-4.19-.19-5.71-4.39-6.5-7.86-.38-1.64-.1-5.21-1.17-6.54-.58-.73-3.37.27-2.7,1.11Z"/><path class="cls-3" d="M240.09,607.6c-.1,1.57-2.41,4-3.1,5.46-1,2.07-2.06,4.47-1.88,6.82.3,4,3.72,6,7.19,7.25,4.34,1.52,10.65,3.63,14.49-.13,2.23-2.18,3.22-6,3.51-8.94.22-2.33-.93-5.49-.4-7.65L257,611c1.27,2.47,1.29,4.78,3.58,6.77a11.15,11.15,0,0,0,5.92,2.51c5.29.63,7.8-2.91,8.18-7.8.7-9.14-4.19-17.77-7.69-25.92-.47-1.08-3.33-.21-2.9.78,2.19,5.09,4.88,10.24,6.4,15.58,1.07,3.74,2.27,8.92.86,12.74-1.22,3.3-4.65,3.2-7.23,1.55-2.91-1.85-2.86-4.35-4.23-7-.51-1-2.66-.45-2.9.55a7.85,7.85,0,0,0,.25,2.49,22.26,22.26,0,0,1-.44,8.41c-1.32,4.78-4.83,6-9.41,4.75-2.47-.65-5.62-1.29-7.51-3.2-2.55-2.6-1.9-6-.59-9.05.84-1.95,3.57-4.77,3.71-6.86.08-1.27-2.84-.74-2.91.32Z"/><path class="cls-3" d="M437.71,630c-.72,6.12-8.43,10.69-13.48,6.12-2.88-2.61-3.47-6.65-3.94-10.29-.35-2.69,0-8-2.11-10-.55-.52-1.57-.17-2.09.16-1.86,1.17-2.37,5-3.16,6.91-.86,2-2.12,5.27-4.12,6.39a5.33,5.33,0,0,1-6.74-2c-3.84-7.28,1.83-16.14,7.18-20.56,1.51-1.25-.79-2.32-1.94-1.37-6,5-12.74,15.38-7.83,23.46,2,3.27,7.17,4.16,10.39,2.38,2.32-1.29,3.9-3.88,5.06-6.18.82-1.62,1.6-6.73,3.1-7.67l-2.08.17c1.41,1.33,1.17,6.87,1.42,8.83.52,4.23,1.36,8.37,4.53,11.46,6.5,6.33,17.81,0,18.75-8,.18-1.51-2.78-1.14-2.94.2Z"/><path class="cls-3" d="M234.85,619.47c-4.44,3.91-12.66,0-13.79-5.27-.86-4,1.3-7.86,3.32-11.15,1.31-2.14,5.06-6.31,4.71-8.94,0-.22-.39-.36-.56-.38-1.76-.2-3.19.83-4.65,1.69-3.42,2-5,3.21-9.35,2.71-3-.34-4.77-.47-5.24-3.74a4.88,4.88,0,0,1-.11-1.2c.53-5,6.42-9.45,10.66-10.75,10.93-3.35,24.94,3,30.94-10.59.37-.84-2.49-.54-2.9.38-4.95,11.21-17.53,6.23-26.87,8.4-6,1.4-12.71,5.72-14.44,12.06a6.81,6.81,0,0,0,3,7.27c3.67,2.44,8.75.33,12.24-1.48,1.15-.6,2.25-1.29,3.36-2a9.8,9.8,0,0,0,1.43-.85c.83-.73-.33-.48-.6-.1-1.27,1.76-2.15,4-3.31,5.88-1.73,2.8-3.76,5.65-4.42,8.94-2.06,10.31,11.58,16,18.91,9.51,1.23-1.09-1.63-1-2.32-.43Z"/><path class="cls-3" d="M251.59,428.07c1.62,0,2.26-2,.29-2-1.62,0-2.26,2-.29,2Z"/><path class="cls-3" d="M338.9,283.21c-1.42,5-5.94,7-7.14,7.47a10.53,10.53,0,0,1-7.12.87c-4.33-1.17-6.26-5.3-6.78-6.43-.33-.72-1.51-3.39-.9-8.71a17.48,17.48,0,0,1,6.63-6.93,12.14,12.14,0,0,1,12.87,3.3C336.7,273.05,340.5,277.55,338.9,283.21Z"/><path class="cls-3" d="M337.43,283.35c-2.05,5.87-10.06,10.18-15.33,5.32a12.45,12.45,0,0,1-3.85-9.52,9.33,9.33,0,0,1,12.15-8.83c5.59,1.77,8.2,7.53,7,13-.27,1.29,2.68.89,2.93-.28A12.36,12.36,0,0,0,329.3,268c-7-.66-14.15,4.75-14,12.08.16,5.71,3.46,11.63,9.54,12.61,6.54,1.05,13.35-3.53,15.48-9.58C340.77,281.89,337.83,282.23,337.43,283.35Z"/><path class="cls-4" d="M316.79,276.78l.18-.42a.43.43,0,0,1,0,.05Z"/><path class="cls-3" d="M318.22,276.52l.17-.41-2.85.51a2.21,2.21,0,0,1-.18.42c-.22.47,1,.29,1.16.26.46-.08,1.46-.28,1.7-.78a1.62,1.62,0,0,0,.17-.41c.12-.7-2.59-.09-2.85.51l-.18.42c-.21.47,1,.29,1.16.26C317,277.22,318,277,318.22,276.52Z"/><path class="cls-4" d="M325.86,255.91s-4.71,6.67-5.88,9.65-3,10.8-3,10.8c.11-1,.29-2.06.54-3.23A41.44,41.44,0,0,1,325.86,255.91Z"/><path class="cls-3" d="M324.48,255.79c-2.2,3.13-4.58,6.4-6,10a78,78,0,0,0-3,10.74l2.93-.27a41.44,41.44,0,0,1,8.62-20c1.1-1.43-1.65-1.69-2.39-.73a43.6,43.6,0,0,0-9.16,20.95c-.18,1.41,2.66.85,2.93-.27.85-3.61,1.58-7.46,3.06-10.87a54.65,54.65,0,0,1,5.74-9.33C328.09,254.81,325.15,254.85,324.48,255.79Z"/><path class="cls-3" d="M441.05,273.48c0,5.48-3.06,11.87-8.09,13.2a8.6,8.6,0,0,1-6.44-1c-.33-.2-5.63-3.41-5.4-8.7.19-4.3,3.89-6.82,5.1-7.65,4.88-3.33,10.19-1.49,11.39-1,0,0,1.46.76,2.92,1.46A14.11,14.11,0,0,1,441.05,273.48Z"/><path class="cls-3" d="M439.6,273.86c-.15,5.31-3.39,14.36-10.48,11.83a11,11,0,0,1-5.75-5.36c-5.16-10.84,15.67-17.55,16.23-6.47,0,.74,2.95.21,2.9-.77-.12-2.35,0-3.34-1.87-4.53a11.9,11.9,0,0,0-3.11-1.34,15.13,15.13,0,0,0-9,.21c-5.48,1.88-10.89,7.6-8,13.68a11.16,11.16,0,0,0,12.26,6.26c6.48-1.47,9.59-8.14,9.77-14.28C442.52,272.41,439.63,272.86,439.6,273.86Z"/><path class="cls-3" d="M427.39,258a17.28,17.28,0,0,1,7.34,4.51c2.95,3.06,3.33,6.26,4.35,10.2.14.55,3.05-.21,2.9-.77-1-3.67-1.34-6.82-3.93-9.76a17.55,17.55,0,0,0-7.92-5.13c-.8-.25-2.85.92-2.74.95Z"/><path class="cls-3" d="M362,342.89c-2.81,2.42-5.42,5.47-5.06,9.43.41,4.48,4.34,7.85,8.13,9.74,8.43,4.19,19.4,1.4,25-6.25,5.25-7.22-.43-12.82-7.37-15.39S368,338.35,362,342.89c-1.56,1.19.79,2.1,1.9,1.25,4.7-3.58,10.7-3.95,16.2-2.14,4.08,1.34,10,4.25,9.15,9.4-1.28,8.14-12.86,12.11-19.69,9.92-8.09-2.6-13.21-10.67-5.66-17.18C365.41,342.86,363.09,342,362,342.89Z"/><path class="cls-3" d="M345.29,344.31a160,160,0,0,0-105.65,48.26c-1.26,1.29,1.53,1.71,2.41.81a155.74,155.74,0,0,1,103-47c1.62-.09,2.26-2.17.28-2.06Z"/><path class="cls-3" d="M340.05,352.57a147.68,147.68,0,0,0-94.17,55.58c-1.14,1.47,1.59,2.05,2.45.94a143.85,143.85,0,0,1,91.49-54.29c1.63-.25,2.18-2.54.23-2.23Z"/><path class="cls-3" d="M337.58,363.47a141.17,141.17,0,0,0-82.13,63.41c-.82,1.39,2.12,1.43,2.77.34a137.52,137.52,0,0,1,79.9-61.76c1.77-.51,1.25-2.5-.54-2Z"/><path class="cls-3" d="M333.47,374.69a87.33,87.33,0,0,0-42.86,39.49c-.61,1.16,2.27.81,2.69,0a84.45,84.45,0,0,1,41.29-38.4c1.85-.8.15-1.65-1.12-1.1Z"/><path class="cls-3" d="M406.12,340.13a109.71,109.71,0,0,1,88.58,32.18c.63.64,3.36-.42,2.7-1.08a112,112,0,0,0-90.83-32.5c-1.33.13-2.48,1.6-.45,1.4Z"/><path class="cls-3" d="M409,348.4c33.8.21,64.19,18,82.29,46.23.64,1,3.43,0,2.67-1.23-18.42-28.72-49.59-46.74-83.91-46.95-1.3,0-3,1.94-1.05,1.95Z"/><path class="cls-3" d="M412.1,355.31a97.93,97.93,0,0,1,68.25,55.79c.53,1.2,3.39.35,2.89-.78a99.7,99.7,0,0,0-69.44-56.86c-1.15-.26-3.43,1.47-1.7,1.85Z"/><path class="cls-3" d="M415.19,364.2a67.7,67.7,0,0,1,41.51,33.68c.52,1,3.33,0,2.9-.77A69.11,69.11,0,0,0,417,362.64c-.91-.26-3.4,1.11-1.78,1.56Z"/><path class="cls-4" d="M342.53,384.91c10.89,11.89,27,9.89,30.62,5.25A14.64,14.64,0,0,0,376,379.84a16.76,16.76,0,0,0,3.22,8.27c3.38,4.87,23.64,11.67,33.37-12.87"/><path class="cls-3" d="M341.21,385.54c6.53,6.77,15.93,10.7,25.4,8.88,7.69-1.48,11-7.11,10.87-14.77l-2.92.5c.58,8.87,7.82,13.51,16,13.71,11.54.27,19.29-8.55,23.42-18.46.63-1.52-2.28-1.47-2.76-.31C407.5,384,400.65,392.7,390,391.7c-6.93-.64-12.05-4.95-12.53-12.32-.08-1.21-2.94-.64-2.92.5.12,6.55-2.14,11.71-9,12.68-8.16,1.15-16.07-2.5-21.65-8.29-.89-.92-3.64.25-2.65,1.27Z"/><ellipse class="cls-4" cx="324.13" cy="284.57" rx="2.26" ry="4.47" transform="translate(-85.39 149.18) rotate(-22.99)"/><ellipse class="cls-4" cx="426.81" cy="280.36" rx="2.06" ry="4.24" transform="translate(-83.83 284.24) rotate(-33.74)"/><path class="cls-3" d="M200.68,480.57l-5.12,120.08-.71,16.73,2-1.07c-.64,0-3.21.42-3.64,0,.22.2.71.46.56.05a7.47,7.47,0,0,1,0-2.11l.09-8.72.35-32.45.81-75.52.2-17.77c0-.64-2.89-.19-2.9.78l-1.3,120.08-.18,16.73c0,.31.7.3.85.3h3.93c.59,0,2-.31,2.05-1.08l5.12-120.07.71-16.74c0-.61-2.85-.19-2.89.78Z"/><path class="cls-3" d="M338.66,183.84c-6.29.43-12.56,1.74-17.83,5.39-4.73,3.28-12.16,11.43-9.17,17.63,1.14,2.37,3.5,3.69,5.79,4.72A61,61,0,0,1,329,217.79c7.23,5.29,13.76,10.59,22.35,13.55,15.86,5.47,33.35,5,49.81,3.26,15-1.58,31.2-2.59,41.59-14.94,4.63-5.5,9.16-14.56,6.85-21.91-2-6.42-9.1-8.5-15-9.56-.85-.16-3.39,1.19-1.8,1.48,5.16.92,11.38,2.63,13.6,8,2.38,5.72-.44,13-3.38,17.93-8.21,13.81-23.18,15.39-37.66,17.13-14.12,1.7-28.71,2.47-42.75-.32a58.76,58.76,0,0,1-18.6-6.79c-6.32-3.75-11.53-9.19-18-12.67s-15.47-5.06-10.38-14.69c4.49-8.5,12.59-12.22,21.91-12.86,1-.06,3.08-1.66,1.15-1.53Z"/><path class="cls-3" d="M337.16,204c-1.9-5.51.76-10.3,2.29-15.48,1.39-4.71,1-9.81,1.28-14.66A68.45,68.45,0,0,1,342,163c.78-3.59,2-11.79,6.46-13a17.63,17.63,0,0,1,3.07.06c2.66-.16,5.34-.52,8-.94,3.47-.56,6.88-1.39,10.31-2.15,6.8-1.5,13.82-3.36,20.82-3.31,19.16.14,32.28,19.6,37.81,36.14,2.5,7.49,6.39,15.68,2.45,23.5-1.66,3.3-7.89,6.17-11.13,7.48a65,65,0,0,1-13.44,3.62,138.5,138.5,0,0,1-32,1.26,140.84,140.84,0,0,1-19.95-2.46c-5.84-1.22-14.12-3.5-17.26-9.14-.51-.93-3.3,0-2.89.78,5.16,9.27,20.61,10.66,29.93,11.65a165.29,165.29,0,0,0,36.87.1c8.07-1,16.42-2.67,23.66-6.47,3-1.58,7.38-3.75,9-6.85,1.8-3.43,2.26-9.2,1.35-13a92.32,92.32,0,0,0-9.63-23.93c-5.32-9.08-12.13-18.36-22.27-22.26-17.47-6.71-34.87,5.2-52.39,4.45-4.33-.19-6.08.55-8.44,4.8s-3.32,9.36-3.95,14c-.83,6.09-.26,12.31-1.16,18.37-1,6.51-5.31,12.39-3,19.13C334.59,205.72,337.47,204.89,337.16,204Z"/><path class="cls-3" d="M335.54,192.13c30.37,15.63,70.48,16.81,98.79-3.55.55-.39-2.05-.13-2.61.27-26.77,19.25-64.88,17-93.44,2.31-.73-.37-3,.83-2.74,1Z"/><path class="cls-5" d="M1220.8,366.79c1.87,4.89,13,8.6,19.62,3,7.41-6.24,3.62-19.39-1.32-21.41C1232.61,345.73,1218.11,359.78,1220.8,366.79Z"/><path class="cls-6" d="M1219.35,367.18c3.22,6.81,13.72,8.07,19.81,4.81,7.28-3.9,8.57-13.5,4.89-20.37-3.34-6.25-9.37-5.12-14.52-1.64-4.89,3.31-12.22,10.56-10.18,17.2.42,1.36,3.31.58,2.89-.78-2.17-7.09,12.62-22.7,18.32-14.89,3.12,4.27,3.57,11.24.59,15.64-3.91,5.75-15.66,6.12-18.91-.75C1221.63,365.1,1218.76,365.93,1219.35,367.18Z"/><path class="cls-7" d="M1478.31,412.22c-11.16-12.62-42.45-5.7-48.67,10.3-.42,1.08-2.91,7.49,0,13.17,5.25,10.25,16.2,5.45,29,15.74,10.3,8.25,15.48,21.26,10.79,27.48-7.19,9.54-31-5.93-37.61,3.72-3.2,4.71.46,13.59,5,18.32,10.46,11,32.56,7.16,44.8-4.58,1.28-1.23,13.67-13.49,11.06-29.19-1.86-11.12-10.22-17.89-12.17-19.47-12.75-10.32-25.47-5.63-29.31-14.31-2-4.54-.82-11,2.21-12.6,6.81-3.62,20.17,18.69,26.55,15.46C1484.4,434,1484.93,419.71,1478.31,412.22Z"/><path class="cls-6" d="M1479.67,411.7c-8.48-9-23.6-7.69-34.17-3.7-10.8,4.08-24.62,16.47-16.65,29.24,4,6.37,12,6.68,18.39,9.05,9.7,3.58,18.56,11.77,21.63,21.84,1,3.4,1.59,7.8-.74,10.84-2.65,3.46-7.7,2.6-11.47,2-6-.88-12.18-2.94-18.3-2.24-15.67,1.76-7.67,21.05,1.79,26.28,12.18,6.73,29.11,2.05,39.53-5.94,10-7.66,17-21.19,14.15-33.88-1.57-6.9-5.87-12.94-11.23-17.45-6.92-5.81-14.72-6.9-23-9.49-4.85-1.51-7.79-4.71-7.88-10,0-2.61.6-7.27,4-6.95,1.32.12,2.85,1.53,3.89,2.31,5.15,3.87,9.21,9.95,15.1,12.73,3.21,1.52,6.79.83,8.59-2.41,3.71-6.68.88-16.78-3.61-22.29-.51-.62-3.27.36-2.72,1,4.27,5.25,6.74,14.48,3.81,21-2.37,5.24-9.41-2.86-11.8-5.12-4.06-3.83-13.6-14-18.73-5.75-3.12,5-1.44,12.62,3.8,15.43,6.68,3.58,14.63,3.31,21.32,7.32,13.18,7.9,19.93,23.48,13.71,38.08a38,38,0,0,1-32.52,23.09c-8.28.43-16.22-2.44-20.84-9.55-2.17-3.33-4-7.51-3.48-11.57.67-5.12,5.06-5.9,9.45-5.49,8.16.74,20.49,6.22,27.81.07,10.66-9-4.89-26.61-12.49-31.48a43.79,43.79,0,0,0-12-5.11c-3.79-1.07-8-1.85-11-4.55-6.51-5.81-4.77-16,.37-22.05,9.35-11,31.9-15.68,42.64-4.28C1477.51,413.33,1480.23,412.3,1479.67,411.7Z"/><path class="cls-8" d="M697.91,494.32c5.8,9.19-31.35,12.07-35.35,12.38q-11.14.87-22.35.74c-14-.15-30.81-2.09-39.54-14.6-4.63-6.65-7.29-25.33-8.45-48.51,0-.52-.06-1-.08-1.57-2.4-50.81,2.16-122.08,8.53-136.51,9.38-21.22,35.24-38.17,46.4-1.48,2.19,7.21,1.75,17.38-.22,29.21-5.69,34.2-24.15,82.28-28.56,112.7,0,0,0,0,0,0-1.68,11.64-1.3,20.68,2.63,25.38,17.77,21.23,94.77-38,75-17.27a88.76,88.76,0,0,0-6.77,7.79l-.09.11c-.39.52-.76,1-1.09,1.51a.25.25,0,0,0,0,.07C679.85,476.18,688.22,479,697.91,494.32Z"/><path class="cls-6" d="M696.58,494.92c4.9,8.8-43.56,11.45-48.75,11.55-14.49.26-32.34.26-43.16-11-8.15-8.47-8.68-23.25-9.76-34.26-3-30.61-2.41-61.75-.8-92.42.67-12.7,1.58-25.41,3.1-38,1-7.89,1.68-16.53,4.66-24,3.46-8.66,10.62-18,19.56-21.46,12.58-4.83,20.35,8.11,23.69,18.26,4.62,14.06.71,30.32-2.49,44.32-3.33,14.56-7.59,28.9-11.78,43.23-4.12,14.09-8.35,28.19-11.54,42.54-2.42,10.89-6.65,26.21-1.21,36.74,6.32,12.26,24.83,6.53,34.61,3,14.55-5.25,27.77-13.16,41.49-20.15,1.38-.7,3.11-1.31,4.36-1.95-.81.41-.39-.39-1.24.24a19.82,19.82,0,0,0-2.18,2.54c-5.72,6.22-15.25,14.85-10.44,24.11,3.12,6,8.2,11.06,11.88,16.74.62,1,3.41-.05,2.67-1.21-2.25-3.47-4.68-6.77-7.21-10-2-2.6-4.55-5.42-5.48-8.65-1.84-6.38,3.85-12.45,7.76-16.81.76-.85,8.85-7.55,5.07-8.8-2.91-1-9.28,3.84-11.55,5.07-7.39,4-14.76,8-22.35,11.54-10.51,4.94-39,19.08-45.34,1.64-2.53-6.93-1.31-15.2-.23-22.3,1.05-6.8,2.59-13.52,4.26-20.2,4-16,8.88-31.68,13.42-47.49,4.32-15,8.62-30.21,11-45.69,2.22-14.45,2.36-29.86-7-42.06-13.4-17.5-33.61-.79-41,13.44-3.71,7.14-4.72,15.43-5.79,23.3-1.8,13.32-2.8,26.77-3.54,40.19-1.77,32.1-2.47,64.78.87,96.81,1.24,11.9,2.11,26.52,11.8,34.91,10.14,8.78,24.77,9.79,37.57,9.84a236.41,236.41,0,0,0,32.78-2c7.27-1,18.17-1.72,23.83-7,1.76-1.66,2.3-3.47,1.09-5.64C698.69,492.72,695.9,493.7,696.58,494.92Z"/><path class="cls-9" d="M846.18,411.33c-11.16-12.62-42.46-5.7-48.67,10.3-.42,1.08-2.91,7.49,0,13.17,5.25,10.25,16.2,5.46,29,15.74C836.84,458.8,842,471.8,837.33,478c-7.2,9.54-31-5.92-37.61,3.73-3.2,4.71.46,13.58,5,18.32,10.45,10.95,32.56,7.16,44.79-4.58,1.29-1.24,13.68-13.5,11.07-29.2-1.86-11.12-10.22-17.89-12.17-19.47-12.75-10.32-25.47-5.63-29.31-14.31-2-4.54-.82-11,2.21-12.59,6.81-3.63,20.17,18.68,26.55,15.45C852.27,433.13,852.8,418.82,846.18,411.33Z"/><path class="cls-6" d="M847.53,410.78c-8.49-9-23.59-7.79-34.19-3.77-10.86,4.11-24.55,16.56-16.62,29.34,3.84,6.2,11.45,6.67,17.73,8.87,9.81,3.43,18.75,11.37,22.09,21.42,1.12,3.38,1.79,7.46-.13,10.68-2.39,4-7.42,3.36-11.38,2.81-6-.84-12-2.85-18.14-2.41-15.77,1.15-9.12,20.14.31,26,12,7.46,29.19,2.84,39.82-5,9.91-7.3,17.06-20.35,15-32.81-1.21-7.32-5.53-13.83-11.07-18.63-6.3-5.47-13.6-7.42-21.48-9.39-5-1.26-9.1-3.42-9.8-9.07-.31-2.59-.08-8.61,3.94-8.28,1.36.11,2.82,1.49,3.88,2.29,5.09,3.81,9,9.45,14.65,12.5,3.53,1.92,7.38,1.23,9.21-2.57,3.29-6.8.72-16.42-3.8-22-.58-.71-3.36.29-2.7,1.1,4,4.95,7.09,14.77,3.79,20.89-1.74,3.24-4,1.48-6.34-.28a77.56,77.56,0,0,1-6.2-5.54c-4.17-3.93-13.65-13.34-18.27-4.58-2.74,5.19-.95,12.41,4.28,15.14,6.44,3.36,14.11,3.2,20.56,6.86,13.53,7.69,20.56,23.61,14.27,38.37-5.64,13.2-18.7,22.57-33.19,23-8.55.28-16.51-3-20.9-10.62-1.88-3.27-3.61-7.72-2.59-11.53,1.21-4.56,5.94-4.67,9.82-4.26,8,.84,20.62,6.26,27.6-.26,10-9.34-5.28-26.46-12.9-31.37a45.44,45.44,0,0,0-12.58-5.25c-3.58-1-7.5-1.8-10.38-4.35-6.49-5.77-4.75-16,.39-22,9.32-10.89,31.95-15.65,42.64-4.29C845.47,412.56,848.22,411.51,847.53,410.78Z"/><path class="cls-10" d="M971.59,360.33l.09,0Z"/><path class="cls-6" d="M972.09,360.67l.09,0c.24-.08,1.22-.46.86-.84s-1.51.05-1.86.16l-.09,0c-.24.08-1.22.46-.86.84s1.52,0,1.86-.16l.09,0-1-.68-.09,0c-.24.08-1.22.46-.86.84S971.74,360.79,972.09,360.67Z"/><path class="cls-11" d="M936.64,444.21c-1.22,9.82-1.93,19.7-2.3,29.59-.44,11.73-3,27.91,11.12,32.55,7.94,2.62,19.78.49,25.84-5.46,3-3,4.72-7,5.86-11.1,5.89-21,1.58-45.29-1.85-66.36-1.45-8.91-3.19-17.76-4.6-26.68a192.57,192.57,0,0,1-2.65-28.65,15,15,0,0,1,1-5.87,4,4,0,0,1,1.77-1.58l.54-.24.21-.08-.18.07c6-2.63,12.8-2.74,19.7-1.88,8.28,1,16.38,2.27,24.56-.11,8-2.31,14.92-7.33,21.22-12.56,8.7-7.21,16.81-15.33,22.67-25,6.6-10.91,15.08-33,1.79-42.39a23.7,23.7,0,0,0-12.86-4c-15.24-.8-30.51,1.92-45.2,5.75-7.51,1.95-14.91,4.24-22.26,6.7-6.23,2.09-12.65,4.07-17.11,9.24a24.1,24.1,0,0,0-3.78,7.18,119,119,0,0,0-3.86,12.24c-1.43,5.39-2.67,10.83-3.81,16.29-1.35,6.43-2.57,12.88-3.7,19.35q-1.87,10.69-3.48,21.42-1.69,11.22-3.17,22.49t-2.77,22.56q-1.23,10.81-2.27,21.64c-.16,1.64-.31,3.26-.46,4.9m102.59-136c-.57,4-2.59,7.76-4.87,11.15a60.61,60.61,0,0,1-14.56,15.26c-6.83,4.91-14.79,8-23.34,7.83a23.32,23.32,0,0,1-12.54-3.53,13.71,13.71,0,0,1-6.07-12.82,21.09,21.09,0,0,1,2.86-8.09c7.61-13.18,23.64-20.29,37.94-23.22,4.71-1,10-2.09,14.49.26C1037.79,297.44,1039.91,303.13,1039.21,308.16Z"/><path class="cls-6" d="M935.18,444.34c-1.21,10-1.88,20.05-2.32,30.13-.25,5.64-.81,11.34-.11,17,1.55,12.38,11.37,18.11,23.34,16.81,5.7-.61,11.67-2.62,15.93-6.56,5.55-5.13,7.3-13.31,8.42-20.47,2.78-17.63,0-35.7-2.86-53.13-1.72-10.59-3.75-21.13-5.42-31.73-.9-5.69-1.65-11.4-2.12-17.14-.28-3.41-2.63-16.32,2.17-18.12,1.88-.7.2-2.07-1.24-1.54l-.18.07,1.23,1.54c14.66-5.85,30.47,2.67,45.47-2.35,11.56-3.86,21.54-12.67,30-21.13,8.09-8.05,14.86-17.36,18.91-28.08,3.07-8.15,5.52-18.54.92-26.62-5.94-10.4-19.76-10-30.14-9.5-15.42.82-30.63,4.5-45.36,9-10,3-24.05,5.58-30.29,14.86-3.54,5.25-5.14,12.34-6.75,18.38-2.12,7.93-3.81,16-5.37,24-6.71,34.54-11,69.61-14.29,104.63-.13,1.39,2.81.93,2.92-.27,2.53-27.2,5.84-54.35,10.19-81.33,2.21-13.74,4.64-27.47,7.88-41,1.6-6.66,3.28-13.46,6-19.79,3.11-7.35,9.08-10.66,16.29-13.16a284.93,284.93,0,0,1,38.13-10.68,141.83,141.83,0,0,1,22.3-2.74c7.79-.27,17-.51,23.07,5.26,6.88,6.51,5.47,17.24,2.95,25.4a72.71,72.71,0,0,1-16.17,27.26c-9.5,10.4-22.43,22.58-36.82,25-13.89,2.33-27.45-4.08-41.06,1.36-1.88.75-.19,2.06,1.23,1.54l.19-.07L971,359.56c-5.08,1.9-4.44,8-4.29,12.51a206.57,206.57,0,0,0,2.58,25.07c2.64,16.7,6.11,33.27,8.09,50.07a144.4,144.4,0,0,1,1,26.45c-.54,8.08-1.6,17.76-6.38,24.53-5,7-15.2,9.44-23.33,7.83-6.78-1.35-11.07-5.95-12.54-12.58-1.35-6.12-.64-12.51-.36-18.7.47-10.26,1.11-20.47,2.34-30.67.17-1.37-2.77-.93-2.92.27Z"/><path class="cls-6" d="M1037.75,308.29c-2.5,13-15.45,25.44-27.29,30.45-7,2.95-15.56,3.93-22.66.79-7.81-3.47-10.33-11.45-6.91-19.13C985.62,309.76,996.49,303,1007,299a65.39,65.39,0,0,1,18-4.36c8.4-.56,13.51,5.64,12.77,13.63-.13,1.39,2.81.94,2.92-.27,2.65-28.59-41.57-9.63-52.18-.83-8,6.61-17,19.23-9.19,29.23,7.35,9.4,22.65,8,32.39,3.86,12.63-5.36,26.32-18.37,29-32.26C1040.93,306.69,1038,307.09,1037.75,308.29Z"/><path class="cls-12" d="M1202.57,343.25c-3.91-5.54-11.24-7.36-18-8.09-2.45-.26-4.9-.44-7.37-.53-18.79-.67-43.62,2.75-57.39,17-9.56,9.87-12.92,24.61-16.93,37.29-1.68,5.3-3.24,10.61-4.74,15.93q-2.33,8.37-4.43,16.76t-4,16.84c-1.19,5.38-2.34,10.77-3.39,16.17h0c-.28,1.22-.53,2.43-.75,3.64-.1.58-.2,1.16-.29,1.74-1,6.57-2,13.22-3.12,19.74-1.1,6.09-2.81,12.33.28,18.18,2.6,4.92,8,7.84,13.49,8.81,9.2,1.63,21.41,1,28.61-5.73,10.29-9.63,8.14-28.86,6.65-41.48-1.58-13.41-4.46-26.65-6.53-40-.27-1.7-.51-3.4-.73-5.1-.19-1.53-.35-3.06-.47-4.59-.11-1.34-.18-2.68-.18-4a25,25,0,0,1,.2-3.35,11,11,0,0,1,.62-2.62,4.94,4.94,0,0,1,1.11-1.79,3.47,3.47,0,0,1,.51-.4,28.42,28.42,0,0,1,6.69-1.4c9-.8,18,1.64,27,.26,20.19-3.12,44.38-20.11,45.85-42.21A17.27,17.27,0,0,0,1202.57,343.25Zm-32,34.78a49,49,0,0,1-16,7.89,39.07,39.07,0,0,1-11,1.45,20.2,20.2,0,0,1-8-1.54,10.74,10.74,0,0,1-5.7-5.68c-3.55-9.24,9.2-18.84,15.8-23.06a53.86,53.86,0,0,1,19-7.54c5.68-1.06,13.31-1.73,16.56,4.34C1186.17,363.11,1177.63,372.87,1170.62,378Z"/><path class="cls-6" d="M1204,342.86c-4.73-6-12.13-7.64-19.41-8.36a117.85,117.85,0,0,0-25,.27c-14,1.61-29.05,5.69-39.62,15.51-12.8,11.89-16.49,31.64-21.24,47.72a576.08,576.08,0,0,0-14.63,60.64c-.85,4.75-1.45,9.56-2.21,14.33-.81,5.12-2.16,10.31-2.57,15.49-.69,8.93,4.21,15.6,12.67,18.16,11.42,3.46,28.34,1.85,36.08-8.24,9.28-12.12,5.79-31.09,3.8-45-1.59-11.14-3.88-22.16-5.63-33.28a104.42,104.42,0,0,1-1.51-13.32c-.06-2.19-.26-5.18.78-7.18,1.89-3.64,7.73-3,11.35-2.9,9.42.13,18.32,1.61,27.6-.76a66.45,66.45,0,0,0,21.09-9.62c12.48-8.56,28.17-27.7,18.43-43.46-.43-.69-3.11.43-2.9.78,8.29,13.41-2.71,30.31-13,39a61.74,61.74,0,0,1-19.87,11.25c-9.56,3.25-18.72,2-28.56,1.67-4.27-.14-12-.54-15.52,2.41-4.11,3.39-2.22,12.36-1.66,16.84,2.19,17.59,6.49,34.83,8,52.51,1.37,15.44.41,35.65-18.55,39-7.77,1.38-17.8.85-24.21-4.26-8.16-6.49-5.22-16.52-3.73-25.3,6-34.84,13.43-69.2,24.79-102.74,2.83-8.35,6.44-16.74,12.77-23.06,6.62-6.61,15.44-10.56,24.41-12.86a105.34,105.34,0,0,1,27.58-3c9.38.14,21.18.45,27.5,8.5C1201.65,344.32,1204.21,343.11,1204,342.86Z"/><path class="cls-6" d="M1169.52,378c-6,4.24-12.54,7.48-19.87,8.45-6.32.83-15.54.39-18.3-6.7-3.47-8.9,7.43-17.2,13.69-21.48a52.44,52.44,0,0,1,16.42-7.57c5.06-1.3,12.14-2.68,16.45,1.19,9.31,8.34-1.68,21-8.59,26.25-.58.44,2.06.18,2.61-.24,5.22-4,10.71-9.38,12-16.1,1.14-6.12-2-11.91-8.23-13.21-11.23-2.35-24.89,4-33.8,10.29-7.49,5.26-21.85,19-8.86,26.79,11.53,6.9,29.08-.74,38.72-7.62C1172.88,377.23,1170,377.65,1169.52,378Z"/><path class="cls-13" d="M750.57,429c-21.27,0-38.5,17.56-38.5,39.22s17.23,39.21,38.5,39.21,38.5-17.56,38.5-39.21S771.83,429,750.57,429Zm5.14,54.09c-8.45,0-15.3-6.14-15.3-13.71s6.85-13.72,15.3-13.72S771,461.83,771,469.41,764.16,483.12,755.71,483.12Z"/><path class="cls-6" d="M756.3,482.4c-6.43-.26-12.93-4.21-14.2-10.92-1.5-7.93,5-15.07,13-15.06,6.46,0,12.89,4.39,14.2,10.91,1.64,8.15-5.14,14.75-13,15.07-.95,0-3.11,1.53-1.18,1.45,7.83-.31,16.37-4.8,17.28-13.41,1-9.15-7.66-15.49-16.1-15.48-7.81,0-16.39,5-17.27,13.41-1,9.41,7.69,15.14,16.09,15.48C756.1,483.89,758.24,482.48,756.3,482.4Z"/><path class="cls-6" d="M751.15,428.31c-16,.28-30.78,9.43-37.24,24.28a40.34,40.34,0,0,0,10.94,46.56c12.43,10.36,30.34,11.75,44.51,4.14a40.5,40.5,0,0,0,20.78-41c-2.69-19.54-19.53-33.65-39-34-1,0-3.11,1.42-1.17,1.45,33.14.59,49.55,42,26.92,65.77a36,36,0,0,1-45.69,5.23,39.47,39.47,0,0,1-17.4-37.59c2.24-18.43,17.42-33.07,36.17-33.41C750.94,429.74,753.09,428.27,751.15,428.31Z"/><path class="cls-14" d="M1380.59,429c-21.26,0-38.5,17.56-38.5,39.22s17.24,39.21,38.5,39.21,38.5-17.56,38.5-39.21S1401.85,429,1380.59,429Zm5.14,54.09c-8.45,0-15.3-6.14-15.3-13.71s6.85-13.72,15.3-13.72,15.31,6.14,15.31,13.72S1394.19,483.12,1385.73,483.12Z"/><path class="cls-6" d="M1386.22,482c-6.38-.26-12.77-3.82-14.09-10.55-1.61-8.11,5.57-14.58,13.3-14.63,6.74-.05,13.32,4.58,14,11.57.81,8-6.19,13.3-13.61,13.6-1.68.07-2.2,2.29-.23,2.21,8.27-.33,16.83-5.86,16.89-14.92.06-8.76-8.28-14.72-16.47-14.72-7.91,0-16.17,5.3-17,13.67-1,9.39,7.67,15.62,16.22,16C1386.7,484.28,1388.18,482.11,1386.22,482Z"/><path class="cls-6" d="M1380.71,427.93a40.49,40.49,0,0,0-25.6,71.54,40,40,0,0,0,46.31,3.08A41,41,0,0,0,1420,461c-3.31-19.15-20.08-32.69-39.24-33-1.7,0-2.2,2.18-.24,2.21a37.88,37.88,0,0,1,34.87,25.09c5.26,14.79,1.08,31.93-10.86,42.25a36.49,36.49,0,0,1-43.49,3,39,39,0,0,1-16.94-38.51,37.58,37.58,0,0,1,36.42-31.79C1382.16,430.11,1382.67,427.89,1380.71,427.93Z"/><path class="cls-15" d="M1033.14,423.42c-5.27.19-10.58,1.19-15.11,3.85-8.59,5-11.63,14.46-14.07,23.53-3.77,14-4.92,30.31-1.05,44.46a17.5,17.5,0,0,0,3,6.47c2.78,3.44,7.39,4.85,11.79,5.23,6.64.59,13.44.53,20.1.5,7.34,0,14.67-.28,22-.49a5.55,5.55,0,0,0,3.7-1,4.37,4.37,0,0,0,1.14-2.29c1.74-7.74-4.07-10.05-10.53-9.17-11.51,1.57-30.16-2.16-34.28-14.18-.87-2.52-1.21-5.44.12-7.74,3-5.24,11.74-4.24,16.83-4.32,6.49-.1,13.27-.14,19.22-3.09a20.19,20.19,0,0,0,9-8.81,20.76,20.76,0,0,0-.8-19.37,26.56,26.56,0,0,0-12.8-10.68,42.71,42.71,0,0,0-16.61-2.91C1034.25,423.39,1033.69,423.4,1033.14,423.42Zm5.81,34c-8.51,0-15.39-4.07-15.37-9s6.91-9,15.41-8.95,15.38,4.07,15.37,9S1047.44,457.46,1039,457.43Z"/><path class="cls-6" d="M1033.3,422.49c-11.67.62-21.43,5.32-26.6,16.18s-7.44,24.15-7.63,36.21c-.17,9.94-.15,26.14,10.28,31.09,4.62,2.2,10.06,2.19,15.07,2.35,7.44.24,14.9.1,22.34-.06,4.8-.11,12.14,1.11,16.53-1.11,3.25-1.65,3.9-6.53,2.39-9.61-3.42-7-15.41-3.29-21.32-3.91a36.91,36.91,0,0,1-15.61-4.93c-4.6-2.86-10.93-10.12-7.47-16,3-5,12-3.42,16.92-3.51,5.69-.11,11.54-.38,16.86-2.59,11.23-4.67,16.72-17.41,11.32-28.62-5.94-12.35-20.59-15.71-33.08-15.46-1.55,0-2.31,1.91-.33,1.87,12.4-.25,27.55,3.93,31.65,17.24a19.67,19.67,0,0,1-1.67,15.9c-4,6.61-11.35,9-18.69,9.57-6.82.5-15.76-1.32-22.09,2.08-6.95,3.73-4.85,12.47-.3,17.37s11.75,7.46,18.37,8.57a49.63,49.63,0,0,0,10.47.63c4.27-.22,10.55-1.76,12.44,3.51,3,8.35-9.37,7-14.23,7.11-6.58.17-13.18.26-19.77.17-5.32-.07-11.4.24-16.44-1.64-6.94-2.58-8.49-9.26-9.64-15.82-2.27-13-.89-26.44,2.53-39.08,1.44-5.31,3.11-10.73,6.22-15.33,4.92-7.28,12.68-9.83,21.15-10.28C1034.52,424.28,1035.29,422.38,1033.3,422.49Z"/><path class="cls-6" d="M1039.48,456.49c-4.68-.16-12.23-1.33-14.1-6.55-2.55-7.09,8.51-9.52,13.27-9.5s12.61,1.49,14,7c1.84,7-8.93,8.94-13.58,9.08-1.55,0-2.31,1.92-.33,1.87,5.77-.17,16.89-2.34,17-10s-10.89-9.81-16.48-9.83-15.88,2.08-17.13,9.05c-1.46,8.15,10.56,10.62,16.2,10.81C1039.67,458.42,1041.44,456.56,1039.48,456.49Z"/><path class="cls-16" d="M1304.81,311.58c-56.87,55-75.76,157.29-43.73,186.75a36.7,36.7,0,0,0,15.36,8.28c26.44,6.42,55.88-21.43,53.19-27.19-2.56-5.49-32.09,13.95-46.1,2.37-20.82-17.23-2.22-98.78,40.19-114.66,27.78-10.4,53.19,12.09,73.29-4.73,11.19-9.37,16.47-27.35,10.64-34.28-11.84-14.05-65.5,22.06-76.84,8.28-8.72-10.6,15.56-41,9.46-46.1C1336,286.74,1319.09,297.77,1304.81,311.58Z"/><path class="cls-6" d="M1303.63,311.27c-23.16,22.58-39.67,51.59-49.71,82.22-8.34,25.44-13.71,54.83-7.13,81.32,2.37,9.54,6.71,19.09,14.47,25.43,11.12,9.08,25.47,10,38.69,5.37,10.88-3.8,23.23-11.19,29.57-21.17,1.19-1.88,3-5,.42-6.53s-7.56.53-10.07,1.3c-11,3.35-28.06,10.72-37.11-.14-6.24-7.48-6.68-19.12-6.23-28.34,1.28-26,12-54.86,31.48-72.65a50.47,50.47,0,0,1,16.31-10.26c10.08-3.73,20.74-2.83,31.11-1.05,13.85,2.39,29.1,6.29,41.38-3,8.7-6.56,19.91-24.15,12.91-35.23-4.53-7.18-15.8-4.6-22.51-2.95-11.86,2.9-23.12,7.79-34.9,11-8.54,2.3-23.15,5-21.84-8.48,1.14-11.81,9.44-21.42,11.91-32.79s-11.77-4.59-16.42-1.78a130.21,130.21,0,0,0-22.33,17.72c-1.25,1.19,1.58,1.36,2.36.61,7-6.69,14.53-13.15,23-18,2-1.13,7.35-4.63,9.75-3.13,1.61,1,1.09,3.33.76,4.87-2.31,10.68-9.55,19.77-11.59,30.62-4.46,23.63,28.7,11,39.39,7.4,9.86-3.34,21.14-8.48,31.76-7.91,15.56.82,8.45,21.52,3.06,29.39-5.59,8.16-13.81,12.85-23.73,12.83-8.1,0-16.07-2.12-24-3.38-13.78-2.19-27.36-1.46-39.52,5.93-20.33,12.36-32.18,36.6-37.83,58.92-2.66,10.51-4.18,21.58-3.18,32.43.69,7.46,2.69,16.19,9,21,9,6.82,22.26,2.79,31.9-.21,2.2-.68,11.27-4.94,13.28-3,2.35,2.23-4.35,8.67-5.65,10-10.72,10.63-27.13,19.13-42.56,16.65-12.06-1.93-21.44-10.5-26.37-21.35-10-21.92-7.14-49-2.05-71.74,6.68-29.94,19.79-59,38.59-83.25a173.49,173.49,0,0,1,16.06-18C1307.23,310.67,1304.4,310.51,1303.63,311.27Z"/><line class="cls-17" x1="1276.44" y1="438.71" x2="1276.44" y2="438.71"/><path class="cls-6" d="M1275.58,439.57h0a2.33,2.33,0,0,0,2-.55c.41-.41.35-1.06-.31-1.17h0a2.35,2.35,0,0,0-2,.55c-.41.42-.34,1.06.32,1.17Z"/><path class="cls-18" d="M1172.41,481.42c3.9,16.7,17.59,30,35.45,24.31A53.43,53.43,0,0,0,1233,487.5a15.94,15.94,0,0,0,1.53-2.85,3.19,3.19,0,0,0,.28-2.48c-.7-1.56-3-1.24-4.6-.65l-12.71,4.65c-4.31,1.57-9.07,3.15-13.35,1.52-3.37-1.28-5.78-4.37-7.07-7.73-3.22-8.36-1.71-17.56.07-26,3.67-17.46,12-32.31,20.16-47.92,1.6-3.07,2.85-10-2.89-9-5.27.91-10,3.88-13.8,7.52-15.89,15.18-26.91,39.36-29.21,61.14A48.15,48.15,0,0,0,1172.41,481.42Z"/><path class="cls-6" d="M1171,481.8c2.34,9.33,7.52,18.41,16.25,23.07,7.61,4.05,16.23,3.41,24,.29,8.91-3.56,19.49-10.51,24.06-19.26,5.8-11.13-15.94-1-18.32-.2-4.94,1.71-10.56,3.05-14.83-.66-2.56-2.23-3.87-5.64-4.65-8.85-1.78-7.4-.46-15.18,1.11-22.49,2.81-13.1,8.36-25.24,14.47-37.08,1.64-3.18,11.93-17.5,4.58-20.25-2.91-1.09-7.25.92-9.79,2.13-4.58,2.18-8.31,5.58-11.74,9.25a101.16,101.16,0,0,0-20.35,33.93c-4.7,12.73-7.7,26.66-4.83,40.12.17.81,3.09.1,2.9-.77-4.28-20.09,3.92-42.8,14.56-59.72,5.08-8.09,13.4-20.71,23.3-23,6.13-1.4,6.31,2.75,4.51,7.16-2,5-5.15,9.8-7.6,14.65-4.68,9.26-9,18.78-11.66,28.83-2.56,9.59-5,20.85-1.6,30.54,2.49,7.09,8.25,10.54,15.63,9.21,4.93-.9,9.65-3,14.33-4.74,1-.35,2.73-1.31,3.63-1.33,6.08-.15,4.15,2.72,2.74,4.89a36.43,36.43,0,0,1-5.08,5.81c-9.06,8.84-23.15,16.77-35.77,10.9-9.2-4.27-14.61-13.73-17-23.22C1173.65,480.2,1170.75,481,1171,481.8Z"/></g></svg>