<svg xmlns="http://www.w3.org/2000/svg" viewBox="0 0 778.61 778.61"><defs><style>.cls-1{opacity:0.85;}.cls-2{fill:#0e1322;}.cls-3{fill:#1d1d1b;}.cls-4{fill:#fff;}</style></defs><title>Logo_Pepito_Cercle</title><g id="Calque_4" data-name="Calque 4"><g class="cls-1"><path class="cls-2" d="M641.5,105.35c-4.94-4.66-10.22-9-15.41-13.45,2.56,2.29,5,4.61,7.54,7,.83.75,1.57,1.39,2.26,2s1.3,1.12,1.91,1.6C639,103.49,640.17,104.33,641.5,105.35Z"/><path class="cls-2" d="M611.12,80.32l-2.93-2.14-2.58-1.73C607.43,77.74,609.29,79,611.12,80.32Z"/><path class="cls-2" d="M581.22,61c2.7,1.61,5.28,3.31,7.86,4.87s5.11,3.09,7.53,4.71c-1.06-.73-2.14-1.52-3.31-2.27L589.62,66C587,64.45,584.3,62.71,581.22,61Z"/><path class="cls-2" d="M604.85,76.66c-1.68-1.41-2.43-2.21.63-.29l.13.08c-3-2-5.94-3.84-9-5.86C599.74,72.81,602.53,74.83,604.85,76.66Z"/><path class="cls-2" d="M604.85,76.66c1.59,1.4,4.19,3.54,5,4.3C608.45,79.68,606.76,78.23,604.85,76.66Z"/><path class="cls-2" d="M594.6,75.87c-3-1.82-1.49-2.66-7.63-6.07-3.56-2.07-6.94-4.13-10.4-5.89l-5.07-2.7c-1.67-.89-3.32-1.79-5-2.59l-10-4.94c-3.4-1.54-6.81-3.12-10.27-4.77-1.6-.71-3.44-1.49-5.35-2.43s-3.92-2-5.93-3-4-2-6-2.87-3.8-1.62-5.46-2.17c-1-.35-2-.74-3.18-1.12l-3.67-1.13-8.15-2.47c-2.83-.78-5.72-1.48-8.46-2.18s-5.35-1.37-7.68-1.79c-9.28-1.87-13.52-2.5-1.59.56a357.49,357.49,0,0,1,46.12,15.48A332.53,332.53,0,0,1,578,66a387.2,387.2,0,0,1,34,21.59,379.88,379.88,0,0,1,31.76,25.69c2.81,2.71,5.51,5.35,8.15,8s5,5.38,7.55,8.06c-3.24-3.52-6.43-7.2-10-10.72L644,113.15c-1.85-1.84-3.81-3.63-5.78-5.51C627.84,97.71,613.33,88,594.6,75.87Z"/><path class="cls-2" d="M729.11,226.45,726,220.57c-.51-1-1-1.86-1.32-2.5s-.57-1-.57-1c-6.1-14.64-14.86-28.92-24.45-42.48l3.46,6.54c1.35,1.95,2.3,3.54,3,4.62a13.49,13.49,0,0,0,1.35,1.84c.34.26-.46-1.39-2.53-5.08,9.59,16.82,18,33,25.76,50C730.62,231.3,731.21,231.3,729.11,226.45Z"/><path class="cls-2" d="M735.17,242.55l-4.43-10a3.73,3.73,0,0,0,0,.41l4.52,10C735.26,242.81,735.21,242.68,735.17,242.55Z"/><path class="cls-2" d="M512.23,31a355.49,355.49,0,0,0-133-17.47,68.67,68.67,0,0,1-10.08,1.23q-2.55,0-5.1.09c-1.7.12-3.39.29-5.08.45l-9.42,1.21c-1.56.22-3.14.36-4.69.64l-4.64.84-6.55,1.32-.18,0c-3.46.81-2.38.83-.18.64,2.44-.29,4.68-.53,6.6-.69-1.22.11-4.45.51-6.6.69-1.48.19-3.05.39-4.72.63s-3.43.67-5.33,1.06l-8.58,2.15-4.43,1.06-4.46,1.27c1.65-.52,3.24-1.05,4.8-1.49l4.53-1.12c2.92-.71,5.63-1.32,8.14-1.87,1.77-.43,3.5-.94,5.23-1.31l5.18-1.06,3-.69-5.34,1c-1.77.33-3.56.59-5.31,1L315.52,23.1l-5.26,1.23-5.2,1.49-10.37,3c-1.6.46-3.12,1-4.55,1.55l-4,1.47-7.27,2.69c-1.19.45-2.39.83-3.52,1.31L272,37.22c-4.36,1.77-8.31,3.24-11.43,4.14-1.19.45-2.35,1-3.52,1.55l-3.53,1.63,1.4-.51-2.69,1.1-7.41,3.43c-.62.29-1.24.56-1.85.86l-1.81.95-3.63,1.9-7.26,3.8c-1.2.66-2.45,1.24-3.62,2l-3.54,2.08-9,5.88c-1.54,1-3,2-4.48,3.11l-4.46,3.17-6.52,3.48c-1.16.93-2.5,2.17-4.09,3.48s-3.38,2.75-5.34,4.27c5-3.14,9.53-6,13.91-8.43A76.82,76.82,0,0,0,213,68.19,58,58,0,0,1,224.2,61.7,58,58,0,0,0,213,68.19a76.82,76.82,0,0,1-9.84,6.87c-4.38,2.43-8.9,5.29-13.91,8.43L186,85.92c-1.09.84-2.25,1.64-3.34,2.58-2.23,1.81-4.55,3.66-6.91,5.51l-3.55,2.74c-1.17.92-2.39,1.77-3.5,2.73-2.25,1.87-4.48,3.67-6.6,5.34q3.58-3.52,7-6.64c2.38-2,4.72-3.82,7-5.57s4.48-3.39,6.62-5,4.37-2.84,6.45-4.17c2-1.52,3.76-3,5.34-4.27s2.93-2.55,4.09-3.48l6.52-3.48,4.46-3.17c1.48-1.06,2.94-2.15,4.48-3.11l9-5.88a359.44,359.44,0,0,0-53.35,37.26c-3.38,2.88-6.66,5.87-10,8.79l-2.48,2.21c-.83.73-1.67,1.46-2.44,2.24l-4.74,4.63-4.72,4.61L143,122.15l-2.24,2.42-9,9.63c-.76.79-1.46,1.63-2.17,2.46l-2.11,2.51-4.22,5c-1.4,1.67-2.83,3.32-4.2,5l-4,5.19-4,5.18c-1.31,1.73-2.68,3.42-3.88,5.23l-7.4,10.7c-.61.9-1.25,1.77-1.83,2.68l-1.72,2.76L93,186.44l-3.43,5.5c-.58.91-1.12,1.85-1.64,2.8l-1.58,2.83L80,208.88l-5.77,11.58c-.94,1.94-2,3.84-2.84,5.82l-2.6,5.92-2.6,5.93c-.86,2-1.78,3.93-2.51,6L59,256.19l-1.16,3-1,3.07-2,6.16c-2.88,8.16-5,16.57-7.33,24.92-.3,1-.55,2.1-.78,3.16L46,299.71l-1.43,6.35-1.43,6.37c-.44,2.13-.77,4.29-1.16,6.43q-1.12,6.43-2.25,12.9-.81,6.51-1.63,13c-.25,2.17-.58,4.35-.78,6.53s-.33,4.39-.5,6.58-.33,4.4-.5,6.59l-.25,3.31c-.08,1.1-.18,2.2-.19,3.3q-.18,6.63-.36,13.29l-.09,3.33,0,1.67,0,1.67q.06,3.33.14,6.68l.14,6.7c.06,2.24.06,4.48.26,6.71q.48,6.72.94,13.46l.24,3.38.4,3.37c.27,2.24.53,4.49.8,6.75.56,4.5,1,9,1.84,13.53s1.52,9,2.28,13.55c.93,4.5,2,9,2.92,13.53,1,4.92,2.35,9.73,3.64,14.56.64,2.41,1.29,4.82,1.93,7.22.3,1.21.68,2.4,1.07,3.58l1.13,3.55q1.14,3.56,2.27,7.09c.78,2.36,1.45,4.75,2.37,7q2.59,7,5.18,13.88a411.52,411.52,0,0,0,25.67,52.71l7.55,12.43c2.61,4.06,5.37,8,8.05,12s5.6,7.85,8.44,11.72l4.31,5.79c1.44,1.92,3,3.73,4.52,5.6l4.56,5.56c1.52,1.85,3,3.73,4.64,5.47l9.6,10.65c6.67,6.81,13.26,13.71,20.38,20l5.23,4.8c.86.82,1.78,1.56,2.68,2.31l2.72,2.26,5.44,4.52c1.83,1.48,3.58,3.05,5.49,4.42l11.24,8.42,1.4,1,1.45,1,2.9,2,5.8,3.9c1.94,1.28,3.83,2.64,5.81,3.85l6,3.6,6,3.58c1,.59,2,1.22,3,1.77l3.05,1.64L241,733.24l12.48,5.91c4.11,2.06,8.42,3.67,12.64,5.45l6.36,2.61,1.59.65,1.62.58,3.23,1.14c4.32,1.52,8.62,3.08,13,4.54L305.05,758l3.28,1c1.09.32,2.21.55,3.32.83l6.65,1.6L325,763l1.66.4,1.68.31,3.36.63,13.44,2.5,13.54,1.82C431,777.52,506.35,764.56,575,728.83a336.3,336.3,0,0,0,44.33-28,367.67,367.67,0,0,0,46.22-41c1.87-1.86,3.6-3.85,5.37-5.79s3.52-3.9,5.28-5.85c3.41-4,6.74-8,10-11.93s6.34-8.06,9.31-12.1l4.36-6c1.42-2,2.89-4,4.2-6a380.94,380.94,0,0,0,26-44.12c.51-1.08,1-2.13,1.51-3.16s.89-2.08,1.32-3.07q1.27-3,2.42-5.71c.75-1.81,1.49-3.51,2.1-5.15s1.16-3.21,1.7-4.67c1-2.94,1.92-5.54,2.66-7.81s1.2-4.3,1.62-6c1.64-6.82,1.44-9.1.41-9-2.07.11-7.41,9.42-8.2,11-1.37,2.55-2.81,5-4.15,7.5l-2,3.7c-.66,1.24-1.31,2.47-2,3.67-1.39,2.42-2.74,4.84-4.08,7.27l-2,3.66c-.7,1.21-1.41,2.42-2.12,3.63-1.39,2.45-2.8,4.91-4.23,7.41s-3,5-4.52,7.53c-3,5.16-6.42,10.31-9.9,15.87a384.3,384.3,0,0,1-26.75,35.92,327.19,327.19,0,0,1-42.62,41.89c3-2.54,5.58-4.56,7.56-6.32s3.53-3.06,4.66-4c2.26-1.87,2.88-2.19,2.15-1.26s-2.8,3.11-5.91,6.23c-1.54,1.58-3.47,3.25-5.56,5.18l-3.32,3c-1.16,1-2.37,2.15-3.68,3.21A305.23,305.23,0,0,1,587.72,707a276.28,276.28,0,0,1-45.35,22.3c-2.52.92-5,1.93-7.65,2.85l-7.91,2.7-4,1.39-4.1,1.27-8.32,2.6-8.55,2.39-4.33,1.22c-1.44.41-2.93.72-4.4,1.09L484.18,747c-3,.68-6.06,1.27-9.12,1.93l-4.6,1-4.68.81-9.43,1.64-9.6,1.3c-1.62.21-3.22.49-4.85.63l-4.88.48a344.62,344.62,0,0,1-40,1.9,349.72,349.72,0,0,1-81.52-10.22c-3.38-.71-6.65-1.79-10-2.72l-9.88-2.87L286,737.46l-4.82-1.69c-.8-.29-1.61-.55-2.4-.86l-2.36-1L267,730.07c-1.55-.66-3.13-1.25-4.65-2l-4.54-2.17-9-4.31c-1.51-.69-2.94-1.53-4.4-2.31L240.07,717c-23-12.66-46.69-27.91-70-49.06a377.69,377.69,0,0,1-41.34-44.28,388.84,388.84,0,0,1-33.23-49.75l-3.61-6.52-1.8-3.26-1.65-3.34c-2.17-4.47-4.44-8.88-6.54-13.38l-6-13.63c-.25-.57-.51-1.13-.74-1.7l-.67-1.74-1.32-3.48-2.66-6.94A374.74,374.74,0,0,1,47.29,403a368.42,368.42,0,0,1,2.43-60.75c.3-2.54.61-5.08.91-7.62.12-1.28.37-2.54.58-3.81l.64-3.79,1.29-7.61.65-3.82c.23-1.26.54-2.52.81-3.78,1.13-5,2.19-10.11,3.38-15.17q2.06-7.52,4.11-15.07a373.34,373.34,0,0,1,23.15-59A424.81,424.81,0,0,1,118,166.91q4.51-6.22,8.93-12.33l9.32-11.68c1.5-2,3.19-3.76,4.79-5.62l4.84-5.5c3.15-3.73,6.6-7.12,9.94-10.58l3.74-3.75,1.89-1.88,2-1.78,8-7.13,2-1.77,1-.89,1-.83c1.38-1.12,2.77-2.22,4.15-3.33l8.21-6.56,8.32-6,4.06-2.93,2-1.43,2-1.33,7.91-5.16,3.77-2.48c1.24-.82,2.52-1.52,3.73-2.26l11.35-6.8L242.2,58.8c1.86-1,3.65-2,5.53-2.93l5.56-2.67,5.48-2.64c1.82-.86,3.6-1.79,5.44-2.52,7.34-3.07,14.41-6.31,21.63-8.8l5.34-2c1.78-.64,3.52-1.37,5.32-1.9L307.17,32l-11.54,3.5c-3.7,1.25-7.26,2.6-10.79,3.86l-5.26,1.91c-.88.3-1.74.64-2.58,1l-2.55,1.08c-3.4,1.42-6.78,2.85-10.19,4.29C250.82,53.82,237,60.47,221.4,70.27c-2.63,1.59-4.41,2.59-5.43,3.19s-1.32.74-1.07.47c.46-.59,3.28-2.54,7.19-5.17l6.53-4.36,1.79-1.18c.61-.38,1.24-.73,1.87-1.11l3.79-2.21C241.12,57,246,54,249.73,52.29a120,120,0,0,1,11.53-4.88A124,124,0,0,0,273,43.1l5.23-2.16L283.47,39l10.4-3.93c3.52-1.22,7.1-2.34,10.76-3.56l5.57-1.82c.94-.33,1.9-.59,2.87-.84l2.94-.78c6.76-1.95,6.3-.36,9.66-1.33,1.35-.32,2.67-.73,4-1l3.92-.84,7.49-1.67,3.58-.83,1.76-.42,1.74-.31,6.75-1.24,6.38-1.16,3.07-.54,3-.34c4-.43,7.71-.77,11.28-1l4-.23,3.94,0,7.63,0c2.5,0,5-.05,7.38,0l7.21.31c6,.09,12,.64,18.35.93,4,.16,8,.52,12.14.78A15.41,15.41,0,0,1,434,17.15l4.79.57c1.7.22,3.48.39,5.24.72,3.52.59,7,1.18,10,1.62-2.93-.44-6.45-1-10-1.62-1.76-.33-3.54-.5-5.24-.72L434,17.15a15.41,15.41,0,0,0,5.34,2.05,342.77,342.77,0,0,1,46.19,7.05,332,332,0,0,1,46.41,14l-.35-.27a523.47,523.47,0,0,0-53.21-17.45c2,.52,3.47.93,4.36,1.21s1.21.48,1,.5A78,78,0,0,1,476,22.8c-2.33-.74-4.67-1.53-7-2.24,16.35,2.82,32.55,6.87,47.05,13l3.84,1.13c2.13.59,4.63,1.52,6.3,2.05,4.84,2.08,4.45,2.42,5.33,3.17,1.71.62,3.38,1.34,5.07,2.05l5.08,2.11c-1.71-.93-4.37-2.28-7.4-3.79s-6.54-2.94-9.79-4.38-6.34-2.6-8.58-3.5Z"/><path class="cls-2" d="M322.85,21.74l4.08-1c1.46-.38,3.06-.62,4.69-1-1.48.28-3,.5-4.45.83l-4.42,1-8.83,2.06c-1.47.36-2.95.66-4.41,1.06L305.15,26l-8.74,2.52c3.18-.57,7.25-1.64,11.77-2.95,2.25-.72,4.68-1.22,7.14-1.87Z"/></g></g><g id="Chapeau"><path class="cls-3" d="M338.07,206.06c-2,2.1-4,4.11-6.15,6.05-2.79,2.55-8.65,8.84-12.9,8.28-3-.4-6.21-4.61-8-6.78a54.44,54.44,0,0,1-8.42-14.32,49.67,49.67,0,0,1-3.71-19.22c.09-6,1.17-17,7.12-19.89,9.19-4.4,20.44,1.92,28,7a95.85,95.85,0,0,1,15.8,13.26c.76.79,3.52-.3,2.68-1.18-10.7-11.24-30.61-27.88-47.22-20.61-6.42,2.81-7.95,10.15-8.87,16.62a47.86,47.86,0,0,0,2.4,22.35,56.35,56.35,0,0,0,9.55,17.17c2.2,2.66,5.35,6.47,8.94,7.28,4.3,1,9-2.81,12.13-5.24a95.64,95.64,0,0,0,11-10.18c1.18-1.27-1.63-1.37-2.36-.59Z"/><path class="cls-3" d="M488.6,178.69a99.36,99.36,0,0,1,16.32-13.25c3.4-2.17,9.7-6.43,13.67-3.46,2.7,2,3,6.48,3.15,9.55.36,9.45-2.34,20.53-7.66,28.4-3.71,5.5-9,7.25-15.42,4.33a13.68,13.68,0,0,1-6.6-6.1c-.45-.93-3.27,0-2.9.78,3.2,6.69,11.86,9.31,18.72,7.83,7.52-1.62,11.39-10.26,13.62-16.8,2.56-7.48,5.48-19.09,1.62-26.67-3.29-6.45-11.6-3.26-16.47-.67-7.5,4-14.32,9.73-20.35,15.67-1.17,1.15,1.67,1,2.3.39Z"/><path class="cls-3" d="M228.63,431.89A134.13,134.13,0,0,1,247.14,398c6.16-8.1,13.79-14.48,22.29-20a70.3,70.3,0,0,1,15-7.73c3.66-1.28,11.82-5.82,15.5-3.73.69.4,3-.8,2.74-.95-2.39-1.36-4.94-.8-7.45,0-4.66,1.42-9.38,3.17-13.92,4.94-10.32,4-20.32,10.84-28.41,18.38-12.36,11.51-21.25,27.79-27.14,43.52-.15.41,2.59.17,2.85-.54Z"/><path class="cls-3" d="M293.79,442.24a67.54,67.54,0,0,1-21.8,10.9c-1.23.37-14.21,2.64-14.2,2.57.29-1.44-2.67-1.1-2.94.21-.72,3.59,10.72,1,12,.71a72.84,72.84,0,0,0,28.89-13c1.56-1.2-.77-2.23-1.93-1.35Z"/><path class="cls-3" d="M376.19,165.3c-18.51-18.56-43.76-46.2-73.06-33.89-25.66,10.79-26.95,46.7-18.27,69a79.83,79.83,0,0,0,11.2,19.8,73.86,73.86,0,0,0,7.7,8.51c.77.74,3.75,2.51,4,3.52.55,2-3.67,5.08-4.88,6.26l2.52.3a58.22,58.22,0,0,1,5.91-6l-2.33-.52c-15.63,16.32-28.36,35.81-33.91,57.92-4.8,19.16-3.2,37.87,1.6,56.78L279,345.7l-15.28-3.28c-.47-.1-3.14.55-2.23,1.38l14.63,13.44,2.22-1.38L266.9,352.3c-.51-.16-3.1.59-2.23,1.38l18.56,16.72c.77.69,3.49-.42,2.68-1.15l-18.55-16.72-2.23,1.38,11.47,3.56c.51.16,3.09-.58,2.22-1.38L264.2,342.65,262,344l15.29,3.27c.6.13,2.57-.22,2.33-1.19-4.61-18.15-6.3-36.11-2-54.58,5.2-22.46,18-42.33,33.76-58.82,1.22-1.27-1.64-1.11-2.33-.52a64.26,64.26,0,0,0-6.29,6.49c-.86,1,2,.81,2.52.3,2.1-2,4.09-4.16,6.1-6.27.18-.19.48-.59.18-.83-18.19-14.39-30-37.88-28.69-61.28.64-11.63,4.8-25.73,14.08-33.44,12.5-10.39,29-7.59,42.2-.35,13.43,7.35,23.73,18.93,34.4,29.64.73.74,3.48-.35,2.69-1.15Z"/><path class="cls-3" d="M520.18,224.15c9.14-13.1,16-27.63,19.13-43.35,2.13-10.75,3.44-27.17-8.26-33-8.21-4.1-18.74-2-27.08.6-12.66,3.86-23.64,11-33.86,19.25-.64.52,2.06.28,2.64-.18C483,159.19,494.11,152,507,148.6c9.18-2.42,21.91-3.59,27.58,5.9,6,10,3,23.8.13,34.25a117.16,117.16,0,0,1-17.34,35.89c-.24.34,2.36.23,2.86-.49Z"/><path class="cls-3" d="M534.51,428.45c21.7,28.16,24.17,69.81,15.74,103.22-4.36,17.29-12.34,34.11-25.17,46.74-10.56,10.4-23.63,18.28-36.91,24.69-34.39,16.59-73.86,24.23-111.93,20.84a174.22,174.22,0,0,1-62.72-17.49C300.59,600,290,593,281.45,581.26a124.94,124.94,0,0,1-21.92-51.88c-4.47-26,.71-51.93,13.4-74.89.76-1.38-2.17-1.33-2.76-.28-11.44,20.71-17,43.93-14.67,67.58a125.51,125.51,0,0,0,17.52,52c6.79,11.31,14.59,20.45,25.83,27.37a172.34,172.34,0,0,0,61.8,22.94c39.41,6.64,80.9.72,117.71-14.45,14.69-6,29-13.68,41.43-23.65a93.86,93.86,0,0,0,28.77-40c7.7-19.94,10.19-41.87,8.29-63.1-1.76-19.7-7.46-39.86-19.68-55.72-.75-1-3.53.12-2.66,1.25Z"/><path class="cls-3" d="M516.12,224.94c6.81,6.15,12.14,14.46,16.41,22.47,10.91,20.48,15,44,13,67-.64,7.56-2.42,15-3.89,22.38-.18.89,1.64.48,2,.32,2.62-1.15,5.26-2.27,7.93-3.34a49.7,49.7,0,0,1,4.74-1.73c-.71.2-.5-.27-1.33.23a16.72,16.72,0,0,0-1.77,1.5c-4.93,4.07-10.09,7.89-15.23,11.71-.71.54,0,1,.57,1h19.76l-.3-1.13-22.92,11.74c-.64.33-.79.9,0,1.1a29.73,29.73,0,0,0,4.7,1.2c1.65.12,1.32,1,1.7-.35-.09.29-1,.9-1.27,1.06-2.88,1.73-5.48,4.54-8.07,6.7-.11.08-.41.38-.31.57,6.55,11.75,14.61,26.63,8.15,40-6.59,13.67-23.27,20.24-36.95,23.94-1.72.47-1.39,1.77.34,1.3,16.41-4.43,39-13.73,41.77-33,1.45-10-3.69-21.41-8.7-29.88-1.36-2.3-2.11-1.8-.93-3.44a19,19,0,0,1,3.26-2.7l5.08-4.22c.48-.4.31-.77-.25-.92l-6.72-1.71,0,1.1,22.93-11.73c.85-.44.59-1.13-.3-1.13H539.73l.57,1q4.94-3.69,9.82-7.45c2.32-1.79,7.36-4.43,8.53-7.3a.34.34,0,0,0-.1-.34c-1.13-1.25-5.31.88-6.36,1.28-3.25,1.24-6.45,2.62-9.64,4l2,.33c1.19-6,2.73-12.09,3.47-18.19A128.31,128.31,0,0,0,546.75,279a111.1,111.1,0,0,0-21.18-47.6,59.69,59.69,0,0,0-6.75-7.55c-.7-.63-3.4.47-2.7,1.1Z"/><path class="cls-3" d="M501.61,385.63c-8.13,3.28-15.18,9.89-20.31,16.83-1.1,1.49,1.61,2.08,2.45,1,4.86-6.58,11.46-12.84,19.18-16,1.83-.73.22-2.45-1.32-1.83Z"/><path class="cls-3" d="M471,421.15c-7.79,11.84-4.64,27.42,8.48,33.62.7.33,3.36-.75,2.36-1.22-12.54-5.93-15.62-21.22-8.19-32.51.61-.93-2.22-.55-2.65.11Z"/><path class="cls-3" d="M214.08,453.68c-4.85,7.38-6,17.23-1.49,25,3.2,5.48,9.29,8.74,14.68,3.95,1.19-1.06-1.67-.87-2.28-.32-6.69,5.94-12.17-9.46-12.38-13.88a25.68,25.68,0,0,1,4.14-14.81c.65-1-2.21-.65-2.67.05Z"/><path class="cls-3" d="M483.84,423.91c-3.89,5.15-6.57,12-5.66,18.55.8,5.78,6.68,15.86,13.81,14.73a4.57,4.57,0,0,0,3.76-3.27c1.52-4,1.43-8.36,3.23-12.36A40.8,40.8,0,0,1,509.91,427c1.74-1.47,3.5-2.85,3.35-5.36s-2-4.92-3.12-7c-1.52-2.89-2.65-6.46-4.82-9-4.58-5.29-13.35-4.41-19.58-3.75-12.06,1.29-27.1,8.23-32.28,19.86-3.7,8.34-.68,17.82,4.72,24.69,3.57,4.54,8.8,9.36,12.79,2.44.8-1.4-2.14-1.44-2.78-.33-3.38,5.86-11.28-9.62-12.05-11.77-2.22-6.15-1.78-12.62,2-18,5.7-8.19,16.9-13.36,26.61-14.63,5.51-.72,13.85-1.77,17.92,2.81,2.87,3.23,4.59,8.31,6.49,12.11,1.2,2.42,1.75,3.7-.31,5.88s-4.73,4-6.72,6.47A41.39,41.39,0,0,0,494,448.24c-.66,3.16-.45,8.12-5,5.87-3.75-1.86-6.77-7-7.64-10.93-1.39-6.33,1.1-13.34,4.92-18.41,1.11-1.46-1.62-1.92-2.42-.86Z"/><path class="cls-3" d="M228.28,457.11c-6.26,8.28-9.78,29.29,5.63,29.92,5.73.23,6-3.54,5.75-8.2a23.88,23.88,0,0,1,2.82-12.51c2.88-5.06,7.35-5.56,12.07-7.78,3.45-1.62,4.59-4.93,3-8.41-3.46-7.39-12-11.37-19.63-12.71-15.09-2.66-33.38,2.93-38.5,18.93-2.46,7.69-1.1,18.24,4.08,24.63,3.21,4,7.42,4.56,10.2-.28.75-1.29-2.17-1.16-2.73-.19-2.56,4.44-6.08-2.34-7-4.28a30.47,30.47,0,0,1-2.49-9.42,24.2,24.2,0,0,1,12.21-24.29c8.06-4.72,18.17-5,27-2.3,4.86,1.47,16.33,7.65,14.59,14.39-.71,2.74-4,3.2-6.31,4.06-3,1.12-5.5,2.4-7.52,5a24,24,0,0,0-4.7,14.76c0,1.32.68,3.32.29,4.55-1,3-3.87,2.27-6.12.82-3.9-2.49-5.43-7.5-5.32-11.91A26,26,0,0,1,231,457.31c.86-1.15-2.07-1.07-2.73-.2Z"/><path class="cls-3" d="M467.44,433c1.09,0,3.08-1.64,1.13-1.64-1.09,0-3.08,1.64-1.13,1.64Z"/><path class="cls-3" d="M352.34,461.14c-20.4,20-37.89,47.58-37.49,76.93.36,26,11.76,51.18,34.2,65.37,15.63,9.88,34.38,13.71,52.65,14.41,19.26.74,39.26-1.13,57.19-8.61,27.75-11.58,43.79-36.6,47.31-65.91a118.48,118.48,0,0,0-9.12-62.23c-4.41-9.92-10.14-20.13-17.73-28-.76-.78-3.52.31-2.68,1.18,18.81,19.6,27.9,49.75,27.49,76.32-.44,27.88-10.23,55.86-34.76,71.31-15.52,9.77-34.11,13.39-52.2,14.18-19.84.86-40.63-1.18-58.66-10.06-23.89-11.77-38-35-40.4-61.21-2.92-31.77,14.45-61.34,36.55-83,1.23-1.21-1.6-1.33-2.35-.59Z"/><path class="cls-3" d="M474.72,629.83c.76.89.59,4.43.82,5.6.52,2.61,1.24,5.56,3,7.62,2.61,3,6.7,2.91,10.22,1.92,4.38-1.23,12.58-3.87,13.28-9.31.44-3.33-1.41-7.09-3.23-9.76-1.15-1.69-4.62-3.91-5.21-5.72L491,621.25c1.53.55,2.73,2,4.34,2.58a11.68,11.68,0,0,0,5.28.55c2.61-.31,6.14-1.59,7.77-3.76,5.46-7.32-9.25-16.93-14.34-19.45-.79-.4-3.46.79-2.32,1.35a33.34,33.34,0,0,1,12.52,10.15c.81,1.15,2.41,3.22,2.27,4.73-.35,3.88-4.11,6-7.72,5.38-2.2-.37-3.55-2.18-5.48-2.88-.53-.2-2.93.07-2.61,1.06.25.76,1.22,1.29,1.76,1.83a24.06,24.06,0,0,1,4.94,6.4c1.48,3,2.92,7.4.15,10.06-2.34,2.25-7.84,4.56-11,4.78-4.76.32-6.79-3.82-7.79-7.87-.42-1.72-.17-6.06-1.35-7.43-.61-.72-3.38.3-2.69,1.1Z"/><path class="cls-3" d="M269.51,620.19c0,1.44-2.37,4-3,5.29-1.19,2.34-2.45,5.09-2.27,7.78.29,4.27,4,6.43,7.62,7.69,4.42,1.52,10.9,3.77,14.95.22,2.21-1.93,3.35-5.31,3.85-8.11a23.31,23.31,0,0,0,.24-5.78c-.08-1.16-.71-2.94-.43-4.08l-2.91.55c1.39,2.69,1.35,5.12,3.91,7.28a11.71,11.71,0,0,0,6,2.54c5.65.77,8.36-2.94,8.77-8.21.75-9.72-4.46-18.92-8.19-27.6-.47-1.09-3.32-.22-2.9.77,2.24,5.21,5,10.46,6.61,15.89,1.3,4.31,2.32,9.23,1.26,13.71-.93,3.86-5,4.19-8,2.31s-3.08-4.66-4.53-7.46c-.51-1-2.66-.45-2.9.55s.23,2.28.33,3.24c.34,3.35.37,8-1.48,11-2.56,4.17-6.32,3.38-10.29,2.27-2.34-.66-5.42-1.42-7.17-3.34-2.86-3.16-1.61-7.16,0-10.57.76-1.57,3.47-4.45,3.47-6.23,0-1.29-2.9-.72-2.9.33Z"/><path class="cls-3" d="M480.1,644c-.77,6.56-9.09,11.62-14.53,6.58-3-2.79-3.73-7-4.21-10.85-.36-2.86,0-8.76-2.24-10.78a1.8,1.8,0,0,0-1.77,0c-2.08,1.2-2.5,4.6-3.31,6.64-.94,2.4-2.07,5.21-4,6.95a5.37,5.37,0,0,1-8-1.25c-4.45-7.58,2.1-17.53,7.64-22.09,1.52-1.25-.79-2.31-1.93-1.37-6.49,5.33-13.2,15.81-8.49,24.54,1.66,3.07,6.06,4.51,9.37,3.61,5-1.34,7.33-7.49,8.92-11.8.25-.71.51-1.41.77-2.11.73-1,.27-1.49-1.39-1.35-.13.31.41,1.62.5,2,.46,2.21.72,4.47,1,6.71.51,4.13,1.08,8.26,3.79,11.6,6.54,8,19.79,2.17,20.9-7.25.18-1.51-2.78-1.14-2.94.2Z"/><path class="cls-3" d="M263.91,632.86c-4.9,4.31-14.27-.14-15-6.2-.48-4.29,1.59-8,3.77-11.53,1.35-2.17,5.31-6.62,4.87-9.29,0-.21-.38-.35-.55-.37-2-.24-3.74,1.11-5.38,2.09-1.18.71-2.35,1.46-3.58,2.09-2,1-5.78,2.23-7.84,1.58s-4.1-4.18-3.87-6.36c.53-5.09,6.47-9.76,10.74-11.3,6.69-2.41,14.2-.46,21.14-1.71a16.72,16.72,0,0,0,12.46-9.75c.37-.84-2.49-.54-2.9.38-5.18,11.74-17.92,6.92-27.74,8.8-6.75,1.29-14,5.81-16.19,12.76a7.15,7.15,0,0,0,3,7.9c3.45,2.41,8.16.76,11.62-.81a40.34,40.34,0,0,0,3.82-2.08,14.66,14.66,0,0,0,2.2-1.34c.78-.7.5-.28.52-.63,0,.66-2.85,4.53-3.56,5.71-1.77,2.94-3.89,5.79-4.88,9.12-1.89,6.32.89,11.41,7.14,13.41,4,1.29,9.23.84,12.5-2,1.23-1.09-1.63-1-2.31-.43Z"/><path class="cls-3" d="M281.68,428.82c1.61,0,2.26-2,.28-2-1.61,0-2.26,2-.28,2Z"/><path class="cls-3" d="M374.7,274.51c-1.51,5.32-6.33,7.41-7.6,8a11.24,11.24,0,0,1-7.59.93c-4.61-1.26-6.67-5.66-7.22-6.86-.36-.76-1.61-3.61-1-9.28a18.68,18.68,0,0,1,7.07-7.39,13,13,0,0,1,13.71,3.52C372.36,263.68,376.42,268.47,374.7,274.51Z"/><path class="cls-3" d="M373.24,274.65c-2.21,6.31-10.85,10.94-16.51,5.72a13.32,13.32,0,0,1-4.13-10.18,10.06,10.06,0,0,1,13.11-9.48c6,1.89,8.78,8,7.53,13.94-.27,1.29,2.68.89,2.92-.28a13.1,13.1,0,0,0-11.71-16.05c-7.45-.7-15,5.05-14.75,12.8.17,6,3.66,12.34,10.1,13.38,6.91,1.12,14.12-3.74,16.36-10.13C376.58,273.19,373.64,273.53,373.24,274.65Z"/><path class="cls-4" d="M351.14,267.65l.19-.44v.05Z"/><path class="cls-3" d="M352.57,267.39l.19-.44-2.85.52a2.44,2.44,0,0,1-.19.44c-.22.47,1,.3,1.15.27.47-.08,1.47-.28,1.7-.79a1.43,1.43,0,0,0,.19-.44c.12-.7-2.59-.08-2.85.52l-.19.44c-.21.48,1,.3,1.15.27C351.32,268.1,352.36,267.9,352.57,267.39Z"/><path class="cls-4" d="M360.81,245.42s-5,7.11-6.27,10.28-3.21,11.51-3.21,11.51c.13-1,.32-2.2.58-3.45A44.3,44.3,0,0,1,360.81,245.42Z"/><path class="cls-3" d="M359.44,245.29c-2.35,3.34-4.89,6.82-6.4,10.63a82,82,0,0,0-3.17,11.43l2.93-.27a44.18,44.18,0,0,1,9.21-21.3c1.1-1.42-1.66-1.69-2.4-.73a46.33,46.33,0,0,0-9.74,22.3c-.18,1.41,2.66.85,2.93-.27.91-3.86,1.69-8,3.26-11.6a58.36,58.36,0,0,1,6.12-9.94C363,244.31,360.1,244.35,359.44,245.29Z"/><path class="cls-3" d="M483.56,264.13c0,5.85-3.25,12.65-8.62,14.08a9.11,9.11,0,0,1-6.86-1.11c-.35-.21-6-3.63-5.75-9.27.2-4.58,4.15-7.27,5.43-8.15,5.2-3.54,10.86-1.59,12.14-1.11,0,0,1.56.82,3.11,1.56A14.7,14.7,0,0,1,483.56,264.13Z"/><path class="cls-3" d="M482.12,264.52c-.17,5.74-3.69,15.41-11.35,12.67a11.7,11.7,0,0,1-6.14-5.73c-5.53-11.62,16.88-18.81,17.49-6.94,0,.74,2.94.2,2.89-.77-.12-2.49,0-3.54-2-4.81a12.54,12.54,0,0,0-3.32-1.43,15.83,15.83,0,0,0-9.51.23c-5.81,2-11.5,8.07-8.48,14.5a11.82,11.82,0,0,0,13,6.65c6.85-1.56,10.12-8.67,10.3-15.14C485,263.07,482.14,263.52,482.12,264.52Z"/><path class="cls-3" d="M469.1,247.56a18.57,18.57,0,0,1,7.82,4.8c3.14,3.27,3.55,6.68,4.64,10.88.15.55,3.05-.21,2.9-.78-1-3.9-1.43-7.25-4.18-10.39a18.74,18.74,0,0,0-8.44-5.46c-.8-.25-2.85.92-2.74.95Z"/><path class="cls-3" d="M399.41,338.15c-2.81,2.41-5.46,5.42-5.41,9.35.07,5.15,4.69,9.07,9,11.12,8.81,4.21,19.94,1.31,25.91-6.42s0-13.88-7.61-16.68c-7.3-2.7-15.59-2.19-21.86,2.63-1.56,1.19.79,2.1,1.9,1.25,5.1-3.91,11.63-4.24,17.57-2.24,5,1.68,11.41,5.33,9.16,11.53-3,8.18-14.26,11.65-21.77,8.73-8.29-3.21-12.65-11.42-5-18C402.8,338.12,400.48,337.23,399.41,338.15Z"/><path class="cls-3" d="M381.51,339.69A170.22,170.22,0,0,0,269,391.08c-1.26,1.29,1.53,1.7,2.41.8a166.1,166.1,0,0,1,109.81-50.13c1.62-.09,2.26-2.17.28-2.06Z"/><path class="cls-3" d="M375.93,348.49a157.24,157.24,0,0,0-100.27,59.19c-1.13,1.47,1.59,2.06,2.45.94a153.36,153.36,0,0,1,97.59-57.89c1.63-.25,2.18-2.54.23-2.24Z"/><path class="cls-3" d="M373.32,360.1a150.3,150.3,0,0,0-87.45,67.52c-.82,1.39,2.12,1.43,2.77.34a146.65,146.65,0,0,1,85.22-65.87c1.77-.51,1.25-2.5-.54-2Z"/><path class="cls-3" d="M369,372a92.88,92.88,0,0,0-45.61,42c-.61,1.17,2.26.82,2.68,0a90.08,90.08,0,0,1,44.05-41c1.86-.8.16-1.65-1.12-1.1Z"/><path class="cls-3" d="M446.36,335.12a116.9,116.9,0,0,1,94.46,34.3c.64.64,3.36-.42,2.71-1.08a119.32,119.32,0,0,0-96.72-34.62c-1.33.13-2.48,1.6-.45,1.4Z"/><path class="cls-3" d="M449.4,343.92c36,.2,68.45,19.19,87.74,49.29.64,1,3.43,0,2.66-1.23-19.6-30.59-52.81-49.81-89.36-50-1.29,0-3,2-1,2Z"/><path class="cls-3" d="M452.77,351.28a104.44,104.44,0,0,1,72.77,59.48c.53,1.21,3.4.36,2.89-.77a106.16,106.16,0,0,0-74-60.56c-1.15-.26-3.42,1.47-1.7,1.85Z"/><path class="cls-3" d="M456.07,360.77a72.15,72.15,0,0,1,44.27,35.91c.52,1,3.33,0,2.9-.77a73.59,73.59,0,0,0-45.39-36.71c-.92-.25-3.4,1.11-1.78,1.57Z"/><path class="cls-4" d="M378.58,382.88c11.6,12.67,28.79,10.54,32.62,5.6a15.56,15.56,0,0,0,3.06-11,17.82,17.82,0,0,0,3.42,8.82c3.61,5.18,25.2,12.43,35.57-13.72"/><path class="cls-3" d="M377.25,383.51c6.86,7.14,16.68,11.25,26.63,9.5,8.33-1.46,12-7.41,11.84-15.73l-2.93.23c.52,9.29,7.71,14.37,16.35,14.82,12.52.65,21-8.86,25.49-19.59.63-1.52-2.28-1.47-2.77-.31-3.93,9.47-11.19,18.7-22.5,17.78-7.27-.59-13.2-5-13.64-12.93-.08-1.48-3-1-2.93.23.13,7.25-2.52,12.69-10,13.63-8.62,1.09-17-2.77-22.86-8.89-.89-.93-3.64.24-2.66,1.26Z"/><ellipse class="cls-4" cx="358.97" cy="275.95" rx="2.41" ry="4.76" transform="translate(-79.26 162.1) rotate(-22.99)"/><ellipse class="cls-4" cx="468.39" cy="271.47" rx="2.19" ry="4.51" transform="translate(-71.89 305.84) rotate(-33.74)"/><path class="cls-3" d="M227.5,484.8l-5.44,127.85-.77,17.94,2.05-1.07c-.76,0-3.43.44-4,0,.1.08.77.52.62.07a7.45,7.45,0,0,1,0-2l.1-9.42.37-34.37.88-80.8.2-19c0-.64-2.89-.19-2.9.78l-1.38,127.85-.19,17.94c0,.31.69.3.85.3h4.19c.59,0,2-.31,2.05-1.08L229.64,502,230.4,484c0-.61-2.85-.2-2.9.78Z"/><path class="cls-3" d="M374.42,168.67c-6.61.44-13.21,1.81-18.76,5.61-4.91,3.36-12.68,11.7-10.19,18.24,1,2.62,3.44,4.19,5.86,5.34,4.56,2.19,8.75,3.84,12.92,6.9,7.85,5.76,14.93,11.45,24.29,14.59,16.78,5.65,35.2,5.13,52.58,3.3C456.86,221,474,220,485,207.15c5-5.8,9.76-15.14,7.77-23-1.83-7.27-9.6-9.67-16.15-10.84-.85-.15-3.39,1.2-1.8,1.48,5.64,1,12.35,2.89,14.63,8.8,2.35,6.06-.61,13.83-3.79,19a33.67,33.67,0,0,1-18.42,14.62c-6.72,2.05-14.24,2.61-21.21,3.46-15.28,1.87-31.08,2.74-46.28-.3a62,62,0,0,1-21.42-8.26c-6.27-4-11.65-9.62-18.38-12.94-3.07-1.52-6.82-2.21-9.42-4.55-4-3.64-2.3-8.3.19-12.31,5-8.1,13.31-11.48,22.55-12.1,1-.07,3.08-1.66,1.16-1.53Z"/><path class="cls-3" d="M372.76,190.11c-2.12-6.17,1.12-11.4,2.63-17.19,1.41-5.35.91-11.16,1.27-16.64a66.37,66.37,0,0,1,1.26-9.84c1-4.49,2.26-13,7.69-13.9,3.8-.64,7.84-.51,11.69-1.15,4.21-.7,8.37-1.75,12.53-2.66,6.92-1.52,14.08-3.32,21.21-3,19.9.8,33.44,21.3,39.22,38.57,2.74,8.15,6,15.42,3,24.09-1.43,4.16-8,7.12-11.88,8.74a66.94,66.94,0,0,1-15,4.08,151.74,151.74,0,0,1-35.25,1.24,145.85,145.85,0,0,1-20.08-2.57c-6.29-1.32-15-3.72-18.31-9.74-.52-.93-3.3,0-2.9.78,5.32,9.54,21.08,11.16,30.7,12.26a176.31,176.31,0,0,0,39.77.32c9.06-1,18.51-2.9,26.54-7.35,3-1.68,7.38-3.85,8.92-7.08A22.82,22.82,0,0,0,477,175a104.2,104.2,0,0,0-10.17-25.16c-5.56-9.47-12.6-19.07-23.06-23.37-7.88-3.25-16.27-2.54-24.45-1.1-10.16,1.79-21,6.12-31.39,5.64-4.86-.22-6.75.22-9.43,5-2.42,4.36-3.48,9.82-4.17,14.72-.88,6.22-.43,12.53-1.13,18.75-.82,7.27-5.88,13.92-3.32,21.38C370.19,191.84,373.07,191,372.76,190.11Z"/><path class="cls-3" d="M371.22,177.41c32.29,16.62,75,17.94,105.1-3.73.55-.4-2.06-.14-2.61.26-28.56,20.57-69.27,18.2-99.75,2.51-.73-.38-3,.82-2.74,1Z"/></g></svg>