<svg xmlns="http://www.w3.org/2000/svg" xmlns:xlink="http://www.w3.org/1999/xlink" viewBox="0 0 1504.45 781.87"><defs><style>.cls-1{opacity:0.85;}.cls-2{fill:#0e1322;}.cls-3{fill:url(#Dégradé_sans_nom_18);}.cls-4{fill:#010101;}.cls-5{fill:url(#Dégradé_sans_nom_18-2);}.cls-6{fill:url(#Dégradé_sans_nom_18-3);}.cls-7{fill:url(#Dégradé_sans_nom_18-4);}.cls-8{fill:url(#Dégradé_sans_nom_18-5);}.cls-9{fill:url(#Dégradé_sans_nom_18-6);}.cls-10{fill:url(#Dégradé_sans_nom_18-7);}.cls-11{fill:url(#Dégradé_sans_nom_18-8);}.cls-12{fill:url(#Dégradé_sans_nom_18-9);}.cls-13{fill:url(#Dégradé_sans_nom_18-10);}.cls-14{fill:url(#Dégradé_sans_nom_18-11);}.cls-15{fill:url(#Dégradé_sans_nom_18-12);}.cls-16{fill:url(#Dégradé_sans_nom_18-13);}.cls-17,.cls-20{fill:#1d1d1b;}.cls-18{fill:#fff;}.cls-19,.cls-22,.cls-23{fill:none;}.cls-19,.cls-20,.cls-21,.cls-24{stroke:#0c1610;}.cls-19,.cls-20,.cls-22,.cls-23{stroke-linecap:round;stroke-linejoin:round;}.cls-21,.cls-24,.cls-25,.cls-26{fill:#faf9e2;stroke-miterlimit:10;}.cls-21,.cls-22{stroke-width:2px;}.cls-22,.cls-23{stroke:#1d1d1b;}.cls-25{stroke:#1e1e1e;}.cls-26{stroke:#1c1c1c;}</style><linearGradient id="Dégradé_sans_nom_18" x1="1220.47" y1="360.33" x2="1244.58" y2="360.33" gradientUnits="userSpaceOnUse"><stop offset="0" stop-color="#202c53"/><stop offset="0.8" stop-color="#202c53" stop-opacity="0.93"/><stop offset="1" stop-color="#202c53" stop-opacity="0.9"/></linearGradient><linearGradient id="Dégradé_sans_nom_18-2" x1="1368.62" y1="451.54" x2="1428.44" y2="451.54" xlink:href="#Dégradé_sans_nom_18"/><linearGradient id="Dégradé_sans_nom_18-3" x1="596.1" y1="395.02" x2="695.49" y2="395.02" xlink:href="#Dégradé_sans_nom_18"/><linearGradient id="Dégradé_sans_nom_18-4" x1="785.02" y1="450.72" x2="844.84" y2="450.72" xlink:href="#Dégradé_sans_nom_18"/><linearGradient id="Dégradé_sans_nom_18-5" x1="947.02" y1="362.67" x2="947.1" y2="362.67" xlink:href="#Dégradé_sans_nom_18"/><linearGradient id="Dégradé_sans_nom_18-6" x1="912.21" y1="390.89" x2="1036.37" y2="390.89" xlink:href="#Dégradé_sans_nom_18"/><linearGradient id="Dégradé_sans_nom_18-7" x1="1047.76" y1="418.71" x2="1162.86" y2="418.71" xlink:href="#Dégradé_sans_nom_18"/><linearGradient id="Dégradé_sans_nom_18-8" x1="707.42" y1="462.31" x2="778.51" y2="462.31" xlink:href="#Dégradé_sans_nom_18"/><linearGradient id="Dégradé_sans_nom_18-9" x1="1289.07" y1="462.31" x2="1360.16" y2="462.31" xlink:href="#Dégradé_sans_nom_18"/><linearGradient id="Dégradé_sans_nom_18-10" x1="973.72" y1="459.71" x2="1035.13" y2="459.71" xlink:href="#Dégradé_sans_nom_18"/><linearGradient id="Dégradé_sans_nom_18-11" x1="1199.94" y1="398.01" x2="1351.81" y2="398.01" xlink:href="#Dégradé_sans_nom_18"/><linearGradient id="Dégradé_sans_nom_18-12" x1="1228.47" y1="435.04" x2="1228.47" y2="435.04" xlink:href="#Dégradé_sans_nom_18"/><linearGradient id="Dégradé_sans_nom_18-13" x1="1131.29" y1="447.29" x2="1190.2" y2="447.29" xlink:href="#Dégradé_sans_nom_18"/></defs><g id="Calque_4" data-name="Calque 4"><g class="cls-1"><path class="cls-2" d="M608.47,139.71c-2.21-2-4.39-4.06-6.65-6L595,127.84c2.24,2,4.42,4.08,6.59,6.24A57.28,57.28,0,0,0,608.47,139.71Z"/><path class="cls-2" d="M581.91,117.55l-2.56-1.89-2.29-1.5Z"/><path class="cls-2" d="M555.74,100.44c4.64,3,9.21,5.68,13.45,8.52-.93-.64-1.89-1.32-2.89-2l-1.55-1-1.65-1Q559.73,102.78,555.74,100.44Z"/><path class="cls-2" d="M576.36,114.39c-1.43-1.3-2.07-2,.59-.3l.11.07c-2.53-1.82-5.18-3.43-7.87-5.2C571.93,110.93,574.39,112.68,576.36,114.39Z"/><path class="cls-2" d="M576.36,114.39c1.37,1.26,3.64,3.15,4.38,3.84C579.49,117.08,578,115.8,576.36,114.39Z"/><path class="cls-2" d="M567,114.13a6.91,6.91,0,0,1-2.29-2.19,13,13,0,0,0-4.3-3.3c-12.38-7.43-23.54-12.72-35.71-18.46-1.42-.57-3-1.4-4.64-2.24s-3.42-1.75-5.17-2.68-3.5-1.89-5.2-2.66a49.27,49.27,0,0,0-4.79-1.92,238.79,238.79,0,0,0-27.26-7.78c-8.14-1.66-11.89-2.09-1.43.56a314.27,314.27,0,0,1,40.28,14,308.58,308.58,0,0,1,36,18,344.94,344.94,0,0,1,29.7,19.07A320.32,320.32,0,0,1,610,147.12c2.47,2.38,4.85,4.68,7.14,7l6.59,7.11c-5.6-6.27-11.47-12.6-18.41-19.18C596.23,133.25,583.41,124.82,567,114.13Z"/><path class="cls-2" d="M685.05,246.39l-2.76-5.14-1.18-2.19c-.29-.56-.5-.9-.5-.9-5.25-12.91-13-25.45-21.4-37.35q1.47,2.85,3,5.79c4.47,7,5.28,7.68,1.7,1.17,8.31,14.85,15.69,29.06,22.48,44C686.29,250.69,686.87,250.66,685.05,246.39Z"/><path class="cls-2" d="M690.27,260.58l-3.91-8.8a2.62,2.62,0,0,0,0,.37l4,8.76C690.34,260.81,690.3,260.69,690.27,260.58Z"/><path class="cls-2" d="M495.31,73.69c-9.77-3.46-19.63-6.12-29.4-8.58-9.82-2.21-19.58-4.22-29.34-5.48a312.68,312.68,0,0,0-57.85-2.8l-2.06.27c-.66.12-1.31.24-2,.34a42.18,42.18,0,0,1-4.81.43c-3,0-6,.06-9,.19-5.53.65-11,1.39-16.51,2.07l-5.75,1.17-.16,0c-3,.72-2.08.77-.15.63,2.14-.24,4.11-.42,5.79-.54-1.07.08-3.91.4-5.79.54-2.61.3-5.51.69-8.88,1.23-4.93,1.16-10.06,2.52-15.4,3.69,5.88-1.56,11-2.86,15.4-3.69l9.19-1.9,2.64-.62-9.37,1.68c-1.56.31-3.13.51-4.67.9l-4.62,1.08-9.24,2.15c-3.06.81-6.08,1.73-9.13,2.59-2.78.88-5.45,1.64-7.59,2.4-4.29,1.61-8.57,3.21-12.48,4.56-2,.64-3.77,1.41-5.47,2s-3.24,1.12-4.62,1.49l-6.31,2.53,1.26-.37c-1,.33-1.75.61-2.39.88l-13,6c-4.28,2.17-8.52,4.43-12.8,6.66-1.35.76-2.66,1.63-4,2.51l-4,2.62-4,2.63c-1.33.89-2.71,1.7-4,2.66l-5.77,3c-1,.87-2.22,1.87-3.66,3l-2.29,1.71-2.48,2c2.18-1.4,4.39-2.55,6.48-3.69s4.08-2.23,6-3.32a42.36,42.36,0,0,0,4.29-2.68c1.48-1,3-2,4.49-3.12s3.11-2.16,4.75-3.14a23.23,23.23,0,0,1,5.19-2.44,23.23,23.23,0,0,0-5.19,2.44c-1.64,1-3.22,2.06-4.75,3.14s-3,2.14-4.49,3.12a42.36,42.36,0,0,1-4.29,2.68c-1.91,1.09-3.9,2.19-6,3.32s-4.3,2.29-6.48,3.69c-1.78,1.39-3.72,2.86-5.75,4.36l-3.11,2.26L200.23,123l-1.55,1.21c-2.07,1.61-4.17,3.21-6.24,4.74l-3.08,2.25-1.5,1.08-1.43,1.1c1-1.07,2.12-2,3.19-2.93s2.13-1.82,3.17-2.68c2.1-1.73,4.15-3.35,6.15-4.88,4.09-2.94,8.06-5.37,11.73-7.65l2.48-2,2.29-1.71c1.44-1.1,2.67-2.1,3.66-3l5.77-3c1.28-1,2.66-1.77,4-2.66l4-2.63,4-2.62c1.31-.88,2.62-1.75,4-2.51a326.51,326.51,0,0,0-47.48,31.81c-6.2,4.76-11.89,10.08-17.71,15.18l-8.31,8.1-2.07,2c-.69.66-1.37,1.35-2,2.06l-3.93,4.23-3.93,4.22-2,2.11-1.85,2.19-7.41,8.78c-1.27,1.43-2.37,3-3.55,4.5L137.11,185l-3.47,4.55c-1.12,1.54-2.18,3.12-3.27,4.68-2.15,3.14-4.36,6.24-6.46,9.41l-6,9.67c-2.08,3.18-3.85,6.53-5.72,9.84l-2.77,5L108,230.58l-1.27,2.54-5.07,10.18c-.88,1.68-1.61,3.43-2.38,5.17L97,253.67l-2.29,5.21c-.78,1.73-1.38,3.53-2.09,5.29l-4.08,10.64c-1.23,3.59-2.39,7.21-3.59,10.82l-1.77,5.43-1.53,5.51c-1,3.68-2.07,7.34-3,11l-2.52,11.2-.63,2.8c-.22.93-.42,1.87-.57,2.82l-1,5.67-1,5.68c-.31,1.9-.71,3.79-.91,5.7-.93,7.66-2.07,15.32-2.5,23.08-.15,1.94-.29,3.88-.44,5.82l-.22,2.91c-.06,1-.07,1.95-.1,2.92l-.33,11.73-.08,2.95.06,2.94.12,5.9q.06,3,.13,5.92c0,1,0,2,.07,3l.21,3q.4,5.94.82,11.9c.1,2,.4,4,.62,6s.46,4,.7,6,.47,4,.71,6,.64,4,1,6c.68,4,1.31,8,2,12a367.62,367.62,0,0,0,13.8,50.53q2.26,6.09,4.52,12.16l5.06,11.88,1.26,3c.43,1,.93,1.94,1.39,2.9q1.39,2.91,2.8,5.79l2.79,5.78c1,1.91,2,3.77,3,5.65l3,5.62c1,1.87,2,3.76,3.15,5.56l6.59,10.9c2.29,3.57,4.71,7,7,10.57s4.88,6.9,7.37,10.3l3.77,5.08c.61.85,1.27,1.67,1.94,2.48l2,2.45,4,4.88,2,2.44,1,1.22,1,1.17,8.41,9.36c1.36,1.59,2.88,3,4.34,4.53l4.4,4.46a318.65,318.65,0,0,0,79.13,57.73l2.68,1.43,2.74,1.29,5.47,2.59,5.47,2.58c1.84.83,3.72,1.55,5.58,2.33l5.58,2.3,2.79,1.15c.93.38,1.86.76,2.81,1.08l11.37,4,2.84,1,2.88.85,5.78,1.71,5.76,1.71c1.93.57,3.89,1,5.84,1.47,3.9.92,7.78,1.91,11.7,2.78l11.82,2.22c3.92.84,7.92,1.23,11.89,1.8s7.95,1.18,12,1.42l12,1c4,.22,8,.28,12.07.43a323.46,323.46,0,0,0,48.5-2.36,336.47,336.47,0,0,0,95.75-26.72,295.65,295.65,0,0,0,40.44-22.29l2.73-1.77c.9-.6,1.79-1.24,2.69-1.87,1.8-1.26,3.62-2.53,5.44-3.82s3.62-2.64,5.42-4l5.43-4.13c1.8-1.41,3.56-2.89,5.34-4.34s3.6-2.89,5.33-4.43l5.21-4.6,2.61-2.3,2.53-2.39a337.84,337.84,0,0,0,61.47-77.39c1-1.87,2-3.61,2.83-5.33s1.63-3.36,2.38-4.91l2.1-4.43c.64-1.41,1.18-2.76,1.71-4,1-2.54,1.94-4.78,2.68-6.76s1.24-3.73,1.68-5.21c1.71-6,1.54-8,.53-8.07-2-.1-7.38,7.69-8.18,9-5.64,8.5-10.69,16.56-16.21,24.75S654.86,580.2,648,589.45l-5.38,7.07-6,7.33c-1,1.28-2.1,2.53-3.22,3.79l-3.39,3.87c-2.26,2.66-4.79,5.23-7.36,8s-5.35,5.45-8.24,8.27-6,5.6-9.24,8.53c-1.6,1.48-3.31,2.89-5.05,4.34L594.86,645c-1.84,1.45-3.76,2.89-5.69,4.38s-3.9,3-6,4.44c2.84-2,5.06-3.78,6.93-5.14s3.3-2.44,4.36-3.17c2.06-1.53,2.62-1.77,2-1a53.54,53.54,0,0,1-5.48,5.16c-1.46,1.25-3.13,2.75-5.07,4.32l-6.47,5.06A267.27,267.27,0,0,1,543.49,682,236.85,236.85,0,0,1,502.62,699l-6.86,2.05L488.69,703l-3.58,1-3.66.89L474,706.71l-7.6,1.64c-1.27.27-2.55.58-3.84.84l-3.91.71c-2.62.48-5.24,1-7.91,1.46l-8.06,1.25c-10.85,1.5-22.05,2.8-33.54,3.25-1.44.07-2.87.17-4.32.22l-4.34.08-4.35.09c-1.46,0-2.92.08-4.38,0l-8.8-.21c-2.95-.07-5.91-.07-8.86-.35a308.15,308.15,0,0,1-70.82-12.51,276.52,276.52,0,0,1-64.74-28.94l-7.42-4.54-7.36-4.94-3.73-2.5L218.17,661l-1.83-1.35-7.42-5.48c-1.25-.93-2.54-1.81-3.76-2.81l-3.68-3-7.51-6.1-7.38-6.63-3.76-3.39c-1.23-1.17-2.42-2.39-3.65-3.6l-4.69-4.76-2.35-2.38c-.78-.78-1.5-1.64-2.25-2.46-3-3.31-6-6.57-8.87-9.9l-8.41-10.24c-.71-.84-1.37-1.72-2-2.6l-2-2.65-3.94-5.28a348.78,348.78,0,0,1-27.48-44.59q-2.89-5.85-5.77-11.7l-5.22-11.94c-.43-1-.89-2-1.3-3l-1.15-3-2.33-6.08c-.76-2-1.58-4-2.29-6.09l-2-6.19c-1.34-4.13-2.8-8.22-3.87-12.43l-1.74-6.28-.87-3.14c-.3-1.05-.58-2.1-.8-3.16Q88.38,464.4,86.93,458l-.35-1.59-.29-1.61-.56-3.21-1.14-6.44c-.85-4.28-1.32-8.62-1.88-13l-.83-6.5-.2-1.63-.13-1.64-.25-3.27-.51-6.56-.26-3.28-.13-1.64-.05-1.64q-.18-6.6-.38-13.2a358.69,358.69,0,0,1,3.62-53.11q1.11-6.62,2.24-13.28c.85-4.41,1.9-8.8,2.84-13.22l.73-3.32c.26-1.1.59-2.19.87-3.28q.9-3.28,1.79-6.58c.61-2.19,1.17-4.39,1.82-6.58S95.29,289.15,96,287a325.73,325.73,0,0,1,21.48-51.2,377.31,377.31,0,0,1,29.85-48,333.54,333.54,0,0,1,33.81-39.48l6.89-6.25c2.32-2.08,4.61-4.21,7.09-6.12,4.87-3.91,9.66-7.89,14.67-11.33l7.31-5.24,7.28-4.72,3.52-2.28c1.15-.76,2.29-1.51,3.46-2.16l6.69-4,5-3,5.07-2.71,5-2.68c1.66-.86,3.25-1.82,4.93-2.57l9.81-4.72,2.41-1.16c.8-.38,1.63-.7,2.44-1l4.84-2.06,4.78-2,2.37-1c.79-.31,1.6-.6,2.39-.9l9.49-3.53c3.1-1.25,6.3-2.13,9.42-3.16s6.23-2.05,9.35-2.94A303.1,303.1,0,0,0,277.55,85.9,313,313,0,0,0,239.63,105c-9.23,5.55-6.27,3.25.56-1.43.85-.57,1.75-1.23,2.73-1.83L246,99.87,252.55,96,255.83,94l3.22-1.68,5.59-2.86c1.36-.72,3-1.43,4.7-2.13s3.65-1.23,5.54-1.83a107.39,107.39,0,0,0,10.33-3.67c3.14-1.1,6.21-2.22,9.25-3.36L299,76.78l4.64-1.52,9.43-3.14c3.22-1,6.58-1.84,10-2.8,5.93-1.72,5.52-.24,8.5-.93,4.78-1,9.27-2,13.52-3l12.16-2.29c3.83-.83,7.49-1.18,10.95-1.61,1.74-.2,3.43-.37,5.07-.52l2.44-.19c.81-.07,1.6-.09,2.38-.08l13.68,0h1.63l1.62.08,3.22.14,6.31.29c2.64.11,5.27.37,7.93.52s5.37.3,8.15.59c3.45.24,7.05.4,10.64.74a13.28,13.28,0,0,1-4.64-2c1.29.16,2.72.29,4.2.54l4.57.77,4.57.78,2.16.36,2,.4-2-.4L440,63.1l-4.57-.78-4.57-.77c-1.48-.25-2.91-.38-4.2-.54a13.28,13.28,0,0,0,4.64,2,291.54,291.54,0,0,1,40.45,6.55,306.72,306.72,0,0,1,40.64,12.55l-.3-.26c-15.14-6.08-30.19-11.18-46.5-16,3.52,1,5,1.64,4.65,1.69a9.47,9.47,0,0,1-2-.31c-1.12-.24-2.7-.62-4.75-1l-6.1-2.07c14.33,2.58,28.57,6.16,41.18,11.87,0,0,1.51.4,3.35,1L507.51,79c4.24,1.84,3.86,2.19,4.6,2.94l8.89,3.7c-3-1.63-9.25-5-15-7.4-2.85-1.26-5.48-2.49-7.47-3.23Z"/><path class="cls-2" d="M329.07,63.23l7.75-1.55L329,63.08c-2.59.53-5.17,1.18-7.76,1.77l-7.77,1.81c-2.57.65-5.12,1.45-7.68,2.17,1.4-.23,3-.58,4.73-1,.88-.21,1.78-.48,2.72-.69l2.94-.67C320.19,65.53,324.61,64.32,329.07,63.23Z"/></g></g><g id="Logo"><path class="cls-3" d="M1220.8,366.79c1.87,4.89,13,8.6,19.62,3,7.41-6.24,3.62-19.39-1.32-21.41C1232.61,345.73,1218.11,359.78,1220.8,366.79Z"/><path class="cls-4" d="M1219.35,367.18c3.22,6.81,13.72,8.07,19.81,4.81,7.28-3.9,8.57-13.5,4.89-20.37-3.34-6.25-9.37-5.12-14.52-1.64-4.89,3.31-12.22,10.56-10.18,17.2.42,1.36,3.31.58,2.89-.78-2.17-7.09,12.62-22.7,18.32-14.89,3.12,4.27,3.57,11.24.59,15.64-3.91,5.75-15.66,6.12-18.91-.75C1221.63,365.1,1218.76,365.93,1219.35,367.18Z"/><path class="cls-5" d="M1414.83,410.58c-10.3-11.65-39.19-5.26-44.93,9.52-.38,1-2.68,6.91,0,12.15,4.85,9.47,14.95,5,26.81,14.54,9.51,7.62,14.28,19.62,10,25.37-6.64,8.8-28.65-5.48-34.72,3.43-3,4.35.43,12.55,4.6,16.92,9.65,10.11,30.06,6.61,41.36-4.23,1.18-1.14,12.62-12.46,10.21-27-1.71-10.26-9.43-16.51-11.24-18-11.77-9.53-23.51-5.2-27.06-13.21-1.85-4.2-.75-10.14,2-11.63,6.28-3.34,18.62,17.25,24.5,14.27C1420.46,430.71,1421,417.5,1414.83,410.58Z"/><path class="cls-4" d="M1416.19,410.06c-3.79-4.21-9.62-5.86-15.11-6.12a41.72,41.72,0,0,0-18.84,3.66c-5.21,2.33-10.29,5.9-13,11.06-3,5.77-3,13.65,2.41,18,2.46,2,5.62,2.83,8.62,3.64a44.56,44.56,0,0,1,11.48,4.46c6.82,4.12,13,11.13,14.7,19.08.6,2.75.66,6-1.1,8.36-1.32,1.77-3.22,2.23-5.33,2.27-5.76.11-11.39-1.89-17.09-2.47-4.65-.47-11.41,0-13.15,5.32-1.11,3.36.13,7.22,1.65,10.25a20.14,20.14,0,0,0,6.86,8c5.86,3.82,13.38,4.21,20.08,3a41.26,41.26,0,0,0,20.12-9.66c9.17-8.27,14.42-22,9.37-33.78a32.75,32.75,0,0,0-10.78-13.2,35.12,35.12,0,0,0-12-5.48c-3.27-.86-6.8-1.27-9.88-2.73s-4.68-4.48-4.87-7.87a10.8,10.8,0,0,1,1-5.46,5.41,5.41,0,0,1,.64-1c.15-.17.6-.43.67-.61,0,0,.12,0-.15,0h.28c2.08.36,3.84,1.73,5.44,3,2.18,1.79,4.18,3.78,6.24,5.7,3,2.8,7.06,7.26,11.62,5.93,5.56-1.61,5.16-10,4.28-14.4a19.58,19.58,0,0,0-4.23-9c-.53-.61-3.27.4-2.72,1a20.65,20.65,0,0,1,3.84,18.43,7.24,7.24,0,0,1-1.51,2.76c-.52.57-.11-.12.14.11,0,0-.74-.08-.94-.14-2-.6-3.78-2.18-5.34-3.54-3.85-3.35-7.29-7.59-11.79-10.1a7.15,7.15,0,0,0-5.82-.82c-3,.95-4.24,3.84-4.53,6.75-.31,3.17.45,6.68,2.93,8.86,2.19,1.93,5.24,2.59,8,3.23a52.94,52.94,0,0,1,11.28,3.53,32.55,32.55,0,0,1,7.69,5.33c5,4.61,8.68,10.73,9.43,17.57.78,7.13-1.78,14.2-5.83,20-6.81,9.72-18.86,16-30.85,14.63a19.67,19.67,0,0,1-16-11.19c-1.45-3-2.73-7-1.25-10.27a5.09,5.09,0,0,1,4.48-3c5.41-.47,10.94,1.45,16.25,2.2,4.63.66,10.75.9,14.1-3,4-4.74,1.31-12.14-1.46-16.77a35.08,35.08,0,0,0-19-15.18c-3.19-1.07-6.55-1.65-9.67-2.93a11.87,11.87,0,0,1-6.73-6.67c-2.24-5.67.07-12.39,4.1-16.65s9.6-6.82,15.23-8.12,11.67-1.33,17,.77a16.34,16.34,0,0,1,6.2,4.23C1414,411.71,1416.75,410.69,1416.19,410.06Z"/><path class="cls-6" d="M694.35,486.38c5.35,8.49-29,11.15-32.64,11.44-6.86.53-13.75.75-20.63.68-12.93-.15-28.45-1.94-36.51-13.49-4.28-6.13-6.73-23.38-7.8-44.78,0-.48-.06-1-.08-1.45-2.21-46.91,2-112.71,7.88-126,8.66-19.59,32.54-35.24,42.84-1.36,2,6.65,1.61,16-.2,27-5.26,31.58-22.3,76-26.37,104,0,0,0,0,0,0-1.55,10.74-1.2,19.09,2.43,23.43,16.4,19.6,87.5-35.09,69.27-15.95a84.53,84.53,0,0,0-6.25,7.19.76.76,0,0,0-.08.11c-.37.48-.7.94-1,1.4a.21.21,0,0,0,0,.06C677.67,469.63,685.4,472.21,694.35,486.38Z"/><path class="cls-4" d="M693,487c1.37,2.23-.83,3.65-2.62,4.51a45.1,45.1,0,0,1-11.34,3.22A175,175,0,0,1,656,497.25a163.85,163.85,0,0,1-22.92-.1c-6.21-.56-12.55-1.8-18.09-4.79-4.7-2.53-8.84-6.38-10.82-11.4-2-5.18-3-10.82-3.74-16.3-2.09-14.71-2.6-29.66-2.8-44.5q-.27-21.11.66-42.2c.54-12.6,1.34-25.2,2.67-37.74.88-8.3,1.72-16.9,4.13-24.93a40.92,40.92,0,0,1,14.33-19.46c2.94-2,6.43-3.55,10.06-3.32,4.12.27,7.54,2.78,10,5.91a37.85,37.85,0,0,1,7.26,16.85c1.25,7.48.28,15.31-.93,22.73-2.21,13.54-5.92,26.82-9.69,40-3.95,13.81-8.19,27.54-11.8,41.44-1.58,6-3,12.12-4.16,18.26-1.18,6.48-2.16,13.2-1.48,19.78.44,4.24,1.83,8.47,5.41,11a15.56,15.56,0,0,0,7.7,2.56c7.05.62,14.26-1.56,20.81-3.92a183.87,183.87,0,0,0,22-9.89c5.6-2.89,11.07-6,16.69-8.88.83-.42,1.67-.83,2.52-1.21l.48-.2c.26-.1.47-.16.14-.06.3-.09.9-.12.34-.13.31,0,0,0-.1,0,.11,0-.32-.08-.39-.13a.76.76,0,0,1-.21-.25c0-.07,0,0,0-.05s0,.09,0,.1.11-.25,0-.09a3,3,0,0,1-.16.31l-.23.34c-.19.28,0,0-.2.26C688.16,453.75,677,462,682,471.49a45.07,45.07,0,0,0,4.46,6.38c2.29,3,4.52,5.95,6.53,9.12.62,1,3.41-.05,2.67-1.22-2.1-3.31-4.46-6.44-6.86-9.54a31.36,31.36,0,0,1-4.44-6.63c-2.31-5.38,1.57-10.44,4.9-14.41,1.78-2.12,3.72-4.08,5.56-6.14a16.62,16.62,0,0,0,1.67-2.07c.82-1.3.21-2.29-1.39-2.12a14.65,14.65,0,0,0-4.66,1.8c-2.42,1.22-4.79,2.52-7.17,3.8-6.76,3.66-13.56,7.29-20.55,10.5s-14.41,6.29-22,7.68c-5.2.94-11.72,1.32-15.7-2.9s-3.81-10.91-3.5-16.17a123.6,123.6,0,0,1,3-19.3c3.07-13.85,7.19-27.45,11.17-41.06,4.06-13.88,8.17-27.77,11.2-41.92a134.4,134.4,0,0,0,3.23-22.3,51,51,0,0,0-.46-10.33,40.73,40.73,0,0,0-3-9.59c-2-4.72-4.89-9.46-9.34-12.24A15.47,15.47,0,0,0,625.84,291c-8.73,1.83-15.68,9.34-20.07,16.7a36.52,36.52,0,0,0-4.09,9.58,110.76,110.76,0,0,0-2.2,11.57c-1.7,11.48-2.63,23.08-3.35,34.66q-1.33,21.28-1.47,42.62c-.11,14.59.14,29.21,1.23,43.77A188.78,188.78,0,0,0,598.6,472c.88,4.49,1.89,9.44,4.44,13.34,7.19,11,21.67,13.55,33.8,14a207.82,207.82,0,0,0,32.8-1.39,128.51,128.51,0,0,0,13.07-2.15c3.7-.83,7.69-1.82,10.89-3.95,2.17-1.44,3.59-3.63,2.08-6.1C695.08,484.79,692.29,485.8,693,487Z"/><path class="cls-7" d="M831.23,409.76c-10.3-11.65-39.19-5.26-44.93,9.52-.39,1-2.69,6.91,0,12.15,4.85,9.47,15,5,26.8,14.54,9.51,7.62,14.29,19.63,10,25.37-6.64,8.8-28.66-5.48-34.72,3.43-3,4.35.43,12.55,4.6,16.92,9.65,10.11,30.06,6.61,41.35-4.23,1.19-1.14,12.63-12.46,10.22-27-1.71-10.26-9.43-16.51-11.24-18-11.77-9.52-23.51-5.19-27.06-13.21-1.85-4.19-.75-10.14,2-11.63,6.29-3.34,18.63,17.25,24.51,14.27C836.85,429.89,837.34,416.68,831.23,409.76Z"/><path class="cls-4" d="M832.58,409.21c-3.82-4.25-9.63-5.87-15.17-6.18a40.67,40.67,0,0,0-18.73,3.61c-5.24,2.37-10.34,6-13.06,11.17-3,5.8-3,13.69,2.43,18.08,2.46,2,5.57,2.84,8.58,3.66A45.52,45.52,0,0,1,808,443.89c6.9,4,13.14,11.18,14.88,19.15.6,2.74.65,5.95-1.12,8.3-1.3,1.73-3.27,2.19-5.34,2.23-5.76.11-11.38-1.87-17.09-2.45-4.73-.48-11.36,0-13.13,5.37-1.11,3.37.13,7.25,1.65,10.28a20.34,20.34,0,0,0,6.88,8c5.86,3.84,13.37,4.29,20.1,3.06A40.76,40.76,0,0,0,835,488.11c9.09-8.37,14.37-21.92,9.3-33.8a32.69,32.69,0,0,0-10.79-13.22,35.22,35.22,0,0,0-11.87-5.49c-3.3-.89-6.85-1.29-10-2.76s-4.67-4.42-4.85-7.81a10.42,10.42,0,0,1,1.07-5.49,4.86,4.86,0,0,1,1.3-1.48c-.06.05.16,0-.15.05a.73.73,0,0,1,.35,0c1.95.16,3.88,1.78,5.34,3,2.18,1.78,4.19,3.77,6.24,5.69,2.94,2.76,7.12,7.33,11.64,6,5.55-1.61,5.12-10.14,4.25-14.5a19.63,19.63,0,0,0-4.23-9.06c-.6-.7-3.37.32-2.7,1.1a20.56,20.56,0,0,1,3.82,18.37,6.16,6.16,0,0,1-1.49,2.69c-.05,0-.27.26-.13.12-.15.15.2,0,0,0h-.15a3.57,3.57,0,0,1-.55-.11c-2-.55-3.79-2.17-5.33-3.51-3.87-3.36-7.32-7.53-11.81-10.12a7.09,7.09,0,0,0-5.82-.88c-2.93.95-4.24,4-4.51,6.83-.3,3.19.46,6.73,3,8.92,2.19,1.93,5.19,2.61,7.95,3.26a54.14,54.14,0,0,1,11.33,3.53,31.69,31.69,0,0,1,7.68,5.3c5,4.6,8.67,10.7,9.42,17.54.78,7.13-1.8,14.15-5.84,19.93a32.77,32.77,0,0,1-10.4,9.75c-6.06,3.58-13.39,5.63-20.45,4.85a21,21,0,0,1-9.29-3.16,19.7,19.7,0,0,1-6.71-7.95c-1.44-3-2.75-7-1.24-10.24a5.24,5.24,0,0,1,4.63-2.91c5.37-.46,10.85,1.45,16.11,2.19,4.69.67,10.7.93,14.09-3,4.05-4.75,1.3-12.2-1.47-16.83a35.14,35.14,0,0,0-19-15.23c-3.19-1.07-6.55-1.66-9.67-2.93a11.84,11.84,0,0,1-6.72-6.61c-2.23-5.67.09-12.37,4.12-16.6s9.64-6.77,15.24-8.06,11.68-1.39,17,.71a16.26,16.26,0,0,1,6.2,4.2C830.5,411,833.26,410,832.58,409.21Z"/><path class="cls-8" d="M947,362.68l.08,0Z"/><path class="cls-4" d="M947.52,363l.08,0-.38.12h0a3.58,3.58,0,0,0,.55-.19,2.58,2.58,0,0,0,.44-.22.64.64,0,0,0,.26-.23.23.23,0,0,0,.08-.21l-.09-.1a.78.78,0,0,0-.42-.11h-.32a4.58,4.58,0,0,0-.74.13l-.41.13-.06,0a2.81,2.81,0,0,0-.47.21,1.85,1.85,0,0,0-.34.23.26.26,0,0,0-.12.22c0,.07,0,.13.07.18l.18.07a2.09,2.09,0,0,0,.56,0l.36,0a5.16,5.16,0,0,0,.77-.21l.08,0-.38.12h0l-.24-.92-.47.15a2.81,2.81,0,0,0-.47.21,1.85,1.85,0,0,0-.34.23.26.26,0,0,0-.12.22c0,.07,0,.13.07.18l.18.07a2.09,2.09,0,0,0,.56,0l.36,0A5.16,5.16,0,0,0,947.52,363Z"/><path class="cls-9" d="M914.75,440.12c-1.12,9.06-1.78,18.19-2.12,27.31-.41,10.84-2.75,25.77,10.26,30.06,7.33,2.42,18.26.45,23.86-5,2.79-2.74,4.36-6.49,5.41-10.25,5.43-19.38,1.45-41.81-1.71-61.26-1.34-8.23-2.94-16.41-4.25-24.64a177.69,177.69,0,0,1-2.44-26.45,13.73,13.73,0,0,1,.93-5.41,3.6,3.6,0,0,1,1.63-1.46l.5-.23.2-.07-.17.06c5.53-2.42,11.82-2.52,18.18-1.74,7.65.95,15.13,2.11,22.68-.09,7.34-2.13,13.77-6.77,19.59-11.6,8-6.65,15.52-14.15,20.93-23.08,6.1-10.07,13.93-30.46,1.65-39.14a22,22,0,0,0-11.87-3.7c-14.06-.74-28.17,1.78-41.73,5.31-6.93,1.8-13.77,3.92-20.55,6.19-5.75,1.93-11.68,3.75-15.8,8.53a22.51,22.51,0,0,0-3.49,6.63,108.11,108.11,0,0,0-3.56,11.3c-1.32,5-2.47,10-3.52,15-1.25,5.94-2.37,11.9-3.41,17.87-1.16,6.58-2.22,13.17-3.22,19.77q-1.56,10.38-2.92,20.77t-2.56,20.83q-1.14,10-2.09,20c-.15,1.51-.29,3-.43,4.52m94.72-125.61c-.53,3.75-2.4,7.16-4.51,10.3A55.65,55.65,0,0,1,991.5,338.9c-6.3,4.53-13.64,7.42-21.54,7.23a21.4,21.4,0,0,1-11.57-3.27A12.62,12.62,0,0,1,952.78,331a19.39,19.39,0,0,1,2.64-7.47c7-12.17,21.82-18.73,35-21.44,4.35-.89,9.22-1.92,13.38.24S1010.09,309.87,1009.45,314.51Z"/><path class="cls-4" d="M913.29,440.25c-1.08,8.75-1.74,17.54-2.09,26.34-.21,5.46-.78,11-.23,16.41.5,5,2.23,10,6.45,13.1,4.89,3.58,11.62,3.94,17.39,2.91,6.4-1.13,12.62-4.16,16-9.94a35.57,35.57,0,0,0,3.66-10.38A77.48,77.48,0,0,0,956.1,467c1-16-1.82-32.09-4.44-47.85-1.46-8.79-3.2-17.53-4.49-26.35-.64-4.38-1.17-8.79-1.52-13.2-.17-2.29-.3-4.58-.37-6.88a30.52,30.52,0,0,1,.17-5.89c.26-1.59.6-2.73,2.19-3.33.51-.19,1.1-.84.71-1.39s-1.41-.35-2-.15l-.17.06,1.24,1.54c6.2-2.64,12.91-2,19.43-1.23s13.16,1.45,19.64-.09c6.07-1.44,11.61-4.63,16.61-8.29A123.49,123.49,0,0,0,1017,342.07c7.37-7.28,13.59-15.69,17.4-25.37,3-7.69,5.49-17.47,1.31-25.22-2.33-4.32-6.77-7.07-11.45-8.24a40.23,40.23,0,0,0-9.28-.94c-3.4-.05-6.81.06-10.2.33-13.59,1.06-27,4.38-40,8.37-5.83,1.79-11.88,3.47-17.46,6a26.4,26.4,0,0,0-7.17,4.61,19.24,19.24,0,0,0-4.62,7.18,133.55,133.55,0,0,0-5.63,18.79c-1.62,6.8-3,13.66-4.27,20.54-5,27.21-8.63,54.73-11.4,82.27-.33,3.29-.64,6.58-1,9.88-.13,1.39,2.81.94,2.92-.27,2.46-26.47,5.71-52.89,10.07-79.12,2.18-13.14,4.56-26.3,8-39.18.87-3.28,1.79-6.54,2.93-9.73,1-2.67,1.93-5.6,3.72-7.85,3.44-4.34,8.9-6.23,14-7.93C967.33,292,980,288.18,993,286a118.13,118.13,0,0,1,19.68-1.77c5.9,0,12,.35,16.81,4.21,6.85,5.51,6,15.41,3.83,23a64.92,64.92,0,0,1-13.63,24.44A110.12,110.12,0,0,1,1007,348.18c-4.54,3.79-9.3,7.46-14.69,10-6,2.78-12.2,3.36-18.7,2.8-6.33-.54-12.59-1.86-19-1.16a29.59,29.59,0,0,0-8.43,2.18c-.51.22-1.12.83-.72,1.39s1.42.35,2,.15l.17-.06-1.24-1.54a5.67,5.67,0,0,0-3.09,2.41,11.49,11.49,0,0,0-1,4.7,93.22,93.22,0,0,0,.52,12.28c.72,8.58,2.13,17.07,3.64,25.54,2.81,15.87,6,31.91,6.77,48.05a92.69,92.69,0,0,1-1.52,23.22,36.12,36.12,0,0,1-3.47,10.37,15.69,15.69,0,0,1-6.88,6.49,24.11,24.11,0,0,1-17.64,1.61c-5.11-1.69-8.19-5.78-9.34-10.93s-.71-10.48-.44-15.68c.42-7.9.75-15.79,1.54-23.66.22-2.11.45-4.22.71-6.33.17-1.37-2.77-.93-2.92.27Z"/><path class="cls-4" d="M1008,314.65c-.83,5.37-4.18,10.15-7.56,14.28a51.39,51.39,0,0,1-11.6,10.57A33.91,33.91,0,0,1,974.36,345c-5.08.58-10.72,0-15-3a12.15,12.15,0,0,1-4.92-12.37c1-4.75,4-9,7.38-12.43,6.33-6.43,14.88-10.41,23.47-12.82,2.44-.69,4.92-1.24,7.41-1.71,2.79-.53,5.77-.93,8.54-.06,5,1.58,7.37,7.12,6.74,12.08-.17,1.37,2.78.93,2.93-.27.58-4.66-1.13-9.74-5.19-12.36-4.83-3.13-11-1.78-16.21-.66-9.76,2.1-19.6,6-27.29,12.48-7.36,6.24-15.5,18-7.94,27.13,3.55,4.29,9.37,5.92,14.74,6.12a35.6,35.6,0,0,0,16.6-3.55,50,50,0,0,0,15.5-11.9c4.31-4.82,8.78-10.71,9.79-17.26C1011.12,313,1008.17,313.44,1008,314.65Z"/><path class="cls-10" d="M1160.26,346.91c-3.61-5.11-10.37-6.79-16.6-7.47q-3.37-.36-6.8-.48c-17.35-.63-40.27,2.53-53,15.67-8.82,9.12-11.92,22.72-15.63,34.43q-2.31,7.33-4.37,14.71c-1.44,5.14-2.79,10.3-4.09,15.47s-2.52,10.35-3.68,15.54q-1.66,7.46-3.14,14.93v0c-.26,1.12-.5,2.24-.7,3.35-.09.54-.18,1.07-.26,1.61-.94,6.07-1.8,12.2-2.88,18.23-1,5.62-2.59,11.37.26,16.77,2.39,4.55,7.39,7.25,12.45,8.14,8.5,1.5,19.77.94,26.41-5.29,9.5-8.89,7.52-26.65,6.14-38.3-1.46-12.38-4.12-24.59-6-36.89-.24-1.57-.47-3.14-.67-4.71-.17-1.41-.33-2.83-.44-4.24-.09-1.24-.16-2.48-.16-3.71a24.68,24.68,0,0,1,.18-3.1,10.2,10.2,0,0,1,.58-2.41,3.64,3.64,0,0,1,1.49-2,26.83,26.83,0,0,1,6.18-1.29c8.32-.74,16.66,1.52,25,.24,18.64-2.88,41-18.57,42.33-39A15.88,15.88,0,0,0,1160.26,346.91ZM1130.77,379a45.36,45.36,0,0,1-14.74,7.29,36.39,36.39,0,0,1-10.17,1.34,18.63,18.63,0,0,1-7.43-1.43,9.91,9.91,0,0,1-5.26-5.24c-3.28-8.53,8.49-17.4,14.59-21.29a49.65,49.65,0,0,1,17.53-7c5.24-1,12.29-1.6,15.29,4C1145.12,365.25,1137.24,374.26,1130.77,379Z"/><path class="cls-4" d="M1161.71,346.52c-4.43-6.1-12.52-7.31-19.53-7.88a109.76,109.76,0,0,0-21.67.42c-13.6,1.59-28.51,5.71-38.21,16-5.22,5.52-8.41,12.53-10.88,19.63-2.71,7.78-5,15.76-7.34,23.66-2.69,9.19-5.11,18.46-7.34,27.77-2.17,9.09-4.31,18.25-5.94,27.45-.79,4.5-1.37,9-2.09,13.55s-1.74,8.75-2.23,13.17c-.47,4.19.08,8.45,2.77,11.84a17.6,17.6,0,0,0,8.81,5.66,37,37,0,0,0,10.15,1.34,40.79,40.79,0,0,0,10.67-1.21c6.5-1.67,12.11-5.37,15-11.54,2.83-5.94,3.24-12.83,3-19.31a178,178,0,0,0-2.38-22.2c-1.48-9.47-3.4-18.87-4.85-28.35a67.48,67.48,0,0,1-1.16-13.74,14.19,14.19,0,0,1,.49-3.24,5.93,5.93,0,0,1,.52-1.28,3.92,3.92,0,0,1,.39-.58c.06-.08.64-.52.32-.34a10,10,0,0,1,3.12-.71,28.34,28.34,0,0,1,3.79-.31c4.74-.11,9.45.55,14.18.73a46.14,46.14,0,0,0,12.12-1,61.83,61.83,0,0,0,18.35-7.47c11.06-6.71,21.06-17.52,22.34-30.93a16.59,16.59,0,0,0-2.48-11.06c-.47-.68-3.1.47-2.9.78,4.07,6,2.78,13.95.11,20.22a42.7,42.7,0,0,1-11.44,15.22,56.53,56.53,0,0,1-16.82,10.15,49.34,49.34,0,0,1-8.67,2.49,51.34,51.34,0,0,1-13,.23,74.36,74.36,0,0,0-13.26-.27,31.93,31.93,0,0,0-6,1.25,4.62,4.62,0,0,0-3.37,3.25c-1.28,3.88-.6,8.51-.12,12.48.54,4.49,1.3,9,2.08,13.42,1.58,9,3.34,18.07,4.5,27.18a125.64,125.64,0,0,1,1.35,19.28c-.19,6.2-1.23,12.82-4.95,18-4.12,5.69-11,7.67-17.76,7.78s-14.59-1-19.14-6.53c-2.61-3.19-3.28-7.28-2.92-11.29.39-4.31,1.46-8.58,2.15-12.86.72-4.45,1.33-8.92,2-13.37s1.73-8.77,2.65-13.12q2.83-13.32,6.24-26.5T1070,387.9c2.18-7,4.07-14.06,7.06-20.74s7-12.44,12.86-16.74a52.87,52.87,0,0,1,18.33-8.23,93,93,0,0,1,20.41-2.69c7.17-.2,14.86-.17,21.74,2.06a16.55,16.55,0,0,1,8.46,5.74C1159.31,348,1161.91,346.8,1161.71,346.52Z"/><path class="cls-4" d="M1129.46,379.14a42.52,42.52,0,0,1-12.92,6.57c-4.79,1.41-10.38,2.07-15.24.59-3.88-1.19-7.16-4.36-7.24-8.59-.07-3.48,2-6.71,4.2-9.24a49.46,49.46,0,0,1,19-13,39.58,39.58,0,0,1,12.09-2.75c3.43-.16,7.13.6,9.21,3.58,5.83,8.39-2.65,18.06-9.14,22.88-.54.41.48.46.68.45a3.86,3.86,0,0,0,1.94-.69c6.51-4.84,14.61-13.93,10-22.55-1.89-3.48-5.57-4.73-9.33-4.84a41.73,41.73,0,0,0-13.28,2.24,54.45,54.45,0,0,0-22.86,14c-2.56,2.69-5,6-5.36,9.77-.43,4.49,2.74,8.1,6.78,9.6,5.65,2.1,12.49,1.22,18.16-.35a49.28,49.28,0,0,0,15.94-7.83c.55-.4-.49-.45-.68-.44A3.78,3.78,0,0,0,1129.46,379.14Z"/><path class="cls-11" d="M743,426.11c-19.63,0-35.54,16.21-35.54,36.2s15.91,36.2,35.54,36.2,35.55-16.21,35.55-36.2S762.59,426.11,743,426.11Zm4.75,49.94c-7.8,0-14.13-5.67-14.13-12.67s6.33-12.66,14.13-12.66,14.13,5.67,14.13,12.66S755.51,476.05,747.71,476.05Z"/><path class="cls-4" d="M748.3,475.32c-5.19-.06-10.35-3-12.39-7.91a11.47,11.47,0,0,1,3.32-13.14c8.25-6.88,22.94.1,21,11.28a12.07,12.07,0,0,1-11.93,9.77c-.55,0-1.63.2-1.92.75s.25.71.74.7c6-.07,12.32-3,15-8.6A12.3,12.3,0,0,0,758,453.06c-5.12-3.79-12.25-3.91-17.87-1.17-5.19,2.53-8.88,7.93-7.86,13.84,1.22,7,8.16,11,14.82,11,.55,0,1.64-.21,1.92-.75S748.79,475.33,748.3,475.32Z"/><path class="cls-4" d="M743.55,425.38a38,38,0,0,0-35.18,24.06,37.24,37.24,0,0,0,10.74,41.43c11.91,9.93,29.3,10.95,42.57,3.09a37.46,37.46,0,0,0,17.66-38.79,36.67,36.67,0,0,0-30-29.34,38.6,38.6,0,0,0-5.78-.45c-.55,0-1.64.21-1.92.75s.25.7.74.71c14.51.07,27.53,9.71,32.47,23.25,5,13.7,1.23,29.76-9.78,39.45a32.55,32.55,0,0,1-18.75,8.14,33.87,33.87,0,0,1-20.68-5.1,36.5,36.5,0,0,1-16.19-37.06c2.5-13.85,13.37-25.88,27.49-28.24a33.17,33.17,0,0,1,5.44-.44c.55,0,1.63-.21,1.92-.76S744,425.38,743.55,425.38Z"/><path class="cls-12" d="M1324.62,426.11c-19.63,0-35.55,16.21-35.55,36.2s15.92,36.2,35.55,36.2,35.54-16.21,35.54-36.2S1344.25,426.11,1324.62,426.11Zm4.75,49.94c-7.81,0-14.13-5.67-14.13-12.67s6.32-12.66,14.13-12.66,14.13,5.67,14.13,12.66S1337.17,476.05,1329.37,476.05Z"/><path class="cls-4" d="M1329.48,474.94c-5-.06-10.17-3-12-7.82a11,11,0,0,1,3.79-12.72,13.62,13.62,0,0,1,14.59-.85,11.52,11.52,0,0,1,6,12.21c-1.17,5.74-6.76,9.12-12.32,9.18-1.68,0-2.2,2.24-.23,2.21,6.08-.07,12.35-3.36,14.76-9.16a12.89,12.89,0,0,0-4.56-15.25,17.24,17.24,0,0,0-18-1.11c-5.19,2.8-8.62,8.44-7.41,14.42,1.43,7.06,8.46,11,15.23,11.1C1330.94,477.17,1331.44,475,1329.48,474.94Z"/><path class="cls-4" d="M1324.73,425A37.47,37.47,0,0,0,1301,491.2a37.08,37.08,0,0,0,42.67,3,37.94,37.94,0,0,0,17.25-39.35,37.18,37.18,0,0,0-30.36-29.4,39.28,39.28,0,0,0-5.84-.44c-1.69,0-2.19,2.21-.23,2.22,14.39.07,27.33,9.7,32.11,23.18,4.85,13.68.91,29.58-10.21,39a33.52,33.52,0,0,1-39.35,2.83,36,36,0,0,1-15.86-36.95c2.63-13.85,13.8-25.4,27.85-27.66a35.57,35.57,0,0,1,5.46-.42C1326.19,427.21,1326.7,425,1324.73,425Z"/><path class="cls-13" d="M1003.84,420.93a29.35,29.35,0,0,0-14,3.55c-7.93,4.65-10.74,13.35-13,21.72-3.48,12.95-4.54,28-1,41.05a16.07,16.07,0,0,0,2.74,6c2.56,3.17,6.82,4.47,10.88,4.83,6.13.54,12.41.48,18.56.45,6.77,0,13.54-.25,20.31-.45a5.15,5.15,0,0,0,3.41-.94,4,4,0,0,0,1.05-2.11c1.61-7.14-3.75-9.28-9.72-8.47-10.62,1.45-27.84-2-31.65-13.1-.79-2.32-1.11-5,.12-7.14,2.79-4.84,10.83-3.91,15.53-4,6-.09,12.25-.12,17.75-2.85a18.56,18.56,0,0,0,8.35-8.13,19.16,19.16,0,0,0-.73-17.88,24.48,24.48,0,0,0-11.82-9.86,39.27,39.27,0,0,0-15.33-2.69C1004.87,420.9,1004.35,420.91,1003.84,420.93Zm5.36,31.4c-7.85,0-14.2-3.76-14.19-8.34s6.39-8.29,14.24-8.27,14.19,3.76,14.18,8.34S1017.05,452.35,1009.2,452.33Z"/><path class="cls-4" d="M1004,420c-5.72.23-11.55,1.46-16.33,4.75A26.11,26.11,0,0,0,978.88,436a78.38,78.38,0,0,0-4.43,14.4A90.5,90.5,0,0,0,972.28,468a70.9,70.9,0,0,0,1.66,17.55,22.25,22.25,0,0,0,2.9,7.66,12.6,12.6,0,0,0,5.84,4.41,25.9,25.9,0,0,0,7.79,1.53c3.17.24,6.35.32,9.53.35,6.45.05,12.9,0,19.34-.21,3.2-.08,6.45-.05,9.65-.29,2.65-.19,4.71-1.41,5.35-4.1.94-3.91-.5-7.55-4.45-8.85-3.74-1.24-7.69-.06-11.52-.1a41.26,41.26,0,0,1-12-1.85,23.81,23.81,0,0,1-10.33-6c-2.75-2.93-5.6-8.74-2.58-12.38,2.46-3,7.57-2.5,11-2.46,5.2.07,10.57.06,15.66-1.15a22.2,22.2,0,0,0,13.1-8.38,19,19,0,0,0,3-14.76c-2.23-11.12-13.19-17.16-23.62-18.58A51.22,51.22,0,0,0,1004,420c-1.55.05-2.31,1.93-.33,1.87,10.43-.34,22.28,2.76,27.71,12.52a18.76,18.76,0,0,1,1.4,14.72,17.11,17.11,0,0,1-10.11,10.35c-4.92,1.93-10.53,1.93-15.75,1.92-3.86,0-7.86-.29-11.58,1a9.43,9.43,0,0,0-4.51,3,8,8,0,0,0-1.3,6.46,15.69,15.69,0,0,0,5.85,9.27c6,4.8,14.29,6.59,21.78,6.69a39.26,39.26,0,0,0,5.31-.25,13.12,13.12,0,0,1,5.44.16,5,5,0,0,1,3.39,2.87,6.32,6.32,0,0,1,.4,2.62c0,1.05-.16,2.93-1.08,3.61s-2.59.34-3.53.37l-4.95.14c-3.18.09-6.36.18-9.54.22-6,.09-12.1.16-18.14-.12-5-.24-10.85-.49-14.33-4.64a17.25,17.25,0,0,1-3.08-7.18,62.65,62.65,0,0,1-1.46-8.28c-1.21-11.08.26-22.33,3.25-33A46.06,46.06,0,0,1,984,431.7a20.21,20.21,0,0,1,11.58-8.65,34.09,34.09,0,0,1,8.1-1.18C1005.22,421.8,1006,419.92,1004,420Z"/><path class="cls-4" d="M1009.73,451.39c-4.26-.05-9.67-1.08-12.31-4.83-2.32-3.29.15-6.65,3.26-8.17a20,20,0,0,1,14.76-.67c3.14,1.07,7.41,3.78,6.37,7.72-1.23,4.7-8,5.92-12.08,5.95-.64,0-1.59.18-1.9.84s.24,1,.84,1c5.27,0,11.93-1.36,15.12-6,2.79-4.1-.31-8.27-4.1-10.21a23.85,23.85,0,0,0-18.08-1c-3.89,1.34-9.1,4.67-7.9,9.54.62,2.5,2.85,4.32,5,5.44a22.35,22.35,0,0,0,9.92,2.23,2.09,2.09,0,0,0,1.9-.84C1010.85,451.83,1010.32,451.39,1009.73,451.39Z"/><path class="cls-14" d="M1254.65,317.67c-52.5,50.75-69.94,145.22-40.37,172.42a34,34,0,0,0,14.18,7.64c24.41,5.93,51.59-19.79,49.11-25.1-2.37-5.07-29.63,12.87-42.56,2.18-19.23-15.9-2-91.2,37.11-105.85,25.64-9.6,49.1,11.16,67.65-4.37,10.34-8.65,15.21-25.25,9.83-31.64-10.93-13-60.47,20.36-70.94,7.63-8.05-9.78,14.36-37.89,8.73-42.55C1283.43,294.74,1267.84,304.92,1254.65,317.67Z"/><path class="cls-4" d="M1253.47,317.36a169.14,169.14,0,0,0-27.32,34.95,204.25,204.25,0,0,0-18.3,40.11,183.24,183.24,0,0,0-8.7,39.88c-1.11,11.45-1.07,23.24,1.45,34.51,2,8.7,5.56,17.56,12.2,23.75a33.61,33.61,0,0,0,17.41,8.54c7.15,1.12,14.43-.15,21.16-2.65A63.55,63.55,0,0,0,1269,486.22c3.55-2.88,7.52-6.38,9.49-10.61.49-1.07,1-2.54.35-3.65s-2.54-1.23-3.82-1.13a29.62,29.62,0,0,0-6,1.37c-2.67.81-5.32,1.7-8,2.49-5.58,1.66-11.59,3.25-17.46,2.5a14.41,14.41,0,0,1-10.56-6.77,29.81,29.81,0,0,1-3.81-11.19,64.16,64.16,0,0,1-.5-14.72,109.9,109.9,0,0,1,8.21-34.12c4.51-10.95,10.69-21.52,19.2-29.85a49.81,49.81,0,0,1,13.26-9.5c7-3.34,14.7-4.24,22.4-3.62s15.32,2.58,23,3.57c7,.89,14.25.76,20.64-2.47,6.68-3.37,11.76-9.45,14.82-16.2,2.37-5.23,4.44-12.38,1.88-17.93-3.77-8.19-15.83-5.28-22.53-3.55-10.81,2.8-21.12,7.23-31.91,10.07-5.87,1.54-17.57,4.51-19.21-4.23-.92-4.85,1.23-10.23,3-14.64,2.06-5.14,4.57-10.08,6.56-15.24.94-2.43,3.16-7.46.42-9.53-1.63-1.23-4.09-.8-5.91-.29a35.35,35.35,0,0,0-8.61,4.07,118.67,118.67,0,0,0-20.54,16.31c-.47.45-.26,1,.32,1.17a2.31,2.31,0,0,0,2-.55,112.06,112.06,0,0,1,20.89-16.43c2.26-1.31,4.83-2.79,7.45-3.18,1.23-.18,2.26.1,2.58,1.45a9.37,9.37,0,0,1-.64,4.67,63.53,63.53,0,0,1-2.6,6.62c-2.25,5.13-4.72,10.19-6.46,15.52-1.31,4-2.69,9.17-.62,13.18,1.64,3.18,5.08,4.37,8.45,4.59,4.47.3,9-.72,13.3-1.85,5.28-1.38,10.45-3.17,15.61-4.93s10.41-3.56,15.72-5c4.11-1.1,8.48-2.14,12.76-1.79,3.65.31,6.53,2.15,7.57,5.82,1.73,6.11-.81,13.23-3.81,18.51-3.56,6.27-9,11.75-16.16,13.63-6.78,1.78-14,.48-20.75-.74-7.64-1.38-15.29-2.9-23.09-2.65a45.34,45.34,0,0,0-20.45,5.59c-9.86,5.44-17.58,14.23-23.46,23.71a112.5,112.5,0,0,0-13.57,33c-2.44,10.1-3.79,20.83-2.37,31.18,1.08,7.85,4.19,16.4,12.32,19.23,5.53,1.93,11.76,1,17.33-.23,5.34-1.23,10.46-3.19,15.74-4.61a20.72,20.72,0,0,1,2.54-.56c.35-.05.83-.09.87-.09a1.84,1.84,0,0,1,.66.07.76.76,0,0,1,.56.56,2.4,2.4,0,0,1-.11,1.41,13.35,13.35,0,0,1-2.6,4.3,42.91,42.91,0,0,1-5.45,5.5c-9.84,8.47-23.83,15.23-37.09,12.77-10.54-2-18.86-9.4-23.35-18.9-4.36-9.2-5.89-19.63-6.17-29.72a151.62,151.62,0,0,1,4-37.43,201.1,201.1,0,0,1,13.63-40.08,189,189,0,0,1,22.65-37.43A153.09,153.09,0,0,1,1255.84,318c.46-.46.26-1-.32-1.17A2.28,2.28,0,0,0,1253.47,317.36Z"/><line class="cls-15" x1="1228.47" y1="435.04" x2="1228.47" y2="435.04"/><path class="cls-4" d="M1227.6,435.9h0a1.48,1.48,0,0,0,.51.05,1.89,1.89,0,0,0,.58-.08,2.11,2.11,0,0,0,.54-.22,1.48,1.48,0,0,0,.42-.3l.18-.22a.61.61,0,0,0,.08-.47l-.11-.21a.85.85,0,0,0-.47-.26h0a1.25,1.25,0,0,0-.51-.05,2.27,2.27,0,0,0-1.11.3,1.37,1.37,0,0,0-.42.29l-.19.23a.6.6,0,0,0-.08.47l.11.21a.91.91,0,0,0,.47.26Z"/><path class="cls-16" d="M1132.42,474.47c3.6,15.42,16.23,27.72,32.73,22.45a49.27,49.27,0,0,0,23.23-16.84,13.57,13.57,0,0,0,1.41-2.63,2.84,2.84,0,0,0,.26-2.28c-.64-1.45-2.76-1.15-4.24-.6l-11.74,4.29c-4,1.45-8.37,2.9-12.32,1.4-3.11-1.18-5.33-4-6.53-7.13-3-7.72-1.58-16.22.07-24.05,3.38-16.13,11.06-29.83,18.61-44.25,1.48-2.83,2.63-9.23-2.67-8.32a25.12,25.12,0,0,0-12.74,6.94c-14.67,14-24.84,36.34-27,56.45A44,44,0,0,0,1132.42,474.47Z"/><path class="cls-4" d="M1131,474.86c1.92,8.06,6.38,16,13.56,20.46,7.7,4.81,16.78,4.17,24.86.66a51.93,51.93,0,0,0,13.22-8.35,49.35,49.35,0,0,0,5.4-5.42c1.45-1.72,3.53-4.13,3.63-6.51.2-5.13-10.24-.18-12,.46-2.91,1.07-5.81,2.24-8.77,3.15s-5.85,1.36-8.63,0c-4.78-2.29-6.56-8.21-7.11-13.06-.64-5.7.35-11.43,1.51-17,2.32-11.17,6.83-21.63,12-31.77,1.27-2.52,2.58-5,3.9-7.53a60.83,60.83,0,0,0,3.29-6.43c.85-2.2,1.7-6.35-1.13-7.53-1.84-.77-4.19-.08-6,.46a26.87,26.87,0,0,0-6.87,3.25A50,50,0,0,0,1151.16,410a95.87,95.87,0,0,0-15.1,26.15c-3.62,9.32-6.44,19.71-6.21,29.78a45,45,0,0,0,1.12,9c.19.81,3.1.09,2.9-.78-2.31-10.14-.57-20.57,2.34-30.4a99.39,99.39,0,0,1,12-26.13,82.83,82.83,0,0,1,8.67-11.15c3.31-3.57,7-7,11.72-8.6,1.38-.47,3.49-1.31,4.53.19a5.42,5.42,0,0,1,.38,4,15.92,15.92,0,0,1-1.79,4.5c-1.21,2.32-2.44,4.63-3.65,6.95-4.92,9.44-9.61,19.06-12.58,29.31a92.4,92.4,0,0,0-3.16,15.55c-.56,5.1-.44,10.42,1.44,15.25,1.64,4.21,5,7.6,9.66,8,5.46.5,10.87-2.11,15.87-3.94l4-1.45a18,18,0,0,1,3.8-1.31c3.24-.37.64,4.35-.15,5.44a45.61,45.61,0,0,1-10.57,10.18c-7.19,5.08-16.21,8.94-25,5.81-7.39-2.64-12.72-9.17-15.64-16.26a39.7,39.7,0,0,1-1.89-5.93C1133.67,473.26,1130.77,474,1131,474.86Z"/><path class="cls-17" d="M337.09,252.21l-.4.42c-.47.5-.95,1-1.43,1.46-1.39,1.39-2.81,2.74-4.28,4a46.91,46.91,0,0,1-5.47,4.26,14.67,14.67,0,0,1-2.23,1.23c-.5.21-.6.27-.94.2a7.55,7.55,0,0,1-2.92-1.67,26.59,26.59,0,0,1-3.69-3.66,45.75,45.75,0,0,1-7.26-12.09A41.28,41.28,0,0,1,305.21,230a35.31,35.31,0,0,1,1.34-9.14,36.5,36.5,0,0,1,1.63-4.53,5.57,5.57,0,0,1,1.17-2.07,7.77,7.77,0,0,1,1.24-.81c3.27-1.85,7.2-1.38,10.67-.4a42.65,42.65,0,0,1,11.57,5.58A79.11,79.11,0,0,1,347,230.39c.46.49,3.09-.58,2.74-.95a80.17,80.17,0,0,0-13.43-11.24c-7.3-4.89-16.45-9.13-25.28-5.93a16.07,16.07,0,0,0-3.08,1.46,14.88,14.88,0,0,0-1.33.91,5.06,5.06,0,0,0-1.23,2.07,36,36,0,0,0-2.77,9.69,39.55,39.55,0,0,0,2,18.33,46.41,46.41,0,0,0,7.56,13.75c1.87,2.33,4.36,5.4,7.36,6.28,1.61.48,3.47-.11,5-.72a25,25,0,0,0,5.69-3.44,79.32,79.32,0,0,0,9.15-8.33l.57-.61c.32-.34-1.08-.21-1.14-.2a3.16,3.16,0,0,0-1.71.75Z"/><path class="cls-17" d="M463,228.72a90,90,0,0,1,10.67-9,34,34,0,0,1,8.67-4.93c2-.68,4.17-.77,5.62,1s1.84,4.66,2,7a39.27,39.27,0,0,1-1,10.08A46.77,46.77,0,0,1,485.62,243c-1.22,2.61-2.79,5.38-5.11,7.17a6.81,6.81,0,0,1-1.4.85,1,1,0,0,1-.4.11,12.9,12.9,0,0,1-2.06.15,12.61,12.61,0,0,1-6.52-1.68,11,11,0,0,1-4.38-4.53c-.37-.8-3.19.16-2.9.78,2.72,5.87,10.74,7.94,16.54,6.25,6.58-1.92,9.73-10,11.46-15.88a47.77,47.77,0,0,0,2-11.38c.13-2.91.06-6.22-1.31-8.86-3.19-6.14-12.05-1.58-16.18.93a82.45,82.45,0,0,0-15,11.95c-.49.48.42.6.71.59a3,3,0,0,0,1.94-.72Z"/><path class="cls-17" d="M246.85,439.37a115.63,115.63,0,0,1,11.28-22.24,67.74,67.74,0,0,1,12.56-15,85.09,85.09,0,0,1,17.44-11.66c3.54-1.76,7.34-2.79,11-4.19,1.86-.7,4.54-2.34,6.49-1.1a2.2,2.2,0,0,0,1.89-.06c.19-.08,1.33-.68.81-1-1.91-1.22-4.16-.88-6.23-.24-3.43,1.06-6.78,2.44-10.18,3.59-7,2.36-13.47,6.61-19.33,11a67.83,67.83,0,0,0-14.45,14.7,116.4,116.4,0,0,0-9.94,16.9c-1.54,3.16-3,6.38-4.25,9.68-.29.77,2.55.44,2.88-.43Z"/><path class="cls-17" d="M300.58,447.86A55.33,55.33,0,0,1,281,457.31a44.74,44.74,0,0,1-7.61,1.5,13,13,0,0,1-2.2.06c-.13,0-.27-.05-.41-.06.44,0,0,0,0,0,0,.21.45.1.26.64.55-1.57-2.34-1.55-2.78-.33-1,3,6.15,1.73,7.3,1.54a64.47,64.47,0,0,0,17-5.36,52.09,52.09,0,0,0,10-6.07c1.55-1.21-.78-2.22-1.92-1.33Z"/><path class="cls-17" d="M294.44,387.29,279,373.4l-2.55,1.05L286,377.4c.43.14,3.09-.55,2.56-1L276.4,365.19l-2.56,1,12.7,2.73c.41.09,2.82-.23,2.64-.95-.91-3.59-1.89-7.16-2.55-10.81a85.41,85.41,0,0,1-1-22.8c1.32-14.94,6.73-29.14,14.79-41.73a124,124,0,0,1,15.26-19.16c.45-.46-.39-.48-.67-.46a3.6,3.6,0,0,0-2,.69A43.71,43.71,0,0,0,308,279c-.41.47.36.47.68.46a3.41,3.41,0,0,0,1.94-.69c1.75-1.67,3.39-3.46,5.06-5.21.11-.11.22-.25.06-.38C300,260.87,290.14,240.06,292,220a46,46,0,0,1,3.77-14.48c2.14-4.77,5-9.52,9.34-12.6a24.76,24.76,0,0,1,15.31-4.42c5.88.19,11.5,2.3,16.67,5,11.64,6.11,20.46,16.05,29.63,25.23.45.45,2.59-.18,2.79-.75l3.74-10.44-2.88.65L374,219.54c.22.68,2.81-.14,2.9-.78l2.77-19.6-2.9.78L383,217.41c.24.68,2.65-.17,2.88-.65l6.18-13-2.88.65,4.69,15.34c.19.63,2.74-.11,2.88-.64l4.66-18.18.66-2.6-2.87.65L406,215.92c.3.74,2.58-.23,2.88-.65l12.69-18.1,1.8-2.57-2.88.65.75,21.39.11,3.11c0,.66,2.64-.24,2.87-.64,1.93-3.35,3.89-6.7,6.1-9.87.43-.62,1-1.17,1.42-1.79-.42.65-2.38.11-2.31.49,0,.09.09.17.12.26.09.34.23.68.33,1,.68,2.34,1.16,4.75,1.65,7.13q.58,2.76,1.11,5.54c.14.72,2.64-.24,2.88-.64l10.63-17.92,1.51-2.54-2.87.65,2.16,18.65c.08.72,2.5-.29,2.76-.5,7-5.7,14.53-10.87,23.05-14,5.41-2,11.35-3.5,17.14-2.92,17.76,1.8,13.8,24.63,10.3,36.48a96.21,96.21,0,0,1-13.9,28c-.3.43,1.05.29,1.15.27a2.67,2.67,0,0,0,1.7-.78,96.9,96.9,0,0,0,13.45-26.54c2.61-8.26,4.81-17.67,3-26.31a13.92,13.92,0,0,0-13-12.21c-6.47-.8-13.15.74-19.25,2.8-9.75,3.29-18.34,8.94-26.26,15.4l2.76-.5-2.17-18.66c-.08-.7-2.64.25-2.87.65l-10.64,17.91-1.51,2.54,2.88-.64A110.25,110.25,0,0,0,432.6,208c-.24-.77-.37-1.22-1.28-1.16a3.81,3.81,0,0,0-2.68,1.3,45,45,0,0,0-4.11,6.11q-1.63,2.67-3.2,5.37l2.87-.64-.74-21.4-.11-3.11c0-.7-2.63.3-2.87.65l-12.69,18.1-1.8,2.57,2.87-.65L402,198.2c-.25-.62-2.73.1-2.87.65L394.5,217l-.66,2.59,2.88-.64L392,203.63c-.21-.68-2.66.18-2.88.65l-6.18,13,2.88-.65-6.18-17.47c-.24-.68-2.81.13-2.9.78L374,219.54l2.9-.78-3.62-11.29c-.21-.65-2.7.14-2.88.65l-3.73,10.44,2.79-.75c-8.61-8.62-16.88-17.91-27.54-24.08-5.2-3-11-5.49-17-6.16a33.51,33.51,0,0,0-16.33,2.24,28.09,28.09,0,0,0-7.35,4.34,26.15,26.15,0,0,0-5.21,6.17,44.49,44.49,0,0,0-6,14.4,55.56,55.56,0,0,0,2.44,30.81A63.86,63.86,0,0,0,313,274.11l0-.37c-1.67,1.75-3.31,3.54-5.06,5.21l2.62-.23a43.71,43.71,0,0,1,5.06-5.21l-2.62.23c-10,10.41-18.57,22.43-24.08,35.86a87.19,87.19,0,0,0-5.76,45,132,132,0,0,0,3.09,14.17l2.64-.94-12.7-2.73c-.38-.08-3.12.53-2.56,1.05l12.16,11.17,2.56-1-9.53-3c-.43-.14-3.09.56-2.56,1l15.42,13.89c.56.51,3.15-.6,2.73-1Z"/><path class="cls-17" d="M500.55,436.59C509.34,447.86,513.9,462,515.94,476a119.53,119.53,0,0,1-2.47,46.89c-3.67,14.18-10.28,28-20.85,38.3-8.61,8.43-19.18,14.86-30,20.11a182,182,0,0,1-43.08,14.47,173.75,173.75,0,0,1-49.89,3.06,144.68,144.68,0,0,1-51.12-13.94A137.26,137.26,0,0,1,306.12,578a49,49,0,0,1-6.63-4.6,59.85,59.85,0,0,1-8.81-10.06,104.24,104.24,0,0,1-17.1-37.74A92.64,92.64,0,0,1,277,472.32a104,104,0,0,1,6.64-14.19c.74-1.32-2.19-1.19-2.74-.21-9.63,17.22-14.18,36.74-12.2,56.42a104.39,104.39,0,0,0,14.56,43A88.1,88.1,0,0,0,293,570.8a45.55,45.55,0,0,0,4.12,4.1,58.92,58.92,0,0,0,7.41,5.09,143.39,143.39,0,0,0,51.51,19.17,170.33,170.33,0,0,0,51.84.49,190.87,190.87,0,0,0,46.32-12.51c12.3-5.07,24.32-11.47,34.71-19.85A74.23,74.23,0,0,0,501.87,554,82.43,82.43,0,0,0,512.77,534,116.6,116.6,0,0,0,520,487c-.68-15-4-30.26-11.33-43.47a62.51,62.51,0,0,0-5.4-8.18c-.71-.92-3.49.15-2.67,1.21Z"/><path class="cls-17" d="M485.28,267.49a44.72,44.72,0,0,1,4.33,4.69,83,83,0,0,1,9.29,14c8.89,16.7,12.3,35.84,10.89,54.63-.5,6.64-2,13.1-3.31,19.62-.19.93,1.63.56,2,.39q2.52-1.11,5.06-2.15c1.31-.54,2.62-1.07,4-1.56.47-.17.74-.27,1.17-.4.16-.05.35-.08.51-.14s-.08,0-.06,0a9.52,9.52,0,0,1-.93-.5c-.23-.19.3-.1,0,0,.06,0,.06-.07-.1.1s-.62.56-.93.83c-.84.72-1.71,1.42-2.59,2.11-2.22,1.77-4.48,3.5-6.74,5.21q-2.15,1.63-4.31,3.24c-.72.54,0,1,.59,1h16.42l-.32-1.21-16.67,8.54-2.38,1.22c-.65.33-.77,1,0,1.17l5.58,1.43-.26-1-7.83,6.49c-.11.09-.4.42-.29.61A100.63,100.63,0,0,1,505,399.9c1.75,4.67,2.83,9.52,1.73,14.48-1.9,8.58-9.13,14.5-16.53,18.48a71,71,0,0,1-15.59,5.88c-.41.11-1.42.5-1.26,1.09s1.26.41,1.64.31c9.56-2.53,19.13-6.39,26.56-13.1a26.26,26.26,0,0,0,7.27-10.3,22.84,22.84,0,0,0,.09-14.68,86.78,86.78,0,0,0-7.66-17l-.29.61,7.82-6.49c.49-.4.3-.85-.26-1l-5.59-1.43v1.18l16.68-8.53,2.38-1.22c.86-.44.58-1.21-.33-1.21H505.21l.59,1c3.89-2.9,7.78-5.82,11.57-8.86.9-.72,1.81-1.44,2.66-2.22.34-.31,1.19-.92,1.05-1.48-.4-1.58-5.9,1-6.62,1.24-2.39,1-4.75,2-7.1,3l2,.39c1-5.11,2.35-10.24,2.92-15.42a108.75,108.75,0,0,0-1.14-32.66,92.43,92.43,0,0,0-17.78-39.57,48.79,48.79,0,0,0-5.4-6c-.74-.67-3.45.44-2.69,1.12Z"/><path class="cls-17" d="M473.49,401.36a38.71,38.71,0,0,0-12.31,8.36,44.31,44.31,0,0,0-5,5.83c-.3.43,1.06.3,1.16.28A2.68,2.68,0,0,0,459,415a42.37,42.37,0,0,1,10.57-10.25,38.6,38.6,0,0,1,3.66-2.18c.37-.19.75-.37,1.13-.54.22-.1.66-.28.12-.06.25-.1,1.19-.43.87-.82s-1.57.05-1.87.17Z"/><path class="cls-17" d="M447.85,429.93a22.35,22.35,0,0,0-3.66,14.72c.78,6.4,5.25,11.58,11,14.22,1.25.58,3.34-1.23,1.66-2a16.69,16.69,0,0,1-9.74-13,19.55,19.55,0,0,1,1.29-9.11,25.49,25.49,0,0,1,1.3-2.87l.46-.81.17-.27c-.18.29-.06.1,0,0,1-1.53-1.67-2.06-2.44-.91Z"/><path class="cls-17" d="M458.25,433.35c-3.09,4-5.14,9.52-4.55,14.62.63,5.54,6.56,14.6,13.19,11.55,1.93-.88,2.14-2.81,2.45-4.7A30.59,30.59,0,0,1,473,444.2a32.86,32.86,0,0,1,7.6-9.35c1.53-1.24,3.24-2.58,2.67-4.78a12.57,12.57,0,0,0-1.14-2.54c-.87-1.66-1.76-3.3-2.62-5s-1.53-3.66-2.87-5.09c-2.18-2.31-5.5-2.88-8.54-3a52.4,52.4,0,0,0-7.82.38,43.84,43.84,0,0,0-14.08,4.45c-4.69,2.37-9.26,5.61-12,10.18-3.29,5.41-2.79,11.81,0,17.35a27.45,27.45,0,0,0,5.79,7.7c1.5,1.4,2.84,2.09,5,1.48a5.15,5.15,0,0,0,3.36-2.9c.23-.46-1-.27-1.15-.25-.46.08-1.46.28-1.7.78a7.19,7.19,0,0,1-.6,1c0,.06-.5.55-.5.56-.06-.26.87.19.61-.13-.1-.14-.69-.26-.88-.38a13.17,13.17,0,0,1-1.78-1.56,26.63,26.63,0,0,1-5.3-7.29c-2.47-5-3.16-10.82-.52-15.91,2.19-4.22,6-7.35,10.12-9.65a37,37,0,0,1,11.74-4.25,45.87,45.87,0,0,1,6-.45c2.82-.09,5.88,0,8.3,1.66a8.62,8.62,0,0,1,2.95,3.84c1.32,2.75,2.86,5.38,4.19,8.11.63,1.28,1.16,2.66.3,4-.73,1.11-2.13,1.88-3.1,2.74a27,27,0,0,0-3.62,3.87,36.53,36.53,0,0,0-5.27,9.27A55.47,55.47,0,0,0,466.2,457a7.26,7.26,0,0,1-.31,1.13c-.12.32-.43.65-.52.95s-.2-.08.05.06c0,0,.64.07.29-.13a1.59,1.59,0,0,0-.38-.07,6.21,6.21,0,0,1-1.84-.82,15.47,15.47,0,0,1-6.2-7.88c-1.93-5.48-.06-11.5,3-16.2.27-.4.54-.81.84-1.19s-1.07-.26-1.15-.25a2.82,2.82,0,0,0-1.71.77Z"/><path class="cls-17" d="M445.39,440.66c1.66,0,2.22-2.14.25-2.14-1.66,0-2.22,2.14-.25,2.14Z"/><path class="cls-17" d="M349.18,463.57a128.84,128.84,0,0,0-18.58,23.49,87.76,87.76,0,0,0-10.46,22.6A61.77,61.77,0,0,0,318,527.3a72.05,72.05,0,0,0,6.14,29.05,59.27,59.27,0,0,0,21.73,25.34C358.61,590,374,593.32,389,594.05c16.7.82,34.17-.75,49.68-7.39a62.34,62.34,0,0,0,28.12-23.25c6.29-9.74,9.6-21.15,10.84-32.61a98.72,98.72,0,0,0-6-46.39A91.11,91.11,0,0,0,456.17,458c-.33-.38-.66-.76-1-1.12-.81-.84-3.56.28-2.67,1.21,4.88,5.06,8.74,11.38,12,17.57a96.28,96.28,0,0,1,10.85,46.23c-.23,11.38-2.13,22.91-6.86,33.32a58.23,58.23,0,0,1-22.5,25.66c-12.74,7.84-27.94,10.73-42.7,11.36-16.09.69-32.94-.9-47.66-7.89a59,59,0,0,1-25.4-22.71,67.27,67.27,0,0,1-8.95-28.37,75.75,75.75,0,0,1-.06-13.47,64,64,0,0,1,6.63-22.59A126.63,126.63,0,0,1,350,465.83c.51-.53,1-1.06,1.54-1.58a.7.7,0,0,0-.33-1.23,2.21,2.21,0,0,0-2.05.55Z"/><path class="cls-17" d="M290.24,436.84c.6,0,1.62-.18,1.91-.81s-.24-.93-.81-.93-1.62.18-1.91.81.24.93.81.93Z"/><path class="cls-17" d="M368,308.57c-1.26,4.42-5.26,6.16-6.32,6.62a9.33,9.33,0,0,1-6.31.77c-3.83-1-5.54-4.7-6-5.7-.3-.63-1.34-3-.8-7.71a15.5,15.5,0,0,1,5.88-6.14,10.74,10.74,0,0,1,11.39,2.92C366,299.57,369.4,303.56,368,308.57Z"/><path class="cls-17" d="M366.51,308.7a9.75,9.75,0,0,1-6.95,6.24c-4,1.12-7.25-1.68-8.79-5.12a11.19,11.19,0,0,1-.88-3.87c-.08-1.28-.2-2.92.45-4a12.57,12.57,0,0,1,2.1-2.65,14.6,14.6,0,0,1,1.92-1.59l.66-.43c.35-.23,0,0,0,0a13.23,13.23,0,0,0,1.54-.29,9,9,0,0,1,1.87,0,9.4,9.4,0,0,1,3.44,1,9.56,9.56,0,0,1,4.65,10.8c-.34,1.31,2.61,1,2.93-.25a10.93,10.93,0,0,0-4.58-11.72,12.5,12.5,0,0,0-8.48-1.75,8.21,8.21,0,0,0-3.11.94,15.21,15.21,0,0,0-1.85,1.33,16.88,16.88,0,0,0-2.7,2.71,14.39,14.39,0,0,0-1.13,1.67,5,5,0,0,0-.62,2.46,14.49,14.49,0,0,0,.76,6.17c1.7,4.22,5.46,7.36,10.21,6.94,5-.43,10-3.88,11.5-8.75.21-.7-.87-.91-1.32-.88A1.75,1.75,0,0,0,366.51,308.7Z"/><path class="cls-18" d="M348.4,302.88l.16-.37v0Z"/><path class="cls-17" d="M349.83,302.62l.14-.32,0-.05-2.88.65h0l0-.12,0,.16,0-.13-.15.33a.13.13,0,0,0,0,.18.25.25,0,0,0,.22.11,1.79,1.79,0,0,0,.4,0,2.24,2.24,0,0,0,.52-.06l.39-.08a4.66,4.66,0,0,0,.71-.26l.28-.14a1,1,0,0,0,.32-.29l.08-.17,0-.08,0,0a.33.33,0,0,0,0-.17l0,.13,0-.17a.23.23,0,0,0-.17-.13.66.66,0,0,0-.34-.06h-.31a3.33,3.33,0,0,0-.55.1,2.79,2.79,0,0,0-.39.1,3.28,3.28,0,0,0-.52.2l-.28.14a.89.89,0,0,0-.32.29l-.14.32,0,.05a.13.13,0,0,0,0,.18.25.25,0,0,0,.22.11,1.79,1.79,0,0,0,.4,0,2.24,2.24,0,0,0,.52-.06l.39-.08a4.66,4.66,0,0,0,.71-.26l.28-.14A1,1,0,0,0,349.83,302.62Z"/><path class="cls-18" d="M356.43,284.4s-4.17,5.91-5.21,8.54-2.66,9.57-2.66,9.57c.1-.88.26-1.83.48-2.87A36.77,36.77,0,0,1,356.43,284.4Z"/><path class="cls-17" d="M355.07,284.32a43.82,43.82,0,0,0-5.26,8.66,68.78,68.78,0,0,0-2.71,9.68l2.91-.3a36,36,0,0,1,7.79-17.88c.44-.57-.39-1-.83-1a2.21,2.21,0,0,0-1.9.83,37.15,37.15,0,0,0-8,18.34c-.16,1.32,2.67.73,2.91-.3a65.6,65.6,0,0,1,2.62-9.46,32.39,32.39,0,0,1,2.95-5.14c.72-1.1,1.45-2.2,2.22-3.28.41-.58-.36-1-.83-1A2.18,2.18,0,0,0,355.07,284.32Z"/><path class="cls-17" d="M388.11,361.64c-2,1.69-3.87,3.83-4.28,6.5-.44,2.94,1.14,5.7,3.25,7.62a17.35,17.35,0,0,0,18.41,3.06c4.51-1.85,11.3-7,9.78-12.71-1.06-4-5.9-6.2-9.51-7.31-5.78-1.77-12.6-1.31-17.39,2.63-1.52,1.24.85,1.93,1.86,1.1,3.69-3,8.52-3.34,13-2.18,2.87.74,6,2.13,8,4.43,3.45,4.11-.83,9-4.37,11.25a13.88,13.88,0,0,1-15.62-.32c-2.28-1.55-4.52-4-4.55-6.95,0-2.71,1.87-4.8,3.81-6.44.51-.44.22-1-.33-1.23A2.25,2.25,0,0,0,388.11,361.64Z"/><path class="cls-17" d="M373.67,362.61a139.42,139.42,0,0,0-81.15,31.27A145.9,145.9,0,0,0,280,405.41a.75.75,0,0,0,.34,1.29,2.13,2.13,0,0,0,2-.55,140.36,140.36,0,0,1,25.39-20.71,134.81,134.81,0,0,1,43.16-17.84,136.18,136.18,0,0,1,22.48-3c1.58-.09,2.29-2.07.3-2Z"/><path class="cls-17" d="M369.15,370.38a131.79,131.79,0,0,0-39.24,12.46,129.56,129.56,0,0,0-44.54,36.87c-.63.81,2.18.46,2.64-.15a128.6,128.6,0,0,1,22-22.44,123.74,123.74,0,0,1,58.6-25.53c.35,0,1.67-.34,1.68-.84s-.83-.42-1.18-.37Z"/><path class="cls-17" d="M366.94,380.1a124.48,124.48,0,0,0-64.4,43.36,126.45,126.45,0,0,0-8.66,12.75c-.27.45,1,.29,1.16.27.51-.09,1.4-.28,1.7-.78A121.52,121.52,0,0,1,348.58,388a117.35,117.35,0,0,1,18.59-7c.26-.08,1.45-.39,1.33-.83s-1.36-.1-1.56,0Z"/><path class="cls-17" d="M363.12,389.59a76.92,76.92,0,0,0-33.06,26.72,78,78,0,0,0-5.09,8.46c-.29.56,1,.52,1.21.49a2.21,2.21,0,0,0,1.67-.91A73.93,73.93,0,0,1,356,394.72a72.45,72.45,0,0,1,8.26-4.15c.39-.17,1.13-.52.81-1s-1.57-.09-1.9,0Z"/><path class="cls-17" d="M427.5,359.11a96.31,96.31,0,0,1,68,19.31,98.11,98.11,0,0,1,10.3,9.13c.67.68,3.41-.38,2.7-1.1a98.66,98.66,0,0,0-64-29.19,100.64,100.64,0,0,0-16.56.35c-.43.05-1.63.37-1.65.95s.79.59,1.23.55Z"/><path class="cls-17" d="M429.54,366a84.81,84.81,0,0,1,40.12,10.06,89.09,89.09,0,0,1,25.89,21.33,94.34,94.34,0,0,1,7.08,9.67c.45.71,3.12-.41,2.89-.77A94.18,94.18,0,0,0,489.16,387a85.92,85.92,0,0,0-35.62-19.29,88.27,88.27,0,0,0-22.12-2.82,3.52,3.52,0,0,0-2.05.55c-.37.31-.47.63.17.63Z"/><path class="cls-17" d="M432.36,372.13a86.26,86.26,0,0,1,60.72,49.74c.27.62,3.08-.35,2.9-.77a87.26,87.26,0,0,0-47.88-46,88.71,88.71,0,0,0-13.34-4,3.68,3.68,0,0,0-2,.4c-.23.11-1,.52-.38.66Z"/><path class="cls-17" d="M435.16,380.22a59.48,59.48,0,0,1,33,23.38,61.55,61.55,0,0,1,4,6.57c.43.82,3.21-.18,2.9-.77A59.92,59.92,0,0,0,437.51,379a3,3,0,0,0-2,.34c-.27.15-1,.71-.31.89Z"/><path class="cls-17" d="M369.86,399.21a25.16,25.16,0,0,0,18.05,8.15c5,.06,10.64-1.22,13-6.08a13.14,13.14,0,0,0,1.38-5.43c0-.57,0-1.13,0-1.7,0-.33.1-.53-.33-.8-.75-.48-2.62.11-2.59,1.11a12,12,0,0,0,1.14,4.35,11.83,11.83,0,0,0,2.58,4.09,13.74,13.74,0,0,0,5.6,2.88,19.76,19.76,0,0,0,17.56-3.63c4-3.14,6.56-7.62,8.42-12.24.25-.64-.94-.71-1.26-.67a1.91,1.91,0,0,0-1.64,1c-2.54,6.31-7,12.93-14.17,14.29-3.81.73-8.57,0-11.61-2.6a10.54,10.54,0,0,1-2.59-3.91,12,12,0,0,1-1.13-4.35l-2.6,1.11c-.32-.2-.21-.7-.3-.19a1.22,1.22,0,0,0,0,.33c0,.46,0,.92,0,1.39a12.6,12.6,0,0,1-.81,4,7,7,0,0,1-3.94,4.43c-4.19,1.69-9.4,1-13.49-.64a24.06,24.06,0,0,1-8.66-6c-.71-.77-3.47.3-2.68,1.15Z"/><ellipse class="cls-18" cx="354.9" cy="309.77" rx="2" ry="3.96" transform="translate(-92.79 163.2) rotate(-22.99)"/><path class="cls-17" d="M458.45,300c0,4.86-2.71,10.51-7.17,11.7a7.59,7.59,0,0,1-5.7-.92c-.3-.17-5-3-4.79-7.7.17-3.81,3.45-6,4.52-6.78,4.32-2.94,9-1.32,10.09-.92,0,0,1.29.68,2.59,1.3A12.73,12.73,0,0,1,458.45,300Z"/><path class="cls-17" d="M457,300.34c0,3.61-1.41,7.78-4.36,10.05a4.4,4.4,0,0,1-4.74.33,9,9,0,0,1-1.93-1.16c-2.5-1.94-4.41-5-3.51-8.29.77-2.76,3.71-5.67,6.62-6.08a10.57,10.57,0,0,1,4.79.58c.45.15,1.22.6,1.87.92a1.59,1.59,0,0,1,1.05,1.44,13.67,13.67,0,0,1,.21,2.21c0,.48,2.91,0,2.89-.78a12.61,12.61,0,0,0-.2-2.21,6,6,0,0,0-.18-.84c-.14-.42-.36-.47-.75-.66a23.62,23.62,0,0,0-2.32-1.13,13.3,13.3,0,0,0-5-.77c-4.17.13-8.69,2.28-10.95,5.92s-.64,7.84,2.46,10.42a9.53,9.53,0,0,0,9.88,1.33c4.7-1.93,7.09-7.19,7.1-12.06C459.9,299.11,457,299.51,457,300.34Z"/><path class="cls-17" d="M446.4,286.45a14.79,14.79,0,0,1,6.38,3.94,10,10,0,0,1,2.61,4.14c.44,1.57.72,3.17,1.15,4.75.24.91,3.14.14,2.9-.78-.44-1.62-.73-3.27-1.19-4.88a10.88,10.88,0,0,0-2.77-4.33,15.81,15.81,0,0,0-6.76-4.17,2.67,2.67,0,0,0-2,.3c-.31.18-1,.82-.28,1Z"/><ellipse class="cls-18" cx="445.84" cy="306.05" rx="1.82" ry="3.75" transform="translate(-94.89 299.14) rotate(-33.74)"/><path class="cls-19" d="M483,279.49c-12.46-25.83-50.36-11.5-50.36-11.5s-20.16,6.41-27.56,5.78l-2.13.09c-7.41.53-27.49-6.12-27.49-6.12S337.73,252.93,325,278.6a51.31,51.31,0,0,0-4.66,14.11,42.22,42.22,0,0,0,2.06,22.41,38.65,38.65,0,0,0,12,16c9,7.16,20.7,8.93,31.87,9.08,5.16.07,12.29-.16,16.75-3.08,4.21-2.76,6.19-7.64,8.5-11.89q2.58-4.69,4.87-9.56s2.29-7.71,7-7.71h1c4.74.06,6.75,7.7,6.75,7.7q2.22,4.89,4.75,9.63c2.26,4.27,4.18,9.17,8.35,12,4.43,3,11.55,3.29,16.71,3.29,11.18,0,22.94-1.64,32-8.69A38.54,38.54,0,0,0,485.13,316C489.91,304.13,488.5,290.91,483,279.49Zm-4.46,43.17a36.38,36.38,0,0,1-23.76,14.92c-5.26.83-10.43,1.68-15.73,1.35-5.12-.32-11.9-.65-15.44-4.77-3.15-3.67-5.57-9.55-7.81-13.77-1.41-2.68-2.76-5.39-4-8.15,0,0-1.62-7.18-7.22-6.77l-1.28.1h0a6.71,6.71,0,0,0-3.79,1,8.39,8.39,0,0,0-2.19,2.33,23.54,23.54,0,0,0-1.56,3.34q-1.94,4.11-4.12,8.1c-2.29,4.19-4.78,10-8,13.67-3.59,4.07-10.37,4.32-15.5,4.58-5.3.26-10.46-.66-15.71-1.55a36.38,36.38,0,0,1-23.57-15.22c-8.48-12.35-8.65-29.33-1.42-42.26,13.75-24.56,50.61-8.95,50.61-8.95s18.67,6.47,24.93,6l2-.09c6.27-.28,25-5.7,25-5.7s37.06-15.15,50.5,9.58C487.55,293.44,487.17,310.41,478.53,322.66Z"/><path class="cls-20" d="M320.29,292.71l-21.4.26s-2.28,4.27-4.22,7a51.19,51.19,0,0,0-4.11,8.41l29.66-1.07"/><path class="cls-20" d="M487.11,291.19l16-.28a62.52,62.52,0,0,1,3.58,7.93,44.91,44.91,0,0,1,1.45,7.07l-20.35-.22a34,34,0,0,0,.32-7.45A26.92,26.92,0,0,0,487.11,291.19Z"/><path class="cls-21" d="M417.35,399.66a16.3,16.3,0,1,1-16.3-16.3A16.3,16.3,0,0,1,417.35,399.66Z"/><circle class="cls-21" cx="400.77" cy="399.73" r="11.97"/><path class="cls-21" d="M289.55,307.77a42.82,42.82,0,0,0-6,1.67c-4.4,1.68-7.59,4.8-10.32,7.92a28.19,28.19,0,0,0-6.78,12.15c-3.7,14.23,1.63,27.54,11.58,37.78,5.47,5.62,11.93,10.18,18.56,14.35,19.76,12.42,41.66,21.22,65.27,21.15,7.41,0,15.79-.67,22.87-3.13,0,0,0-.61.05-1.15s.13-1.43.13-1.43c-1.09.15-7.53,1.3-8.22,1.39a100.83,100.83,0,0,1-22.44.3c-23.6-2.24-45.07-12.22-64.2-25.79a78.7,78.7,0,0,1-9.57-7.8c-5.23-5.08-9.55-11.33-11.19-18.43A33,33,0,0,1,271,327.54c2.66-6.83,7.43-12.64,14.44-15.18l3.72-1.19,1.5-3.58Z"/><path class="cls-22" d="M304.92,579.7S263,609.1,257.61,614.54s16.14-14.39,13.43,3.83c0,0,15.42-13,17.9,2.88,0,0,14.62-12.79,14.62,1.36s16.14-35.88,16.14-35.88Z"/><path class="cls-22" d="M443,590.62c-1.94.73,19.23,41.49,19.23,41.49s-1.44-15.07,14.7-8.94c1.38.52.64-14.71,16.62-4.8,1.72,1.07-6.29-15.29,9.91-10.71s-45.07-23.49-45.07-23.49S445.77,589.55,443,590.62Z"/><line class="cls-22" x1="275.99" y1="609.58" x2="293.57" y2="594.72"/><line class="cls-22" x1="291.33" y1="615.01" x2="304.12" y2="596.48"/><line class="cls-22" x1="471.45" y1="615.65" x2="456.42" y2="599.03"/><line class="cls-22" x1="487.11" y1="610.7" x2="464.89" y2="595.2"/><path class="cls-23" d="M225.55,469.47c-2.61.79-5.55.39-6-2.79a7.61,7.61,0,0,1,.57-3.61,33.35,33.35,0,0,1,2.12-4.58,52,52,0,0,1,7.67-10.6c4.95-4.9,14-7.6,21.73-5.7,3.75.92,4.7,1.74,7.53,4.2C264,450.58,268,454,269,459.93a18.45,18.45,0,0,1-1.06,9.23c-.53,1.62-1.94,11.42-7.67,11.7-3.27.16-5.13-1.42-4.91-3.31.25-2.07.17-4.69,2.41-8.27,1.88-3,2.69-6.26.79-7.2-.49-.25-1.59-.5-4.65,1.57-7.38,5-7.23,10.67-12.1,12.28-3.25,1.08-7.47-.08-8.55-2.29-2-4.08,7.13-9.62,7.88-10.27,2.32-2,4.57-3.42,5.69-6.19"/><path class="cls-23" d="M234.14,452.94c-1,5.07-9.06,12.1-8.29,19.46a6.94,6.94,0,0,0,1.11,3.26,2.48,2.48,0,0,0,2.36,1.13,6.61,6.61,0,0,0,2.06-.4,7.67,7.67,0,0,0,2.48-2.2"/><circle class="cls-24" cx="417.16" cy="376.36" r="3.99"/><ellipse class="cls-25" cx="418.28" cy="373.99" rx="0.68" ry="1.51" transform="translate(-114.74 549.23) rotate(-60)"/><circle class="cls-24" cx="423.93" cy="358.76" r="5.45"/><ellipse class="cls-25" cx="425.46" cy="355.51" rx="0.92" ry="2.07" transform="translate(-95.15 546.22) rotate(-60)"/><circle class="cls-24" cx="427.71" cy="329.22" r="9.78"/><ellipse class="cls-25" cx="430.46" cy="323.39" rx="1.66" ry="3.71" transform="translate(-64.83 534.49) rotate(-60)"/><circle class="cls-24" cx="429.74" cy="284.85" r="14.64"/><ellipse class="cls-26" cx="433.86" cy="276.12" rx="2.48" ry="5.55" transform="translate(-22.2 513.79) rotate(-60)"/><circle class="cls-24" cx="434.34" cy="231.15" r="18.73"/><ellipse class="cls-26" cx="439.61" cy="219.99" rx="3.18" ry="7.1" transform="translate(29.29 490.71) rotate(-60)"/><circle class="cls-24" cx="445.67" cy="171.99" r="22.23"/><ellipse class="cls-26" cx="451.92" cy="158.74" rx="3.77" ry="8.43" transform="translate(88.49 470.74) rotate(-60)"/></g></svg>