<svg xmlns="http://www.w3.org/2000/svg" xmlns:xlink="http://www.w3.org/1999/xlink" viewBox="0 0 944.82 785.73"><defs><style>.cls-1{fill:url(#Dégradé_sans_nom_18);}.cls-2{fill:#010101;}.cls-3{fill:url(#Dégradé_sans_nom_18-2);}.cls-4{fill:url(#Dégradé_sans_nom_18-3);}</style><linearGradient id="Dégradé_sans_nom_18" x1="30.27" y1="394.11" x2="433.8" y2="394.11" gradientUnits="userSpaceOnUse"><stop offset="0" stop-color="#202c53"/><stop offset="0.8" stop-color="#202c53" stop-opacity="0.93"/><stop offset="1" stop-color="#202c53" stop-opacity="0.9"/></linearGradient><linearGradient id="Dégradé_sans_nom_18-2" x1="613.05" y1="287.96" x2="613.32" y2="287.96" xlink:href="#Dégradé_sans_nom_18"/><linearGradient id="Dégradé_sans_nom_18-3" x1="495.58" y1="383.2" x2="914.55" y2="383.2" xlink:href="#Dégradé_sans_nom_18"/></defs><title>Logo_LP</title><g id="Chapeau"><path class="cls-1" d="M429.15,722.14c21.75,30.49-117.51,40-132.49,41.06q-41.81,2.87-83.77,2.45c-52.5-.52-115.48-6.95-148.2-48.42-17.38-22-27.32-83.94-31.7-160.79-.1-1.73-.21-3.46-.29-5.21-9-168.42,8.09-404.69,32-452.53C99.82,28.36,196.77-27.82,238.58,93.81c8.23,23.89,6.57,57.61-.82,96.82C216.42,304,147.25,463.4,130.72,564.25c0,0,0,.08,0,.12-6.31,38.57-4.89,68.56,9.85,84.13,66.59,70.38,355.21-126,281.21-57.26a316,316,0,0,0-25.38,25.82c-.1.12-.22.25-.31.38-1.49,1.73-2.86,3.39-4.09,5a.87.87,0,0,0-.17.22C361.46,662,392.84,671.26,429.15,722.14Z"/><path class="cls-2" d="M427.79,722.67c14.09,20.38-44,29.15-53.75,30.9-25.29,4.53-50.94,7.16-76.57,8.91-31.18,2.14-62.52,3.09-93.77,2.3-25.28-.64-50.88-2.81-75.3-9.74-23.16-6.56-45.49-17.9-61.05-36.72C56.13,704.74,51.62,686,47.89,669.16c-11.8-53.11-14.06-108.58-15.48-162.81-1.38-52.64-.68-105.35,1.53-158,2-48.64,5.29-97.3,10.92-145.68C48.52,171.2,52,138.15,62.27,108,66.93,94.34,75,81.85,83.92,70.61c10.9-13.77,24-26.1,39.2-35,13.91-8.2,30-13.67,46.34-12,17.1,1.69,31.83,11.19,42.81,24.08a131.58,131.58,0,0,1,28.82,63.18c4.25,28.22-.28,57.6-5.78,85.32-10,50.51-25.95,99.79-41.93,148.67-16.5,50.5-34,100.74-48.36,151.91C139,518.24,133.43,540,129.67,562.14c-3.95,23.19-7.8,50.39,1,73,8.94,23,32.75,29.68,55.32,29.54,27.37-.17,54.62-7.95,80.35-16.64,29.21-9.86,57.58-22.11,85.56-35,21.51-9.93,42.66-20.67,64.32-30.28,3.15-1.4,6.32-2.78,9.55-4,1.46-.54,4.1-1.88,5.63-1.65.71.11,1-.07.86,1.07-.14,1.6-2.32,3.54-3.3,4.63-11.37,12.76-24.88,23.35-35.83,36.58-6.25,7.55-12.63,16.32-14.48,26.16-1.45,7.67.67,15,4.6,21.61,4.86,8.18,11.45,15.27,17.7,22.39,9.38,10.7,18.54,21.55,26.85,33.11.48.66,3.28-.27,2.71-1.06-8.59-12-18.09-23.12-27.79-34.18-6.75-7.7-14.23-15.54-18.65-24.89-9.62-20.36,7.65-39.55,20.86-53.51,7.22-7.63,15-14.61,22.53-22a56.15,56.15,0,0,0,6.17-6.73c1.71-2.34,2.54-4.73-1.22-4.6-5.16.18-10.74,3.24-15.35,5.25-9.21,4-18.27,8.4-27.33,12.73-26.23,12.53-52.48,25-79.3,36.21-29,12.09-58.77,23.28-89.61,29.49-22.36,4.5-50.12,8.07-70.58-4.66-15.09-9.4-20.2-26.68-21.34-43.59-1.72-25.56,3.4-51.53,9.08-76.35C149.61,484,166.52,434.43,182.86,385c17.13-51.82,34.73-103.64,47.95-156.63,6.66-26.7,12.4-53.91,14.2-81.42.83-12.75.82-25.67-1.24-38.31-2-12.25-6.5-24-11.81-35.16-8.27-17.42-20.05-34.35-37.22-43.95-12.91-7.21-27.86-9.18-42.34-6.54-32.57,5.93-60.07,30.7-78.18,57.28-7.34,10.79-13.19,22-16.84,34.56-4.22,14.49-7,29.42-9.37,44.29-7.16,44.08-11,88.73-13.93,133.26q-5.23,79.74-5.26,159.73c0,55.75,1.47,111.79,8,167.19,2.86,24.32,6.42,49,14,72.4,2.5,7.71,5.48,15.45,9.87,22.3,5.45,8.52,13.25,15.77,21.35,21.72,40.13,29.47,95.2,30.79,143,30.7A993.41,993.41,0,0,0,338.29,760c16.37-1.91,32.72-4.28,48.84-7.78,12.65-2.76,26.52-5.87,37.56-13,6.51-4.21,10.79-10.43,5.81-17.64C430,721,427.24,721.87,427.79,722.67Z"/><path class="cls-3" d="M613.05,288l.27-.09Z"/><path class="cls-2" d="M613.53,288.27l.28-.09c.21-.07,1.19-.4.88-.74-.12-.14-.59-.06-.72-.05a5.45,5.45,0,0,0-1.13.26l-.28.09c-.21.08-1.19.4-.88.74.12.14.59.07.72,0a4.76,4.76,0,0,0,1.13-.26l.28-.09-1-.53-.28.09c-.21.08-1.19.4-.88.74.12.14.59.07.72,0A4.76,4.76,0,0,0,613.53,288.27Z"/><path class="cls-4" d="M504.17,549.32c-3.8,30.59-6,61.39-7.17,92.18-1.36,36.55-9.27,87,34.64,101.43,24.74,8.16,61.62,1.52,80.51-17,9.41-9.23,14.7-21.88,18.26-34.57,18.32-65.39,4.9-141.09-5.78-206.73-4.52-27.76-9.93-55.35-14.34-83.13-4.68-29.56-8-59.31-8.24-89.27,0-6.25,1-14.08,3.14-18.26A12.26,12.26,0,0,1,610.7,289c.56-.27,1.13-.52,1.7-.77.26-.11.49-.19.65-.24l-.58.21c18.68-8.18,39.89-8.52,61.38-5.86,25.79,3.18,51,7.09,76.52-.32,24.76-7.2,46.47-22.86,66.1-39.13,27.11-22.47,52.38-47.77,70.62-77.89,20.58-34,47-102.79,5.59-132.07-12.18-8.61-25.89-11.73-40.06-12.48-47.47-2.51-95.06,6-140.83,17.9-23.37,6.08-46.45,13.22-69.35,20.89C623,65.75,603,71.92,589.15,88c-5.48,6.35-8.8,14.67-11.79,22.38a367.12,367.12,0,0,0-12,38.12c-4.46,16.78-8.33,33.74-11.89,50.74-4.2,20-8,40.15-11.51,60.29q-5.85,33.32-10.85,66.73-5.29,35-9.88,70.07t-8.62,70.3q-3.83,33.66-7.07,67.42-.72,7.62-1.43,15.23M823.71,125.47c-1.77,12.63-8.07,24.17-15.19,34.75-12,17.83-27.43,34.64-45.36,47.53-21.28,15.3-46,25.06-72.69,24.4-13.71-.34-27.71-3.31-39.06-11-13.14-8.91-20.66-24-18.92-39.93,1-8.92,4.43-17.42,8.91-25.19C665.09,115,715.05,92.8,759.6,83.67c14.68-3,31.14-6.5,45.15.81C819.3,92.07,825.9,109.81,823.71,125.47Z"/><path class="cls-2" d="M502.72,549.71c-3.68,29.95-5.91,60.06-7.09,90.21-.72,18.17-2.68,36.52-.64,54.67,1.84,16.31,7.7,32.57,21.73,42.23,15.92,11,37.24,11.83,55.67,8.4,19.06-3.56,38.11-12.35,48.87-29.14,6.8-10.61,10.36-23,13.15-35.15A258,258,0,0,0,640,642.5c4-54.34-5.75-108.76-14.59-162.16-5.44-32.87-12.08-65.54-16.54-98.56-2.27-16.75-4-33.58-4.83-50.46-.39-7.94-1-16.08-.42-24,.54-7.78,1.68-15.92,9.89-19,1.93-.72.1-1-1-.6,1.81-.66,4.15-.74,6.09-1.41q2.28-.78,4.6-1.43a85.41,85.41,0,0,1,9-2A112.4,112.4,0,0,1,651,281.45c11.7,0,23.24,1.7,34.83,3.09,20.27,2.42,40.91,3.92,60.93-1.07,18.42-4.6,35.3-14,50.67-24.91a400.9,400.9,0,0,0,47.49-40.07c24.93-24.35,46-52.42,59.1-84.88,10.19-25.31,18.93-58.46,5.16-84.12C890.46,14.62,842.47,18,809,20.53,763.75,24,719.21,34.9,675.89,48.08c-19.41,5.91-39.3,11.61-58,19.55-17,7.23-31.2,17.92-38.79,35.22-9.05,20.63-14.65,42.82-19.9,64.65-5.49,22.84-10.16,45.87-14.46,68.95-17.15,92-29.29,185.07-38.71,278.17q-1.77,17.53-3.38,35.08c0,.34,2.82.07,2.9-.78,8.35-90,19.41-179.95,34.32-269.16,7.47-44.71,15.58-89.54,27.4-133.33,2.9-10.72,6-21.4,9.84-31.83,3.4-9.31,6.93-19.07,13.41-26.73,13-15.29,32.55-21.68,50.92-27.81C684.33,45.73,728,32.89,772.71,25.8a389,389,0,0,1,69.34-5.12c19.67.43,40,3.27,54.93,17.39,21.62,20.48,17.77,54.1,9.91,79.9-9.36,30.71-26.17,58.51-47.29,82.56a384.92,384.92,0,0,1-43.11,41.39c-15.66,13.07-32.19,25.57-50.88,34-23,10.37-47.09,10.9-71.78,8.18-19.68-2.16-39.17-5.44-59-2.55a94.08,94.08,0,0,0-23.21,6.51c-1.65.7.67.71,1.32.47-2.74,1,1.11-1.79-3.09.33a19.11,19.11,0,0,0-2.28,1.33,12.09,12.09,0,0,0-3.14,2.91c-2.75,3.85-3.26,9.66-3.64,14.21-1.14,13.9.38,28.45,1.54,42.31,2.39,28.59,7.07,56.9,12.07,85.13,9.38,52.92,20,106.28,22.92,160,1.5,27.22.79,54.78-4.68,81.55-4.94,24.2-13.24,48.15-36.54,60.11-19.75,10.15-46,13.09-66.89,4.62-16.59-6.73-26.3-21-29.9-38.16-4-19.19-1.9-39.1-1-58.5,1.45-31.92,3.4-63.73,7.31-95.47,0-.3-2.79-.07-2.9.78Z"/><path class="cls-2" d="M822.26,125.86c-2.86,18.24-14,34.33-25.33,48.43A175.69,175.69,0,0,1,755.85,212c-15.93,10.31-34,17.55-53,19.25-18.12,1.63-38.61-1.05-53.17-12.83a43.12,43.12,0,0,1-14.51-44.47c4-16,14.49-30.41,26-41.87,22.27-22.1,52-35.81,81.91-44,8.5-2.32,17.13-4.23,25.8-5.75,10.91-1.92,22.56-2.82,32.91,1.93,15.65,7.19,22.4,25.34,20.39,41.64,0,.3,2.79.07,2.9-.78,1.92-15.58-4.13-32.87-18.43-40.75-15.52-8.55-34.7-3.89-51-.3-31.25,6.92-62.45,19.14-87.44,39.54-24.81,20.25-53,59.77-27.27,90,12.2,14.32,32.09,19,50.17,19.17a116.64,116.64,0,0,0,50.63-11.68c19.53-9.28,36.69-23.15,51.06-39.21s28.85-35.17,32.24-56.78C825.2,124.81,822.39,125,822.26,125.86Z"/></g></svg>