<svg xmlns="http://www.w3.org/2000/svg" xmlns:xlink="http://www.w3.org/1999/xlink" viewBox="0 0 535.29 779.47"><defs><style>.cls-1{fill:none;}.cls-2{fill:#1d1d1b;}.cls-3{fill:#fff;}.cls-4{isolation:isolate;}.cls-5{clip-path:url(#clip-path);}</style><clipPath id="clip-path"><polygon class="cls-1" points="250.42 137.2 261.13 39.72 401.68 44.54 390.97 142.02 250.42 137.2"/></clipPath></defs><title>Logo_Pepito</title><g id="Chapeau"><path class="cls-2" d="M213.29,146.58c-2.87,3.09-5.92,6-9.07,8.85-3.64,3.27-11.17,11.17-16.63,10.41-4.18-.58-8.29-5.86-10.77-8.83a72.16,72.16,0,0,1-11.07-18.41,66,66,0,0,1-5.36-26.23c.1-8,1.55-23.05,9.48-27,12.27-6.07,27.23,2,37.43,8.79a127.74,127.74,0,0,1,21.61,18c.72.76,3.48-.32,2.68-1.15a128.31,128.31,0,0,0-22.87-18.9c-11.09-7.21-26-14.16-39.15-8.43-3.46,1.5-5.65,3.1-7.19,6.61a57.94,57.94,0,0,0-4.33,15.09,63.58,63.58,0,0,0,3.4,30.31,74.35,74.35,0,0,0,12.06,21.64c2.9,3.6,6.87,8.45,11.53,9.84,5.44,1.63,11.57-3.23,15.55-6.29a124,124,0,0,0,15-13.85c1.17-1.25-1.65-1.26-2.34-.52Z"/><path class="cls-2" d="M412.52,109.73A153,153,0,0,1,427.29,97c5.71-4.35,20.81-16.61,27.16-7.71,4.84,6.81,2.91,18.44,1.41,26-1.88,9.46-5.24,20.53-12.29,27.5-7.57,7.49-22.39,2.48-26.71-6.65-.32-.67-3.11.32-2.9.77,4.15,8.77,15.68,12.12,24.57,10,10.17-2.41,15.13-14.54,18-23.44,3-9.63,6.63-24.36,1.48-33.9-4.45-8.23-15.78-3.24-21.86.1-9.62,5.28-18.4,12.65-26.19,20.34-.57.56,2.12.24,2.61-.24Z"/><path class="cls-2" d="M67.09,446.76C73.61,429.29,83,411.9,95,397.63c8.71-10.37,19.81-18.67,31.45-25.49,6.67-3.91,13.48-6.48,20.74-9.05,4.17-1.49,11.42-6,15.79-3.37,1,.6,3.6-.81,2.25-1.6-3.51-2.08-7.2-1-10.82.25-6.82,2.4-13.88,4.54-20.45,7.58a127.29,127.29,0,0,0-35.6,24.63c-15.28,15.2-26.53,35.82-34,55.92-.56,1.5,2.34,1.38,2.76.26Z"/><path class="cls-2" d="M154.24,460.74a89.58,89.58,0,0,1-30.45,14.9c-1.18.33-18.38,3.75-18,2.19.23-.91-2.66-.48-2.89.41-.91,3.57,15.42.13,16.6-.15,13.26-3.09,26.22-8.65,37-17,1.25-1-1.63-.85-2.29-.34Z"/><path class="cls-2" d="M263.08,92.59C238.56,68,205.2,31.41,166.43,47.91c-16.51,7-25.59,24.19-28.91,41.14-3.4,17.42-.7,35.66,6.1,51.94a105.67,105.67,0,0,0,14.66,24.89,97.61,97.61,0,0,0,10.1,10.93c1.46,1.36,5.62,3.73,5,5.95s-5.35,5.57-6.95,7.12l2.64-.14a75.85,75.85,0,0,1,8.1-8.33l-2.65.15c-20.84,21.7-37.78,47.86-45,77.36a138.94,138.94,0,0,0-3.31,46c.94,9.69,3.24,19,5.63,28.39l2.63-1L114.22,328c-.39-.09-3.24.46-2.54,1.11l19.41,17.84,2.54-1.11-15.21-4.72c-.44-.14-3.21.5-2.55,1.11l24.64,22.19c.61.55,3.25-.54,2.72-1l-24.64-22.19-2.54,1.11L131.27,347c.44.14,3.21-.49,2.54-1.11L114.4,328l-2.54,1.11,20.29,4.35c.46.1,2.84-.14,2.63-1-2.24-8.8-4.45-17.52-5.44-26.59a137.72,137.72,0,0,1,3.09-47.48c7.15-29.38,24-55.4,44.74-77,.71-.74-2.15-.27-2.65.15a75.7,75.7,0,0,0-8.09,8.32c-.69.79,2.16.32,2.64-.14,2.79-2.69,5.43-5.52,8.1-8.33.11-.12.2-.31,0-.44-24.31-19.13-40-50.73-38.13-81.91.93-15.75,6.78-34.68,19.47-45,16.89-13.67,39.15-9.41,56.66.4s31.1,25,45.15,39.11c.57.58,3.26-.48,2.72-1Z"/><path class="cls-2" d="M454.11,170.76a157.77,157.77,0,0,0,21.6-42.6c4.2-13.3,7.73-28.51,4.63-42.41-5.28-23.7-31.12-21.09-49.22-15.17-15.75,5.16-29.53,14.22-42.31,24.6-1.23,1,1.65.82,2.28.31,13.49-11,28.13-20.43,45-25.11C447.53,67.23,463.2,65,472,74.91c10.55,11.88,6.54,32.2,3,46-4.65,18-12.91,34.68-23.57,49.89-.67,1,2.18.63,2.67-.05Z"/><path class="cls-2" d="M474.12,441.45c14,18,21.31,40.49,24.61,62.84a191.74,191.74,0,0,1-3.55,74.11c-5.78,23.11-16.36,45.67-33.48,62.56-13.83,13.63-30.83,24-48.2,32.53-46,22.45-98.91,32.78-149.95,28.24A232.07,232.07,0,0,1,181.26,679c-10.32-5.11-21.57-10.75-30.23-18.46a98.89,98.89,0,0,1-13.9-16c-29.87-41.25-39.81-95.83-22.39-144.12a167.35,167.35,0,0,1,11.19-24.34c.68-1.21-2.22-.94-2.7-.08-15.16,27.31-22.54,58.08-19.5,89.3a166.16,166.16,0,0,0,23,68.68c8.8,14.74,18.95,27,33.56,36A227.58,227.58,0,0,0,243.17,701c52.07,8.65,106.81.91,155.47-19.08,19.45-8,38.36-18,54.86-31.17,17.32-13.76,29.92-31.64,38-52.19,9.33-23.63,13-49.48,12-74.8-1-24.35-6.24-49.3-18.26-70.69a104.14,104.14,0,0,0-8.43-12.75c-.62-.8-3.42.21-2.69,1.15Z"/><path class="cls-2" d="M449.72,171.33c9.09,8.21,16.2,19.31,21.88,30,14.35,27,19.71,58,17.28,88.31-.83,10.26-3.22,20.28-5.22,30.36-.17.88,1.65.47,2,.32q5.31-2.34,10.71-4.51c1-.4,6.17-2,6.15-2.52,0-.12-3,2.35-3.44,2.7-6.6,5.45-13.5,10.57-20.37,15.69-.71.53,0,.93.57.93h26.23l-.29-1.11-30.44,15.58c-.64.32-.79.89,0,1.09l6.73,1.71c.56.15,1.13.33,1.69.43.82.16-.05-.3.2-.73a9.12,9.12,0,0,1-1.76,1.45l-10.69,8.87c-.1.09-.4.39-.3.57,9.08,16.23,20.11,37,9.81,55.12-9.66,17-30.58,25.35-48.47,30.15-1.72.46-1.39,1.75.34,1.29,22-5.9,52.35-18.61,55.19-44.77.72-6.64-.81-13.11-3.08-19.32-2.46-6.74-5.29-14.08-9.18-20.14-2-3.08-2.12-1.69-.46-3.83,1.05-1.34,3-2.49,4.32-3.58l6.63-5.5c.48-.4.32-.77-.25-.91l-8.92-2.27,0,1.09L507,332.23c.85-.44.6-1.12-.3-1.12H480.44l.56.94q5.63-4.19,11.19-8.46c2.66-2,5.32-4.1,7.93-6.21,1.17-.95,4.18-2.64,4.74-4.12,1-2.72-4.14-.53-5.41-.08-5.05,1.79-10,4-14.9,6.11l2,.31c1.6-8.09,3.72-16.24,4.64-24.45a173.26,173.26,0,0,0-1.69-51.63c-4.34-22.86-13.8-45-28.2-63.36a78.08,78.08,0,0,0-8.87-9.92c-.7-.63-3.4.47-2.71,1.09Z"/><path class="cls-2" d="M430.35,385.59c-10.82,4.35-20.18,13-27,22.26-.69.93,2.17.62,2.67-.06,6.42-8.69,15.2-17.12,25.42-21.24,1.89-.76.14-1.46-1.09-1Z"/><path class="cls-2" d="M389.73,431.9c-10.33,15.58-6.07,36.51,11.27,44.64.86.41,3.51-.84,2.3-1.41C386.57,467.29,382.48,447,392.43,432c.74-1.12-2.16-.88-2.7-.07Z"/><path class="cls-2" d="M48.69,475.06c-5.95,9-7.8,21.29-3,31.11,3.67,7.57,12,14.87,19.81,7.6,1.28-1.19-1.55-1.43-2.37-.67-9.48,8.81-17-12.61-17.21-18.55a33.92,33.92,0,0,1,5.54-19.29c.81-1.22-2.12-1.12-2.73-.2Z"/><path class="cls-2" d="M406.82,435.83c-5,6.57-8.37,15.29-7.51,23.6.77,7.48,8.87,22.48,18.5,20,2.77-.72,3.76-2.86,4.37-5.45,1.4-6,2.15-11.81,5.11-17.42a55.17,55.17,0,0,1,13.83-17.29c2.24-1.85,4.21-3.73,3.84-6.86-.42-3.55-3.27-7.23-4.87-10.29-1.79-3.41-3.12-7.59-5.74-10.51-6.1-6.77-17.55-5.54-25.69-4.65-15.46,1.71-34.27,10.46-41.55,24.89-5.42,10.73-2,23.18,4.79,32.47,4.2,5.75,11.75,14.17,17,4.59.77-1.42-2.16-1.44-2.77-.33-4.85,8.9-15.79-12.32-16.91-15.46-2.92-8.19-2.47-16.68,2.46-23.95,7.57-11.17,22.53-18.09,35.61-19.95,7-1,16.86-2.19,22.8,2.21,2.46,1.83,3.34,4,4.6,6.53,1.9,3.9,4.07,7.66,6,11.55,1.14,2.29,2.14,4.38.47,6.73-1.12,1.58-3.23,2.72-4.67,4a43.94,43.94,0,0,0-5.24,5.5,54.53,54.53,0,0,0-11.12,23.5c-.86,4.58-.85,11-7.61,6.58a24.26,24.26,0,0,1-10-14.9c-1.67-8.34,1.66-17.56,6.71-24.21,1.11-1.46-1.62-1.9-2.42-.84Z"/><path class="cls-2" d="M67.58,479.79c-4.43,5.83-7.52,13.47-7.49,20.83,0,8.35,4.87,17.65,14,18.5,2.35.22,5.44-.11,7-2.15,2.2-3,.52-7.67.66-11A30.85,30.85,0,0,1,87,489.56c3.75-5.19,9.42-5.7,14.79-8.15,4.59-2.1,5.79-6.75,3.46-11.16-4.75-9-14.75-14.19-24.36-16.1-19.7-3.91-43.53,2.7-51.19,23.2-3.79,10.14-2.25,23.94,4.1,32.84,3.84,5.39,9.65,7.83,13.46.84.71-1.3-2.21-1.14-2.73-.18-4.27,7.84-10.54-5.77-11.7-9.42-2.76-8.71-3.25-18.44.84-26.81,9.09-18.58,32.22-23.21,50.58-17.44,7.2,2.26,16.62,8,19,15.79,1.81,6-4.2,7.53-8.65,9.16a21.12,21.12,0,0,0-13.38,13.13,35.83,35.83,0,0,0-2.3,9.62c-.27,2.94,1,6.77.2,9.53-1.81,6.72-10.32.55-12.58-2.54-3.13-4.27-4-10-3.29-15.11A36,36,0,0,1,70.31,480c.86-1.12-2.08-1-2.73-.18Z"/><path class="cls-2" d="M384.88,447.6c1.28,0,3-1.94,1.05-1.94-1.28,0-3,1.94-1.05,1.94Z"/><path class="cls-2" d="M232.18,485a205.43,205.43,0,0,0-29.94,38c-12.18,19.58-20,40.76-19.71,64,.47,34.38,15.4,67.76,45,86.64,20.41,13.05,44.85,18.28,68.78,19.36,26,1.17,53-1.24,77.13-11.37,18.21-7.65,34.13-20.1,44.94-36.73,10-15.38,15.34-33.3,17.41-51.43,4.7-41.09-6.67-85.44-34.05-117.09-.55-.63-1.11-1.27-1.69-1.88-.95-1-3.69.22-2.65,1.3,7.42,7.72,13.34,17.28,18.36,26.66A153.62,153.62,0,0,1,433.86,577c-.55,37.16-13.66,74.35-46.37,94.89-20.83,13.08-45.82,17.93-70.08,18.94-25.84,1.07-52.76-1.51-76.4-12.68-32.39-15.28-51.7-46.42-55-81.57a107.37,107.37,0,0,1,10.75-58.34c9-18.25,21.4-35,35.39-49.74.82-.86,1.64-1.72,2.49-2.56,1.3-1.27-1.48-1.87-2.44-.92Z"/><path class="cls-2" d="M394.75,708.88c1,.8.83,5.91,1.06,7.14.64,3.37,1.52,7.06,3.61,9.87,3.12,4.17,8.35,4.42,13,3.19,6.21-1.64,17.82-5.37,17.79-13.44,0-4.24-2.17-8.61-4.58-12a35.83,35.83,0,0,0-4.19-4.85c-.5-.49-2.35-1.68-2.48-2.41l-2.35,1.14c1.55.35,3.59,2.61,5.23,3.23a14.65,14.65,0,0,0,7.92.67c3.49-.64,8.23-2.58,9.75-6.06,2-4.54-2-9.64-4.78-12.92a48,48,0,0,0-15.09-11.21c-.79-.38-3.46.8-2.32,1.35,7.07,3.44,14.95,9.18,18.53,16.47,3.41,7-2.78,11.78-9.82,10.91-3.12-.39-4.88-3.31-7.62-3.94-.59-.13-2.51.23-2.35,1.14s2,2.1,2.68,2.74a29.84,29.84,0,0,1,6.87,9.63c1.77,4.24,2.88,9.46-1.23,12.6a34.07,34.07,0,0,1-14.22,6c-5.72.71-8.95-3.74-10.47-8.78a52.92,52.92,0,0,1-1.6-8.19c-.1-.76,0-2.83-.63-3.38s-3.42.5-2.7,1.1Z"/><path class="cls-2" d="M122.35,696.43c.19,1.3-3.31,5.55-3.89,6.66-1.61,3.08-3.29,6.66-3.17,10.22.22,6.45,6.51,9.15,11.84,10.69s12.44,4,17.29-.17c3.44-3,4.85-8.31,5.27-12.61a32.71,32.71,0,0,0,0-6.1c-.1-1.15-1-3.78-.55-4.86l-2.8.75c1,1.46,1.07,4,2,5.65a12.88,12.88,0,0,0,4.25,4.58,15.48,15.48,0,0,0,7.58,2.46c7.56.4,9.79-5.76,10-12.31.35-12.22-6.25-23.83-10.94-34.78-.37-.84-3.2.08-2.9.78,3.37,7.86,7.58,15.85,9.61,24.18,1.27,5.21,3.29,15-.86,19.38-3.39,3.63-10.27-.5-12.52-3.15-2.09-2.48-1.82-5.47-3.46-7.85-.47-.67-2.55.16-2.8.75-.53,1.26.42,3.89.53,5.2a26.89,26.89,0,0,1-2.08,13.73c-3,6.47-7.88,5.09-13.52,3.58-3.38-.9-7.17-1.82-9.87-4.2-3.88-3.42-3.47-8.25-1.7-12.72a50.62,50.62,0,0,1,4-7.58c.38-.63,1.77-2.21,1.65-3.05s-3-.13-2.9.77Z"/><path class="cls-2" d="M402,727.91c-.59,4.51-2.4,8.06-6.73,10.25s-9.6,2.57-13.23-.87c-4.18-4-5.27-9.72-5.92-15.21-.3-2.58-.32-15.3-4.57-13.78-3,1.08-3.78,7.75-4.88,10.33-2.06,4.82-5.27,10.89-11.56,9.21a6.78,6.78,0,0,1-4.78-3.66c-5.2-10.61,2.38-23.09,10.36-29.56,1.52-1.23-.84-2-1.88-1.16-8.37,6.78-14.2,16.21-12.43,27.3.27,1.72.62,4.07,1.63,5.57,2.52,3.72,8.67,4.93,12.65,3.35,4.93-2,7.73-8.09,9.5-12.67.53-1.38,1-2.78,1.52-4.16.23-.62,1.71-3.24.28-2.62-1,.45-.55.8-.28,2s.45,2.44.64,3.67c1.26,8.16,1.05,17.66,8,23.43,4.1,3.41,10.22,2.77,14.87.9a14.94,14.94,0,0,0,9.76-12.64c.18-1.36-2.77-.92-2.93.27Z"/><path class="cls-2" d="M114.77,713c-3.92,3.44-10.65,2.53-14.86.09s-6-5.5-5.83-10.24c.14-5.3,2.91-9.72,5.64-14.07q1.65-2.61,3.19-5.3c.71-1.23,2.8-3.88,2.67-5.39-.22-2.75-3.66-.69-5,.09-6.48,3.65-20.5,12.77-22.92-.32-.45-2.42.66-4.43,1.86-6.53,6-10.42,17-12.17,28-11.94,11.57.23,23.51-1.37,28.72-13.31.63-1.45-2.28-1.32-2.75-.24C126.82,661,111.16,656,98.29,657.56c-9.93,1.24-19.12,7-23,16.44a8.57,8.57,0,0,0,1.43,9c4.42,5.63,11.32,3.85,17,1.26,3-1.36,6.93-3.23,9.4-5.35.64-.55-.24-.7-.6-.24a10.91,10.91,0,0,0-.8,1.69c-.69,1.4-1.5,2.75-2.29,4.09-2.31,3.92-5.09,7.67-6.8,11.9-3.17,7.81-1.43,15.27,6.43,19,5.64,2.68,13.26,2.58,18.1-1.67,1.32-1.15-1.51-1.49-2.39-.73Z"/><path class="cls-2" d="M138.07,441.86c1.62,0,2.26-2,.29-2-1.62,0-2.26,2-.29,2Z"/><path class="cls-2" d="M261.53,237.32c-2,7.06-8.4,9.84-10.09,10.57s-5.62,2.45-10.08,1.23c-6.13-1.66-8.86-7.5-9.59-9.1-.47-1-2.14-4.79-1.28-12.32,3-6.32,9.39-9.81,9.39-9.81a17.2,17.2,0,0,1,18.21,4.67C258.42,222.94,263.8,229.31,261.53,237.32Z"/><path class="cls-2" d="M260.09,237.53C257.24,246,246,252.59,238,246.1c-4.17-3.4-6.1-8.58-6.27-13.82a13.85,13.85,0,0,1,19-13.4c7.49,2.91,11.12,11,9.4,18.65-.22.95,2.68.5,2.88-.41a16.84,16.84,0,0,0-15.3-20.78c-8.7-.71-18.71,5.79-18.86,15.12-.14,8.37,4.33,17.7,13.61,18.74,8.55,1,17.85-5.06,20.55-13.08C263.26,236.26,260.39,236.63,260.09,237.53Z"/><path class="cls-3" d="M230.25,228.22l.26-.58s0,0,0,.06Z"/><path class="cls-2" d="M231.61,228.29l.25-.59-2.81.1a1.39,1.39,0,0,1-.16.35c-.62,1.33,2.28,1.08,2.72.14a3.49,3.49,0,0,0,.35-.82c.21-1.23-2.49-.66-2.81.1l-.26.58C228.31,229.51,231.2,229.24,231.61,228.29Z"/><path class="cls-3" d="M243.09,198.7s-6.67,9.44-8.33,13.65-4.25,15.29-4.25,15.29c.16-1.4.41-2.93.76-4.58A58.68,58.68,0,0,1,243.09,198.7Z"/><path class="cls-2" d="M241.74,198.68c-3,4.25-6.22,8.68-8.26,13.48s-3.19,10.45-4.42,15.66l2.89-.37c1.42-10.66,5.92-20.25,12.48-28.73.78-1-2.12-.78-2.69,0-6.66,8.58-11.25,18.33-12.68,29.14-.15,1.14,2.68.55,2.89-.37,1.17-5,2.24-10.15,4.12-14.91,2-4.95,5.32-9.48,8.36-13.82C245.18,197.66,242.28,197.91,241.74,198.68Z"/><path class="cls-2" d="M406.06,223.55c.05,7.76-4.32,16.79-11.45,18.69a12.17,12.17,0,0,1-9.11-1.47c-.47-.28-8-4.82-7.64-12.31.27-6.08,5.51-9.65,7.21-10.82,6.91-4.71,14.42-2.11,16.12-1.47,0,0,2.07,1.08,4.14,2.07A20.15,20.15,0,0,1,406.06,223.55Z"/><path class="cls-2" d="M404.61,223.94c-.2,8.18-5.84,21.9-16.74,16.81a15.69,15.69,0,0,1-8-8.78c-2.14-6.57,2.77-13,8.74-15.43a15.93,15.93,0,0,1,11.43.28c3.55,1.41,4.44,3.46,4.58,7.12,0,.77,2.94.23,2.9-.78-.1-2.45,0-4.49-1.78-5.94a15.61,15.61,0,0,0-5.2-2.29,20.44,20.44,0,0,0-11.16,0c-7.63,2.22-15.41,9.93-12.19,18.42,2.44,6.39,9.58,11,16.39,9.77,9.26-1.62,13.73-11.37,13.94-19.93C407.53,222.44,404.64,222.91,404.61,223.94Z"/><path class="cls-2" d="M387.48,201.49a24.24,24.24,0,0,1,10.62,6.74c3.89,4.25,4.39,8.67,5.78,14,.18.68,3.08-.07,2.9-.78-1.41-5.4-2-10-5.95-14.24a25.05,25.05,0,0,0-11-6.88c-.69-.22-3.26.88-2.38,1.15Z"/><path class="cls-2" d="M294.41,322.31c-4.15,3.55-7.83,8.4-6.51,14.18,1.38,6,7.17,10.35,12.54,12.64,11.36,4.84,25.35.75,32.78-9.09,7.61-10.07-.62-17.89-10.3-21.41-9.37-3.4-20.25-2.81-28.26,3.47-1.54,1.21.85,1.89,1.86,1.09,6.86-5.38,15.94-5.81,24-3,7.13,2.45,16,8,11.89,16.64-5.1,10.81-19.58,15.15-30.1,10.59-4.71-2-9.95-5.83-11.34-11.08-1.45-5.5,1.82-9.91,5.81-13.32C298.09,321.85,295.25,321.59,294.41,322.31Z"/><path class="cls-2" d="M270.55,324.33a225.15,225.15,0,0,0-148.92,68c-1.22,1.25,1.6,1.4,2.36.62a220.82,220.82,0,0,1,146.22-66.8c1.52-.08,2.34-1.91.34-1.8Z"/><path class="cls-2" d="M263.24,336.38A208.26,208.26,0,0,0,130.33,414.8c-.67.87,2.17.55,2.66-.09a203.58,203.58,0,0,1,129.78-77c1.26-.2,2.5-1.63.47-1.31Z"/><path class="cls-2" d="M259.78,351.26a198.56,198.56,0,0,0-115.73,89.39c-.84,1.4,2.1,1.48,2.77.36a195,195,0,0,1,113.51-87.7c1.78-.51,1.24-2.57-.55-2.05Z"/><path class="cls-2" d="M254.1,367.07a122.64,122.64,0,0,0-60.42,55.77c-.32.62,2.45.39,2.88-.43A119.5,119.5,0,0,1,255.18,368c1.87-.8.13-1.44-1.08-.92Z"/><path class="cls-2" d="M356.33,317.45a155.87,155.87,0,0,1,126.18,45.66c.52.52,3.17-.54,2.73-1a157.46,157.46,0,0,0-127.65-45.84c-.76.08-3.14,1.36-1.26,1.17Z"/><path class="cls-2" d="M360.44,328.74c47.95.22,91.42,25.67,117.07,65.74.43.68,3.1-.46,2.89-.77-25.88-40.45-69.73-65.88-118.07-66.1-.58,0-3.26,1.13-1.89,1.13Z"/><path class="cls-2" d="M365.4,338.73a139.08,139.08,0,0,1,96.86,79.37c.39.89,3.23,0,2.9-.78a140.29,140.29,0,0,0-98-80c-.8-.17-3.38,1.09-1.81,1.43Z"/><path class="cls-2" d="M369.86,351.63a95.79,95.79,0,0,1,58.95,47.77c.54,1,3.36.11,2.89-.77A97.27,97.27,0,0,0,371.61,350c-1-.27-3.41,1.19-1.75,1.65Z"/><path class="cls-3" d="M266.68,381.2c15.39,16.83,38.23,14,43.31,7.44A20.68,20.68,0,0,0,314,374c0-1-.24,4.83,4.55,11.71s33.45,16.51,47.22-18.21"/><path class="cls-2" d="M265.34,381.78c9.09,9.56,22.5,14.86,35.68,12.19,10.55-2.14,14.63-10,14.47-20.45l-2.9.78c.44,12.27,10.89,18.7,22,18.95,16.15.36,27-12,32.67-25.89.4-1-2.5-.64-2.9.34-5.36,13.06-15.75,25.52-31.25,23.66-9.57-1.15-17.25-7.46-17.62-17.84,0-1-2.92-.37-2.9.78.08,4.8-.37,9.52-3.42,13.53-2.55,3.36-6.68,4.49-10.74,4.92-11.52,1.23-22.57-3.88-30.41-12.13-.72-.76-3.48.32-2.68,1.16Z"/><ellipse class="cls-3" cx="240.64" cy="239.24" rx="3.2" ry="6.32" transform="translate(-74.32 112.98) rotate(-22.99)"/><ellipse class="cls-3" cx="385.91" cy="233.28" rx="2.91" ry="5.99" transform="translate(-64.57 253.61) rotate(-33.74)"/><path class="cls-2" d="M66.58,516.38l-2.79,65.37L59.35,686l-1,24,2.05-1.07c-1.36,0-3.63.5-4.86,0-1.06-.42.33.8.15,0a11.81,11.81,0,0,1,0-2.59l.13-12.59.49-45.19L57.48,541l.27-25.35c0-.64-2.89-.19-2.9.77l-.7,65.37L53,686l-.26,24c0,.31.69.3.85.3h5.56c.58,0,2-.3,2-1.07L64,643.8l4.44-104.22,1-24c0-.61-2.86-.2-2.9.77Z"/><path class="cls-2" d="M260.56,97c-9.28.59-18.58,2.83-26,8.75-6.08,4.86-15.47,16-10.64,24.13,2.19,3.69,6.35,5.41,10.15,6.94a74.39,74.39,0,0,1,17.75,10.65c9.27,7.11,18.41,13.3,29.62,16.93,22.18,7.17,46.46,6.39,69.35,3.91,20.86-2.27,43.16-3.7,57.42-21.14,6.35-7.78,12.48-20.23,9.33-30.49-2.77-9-12.73-12.08-21.07-13.54-1-.17-3.41,1.38-1.74,1.68,7.5,1.31,16.63,3.83,19.61,11.75,3.14,8.31-1,18.79-5.48,25.81a45.2,45.2,0,0,1-25.07,19.15c-9,2.63-18.93,3.4-28.2,4.52-20.66,2.5-42.11,3.67-62.61-.72a81.65,81.65,0,0,1-26.73-10.45c-9-5.7-16.67-14-26.56-18.21-4.09-1.75-9.18-3-12.12-6.57-4.42-5.4-.51-12.19,2.94-17,7-9.86,18-13.59,29.66-14.34,1.49-.09,2.36-1.87.36-1.74Z"/><g class="cls-4"><g class="cls-5"><path d="M340.45,42.44c-17.82-.61-37.24,6.34-54.6,6.67h-.52a22.61,22.61,0,0,1-2.31-.24,21.24,21.24,0,0,0-2.36-.25,7.1,7.1,0,0,0-2.49.31c-2.92.95-5.2,3.85-6.81,6.21-3.57,5.2-5.68,11.88-7.16,17.78-2,8-2,16.38-4.38,24.32A46.61,46.61,0,0,1,257,104a3.94,3.94,0,0,1,1.95-.55.8.8,0,0,1,.41.09l.47.25c.52-1,1-2.1,1.51-3.15,2.68-5.93,2.92-12.43,3.92-18.63a87.58,87.58,0,0,1,3.8-15.82c1.55-4.34,5-15.87,11.28-16.17,5.37-.24,10.74,0,16.22-.68,5.31-.64,10.56-1.67,15.83-2.55,9-1.5,18.2-3.28,27.23-3,1,0,2.07.1,3.1.2,14.86,1.36,24.7,10.08,32.15,21.16,5.79,8.62,10.71,18,13.06,28.13.88,3.85,2.07,7.69,2.93,11.57l.32-.2a3.86,3.86,0,0,1,1.69-.27c.74,0,1.26.23.52.66s-1.47.88-2.22,1.3c.08.38.15.77.21,1.15.82,4.71-.65,12.43-3.66,16.59-1.6,2.22-4.94,3.59-7.31,4.9a55.56,55.56,0,0,1-10.08,4.35,104.26,104.26,0,0,1-18.84,3.91,185.6,185.6,0,0,1-29.22,1.13c-5.88-.2-11.72-.62-17.52-1.2a192.7,192.7,0,0,1-27.42-4.41c-7.56-1.88-18-5.37-21.2-12.51-1.48-5.1.47-9.88,2.76-14.59l-2-1a.71.71,0,0,1-.18-.15c-2.58,5.3-5.21,10.58-3.56,16.34,0,0,0,0,0,.05a.3.3,0,0,0,0,.08c2.71,5.88,10.68,9.5,16.9,11.53a131.05,131.05,0,0,0,22.75,4.72,268.48,268.48,0,0,0,26.81,2.31,220.41,220.41,0,0,0,23.82-.42c11.38-.82,23.31-2.61,33.94-7.22,4.22-1.84,10.54-4.32,13.14-8.11a26.57,26.57,0,0,0,3.71-16.88,113.84,113.84,0,0,0-9.75-31C378.64,64.1,370.74,52,357.8,46.19a45.58,45.58,0,0,0-17.35-3.75"/><path d="M392.86,104.44a3.86,3.86,0,0,0-1.69.27l-.32.2c-20.26,12-42.94,16.67-65.45,15.9a148.87,148.87,0,0,1-25.68-3.18c-13.76-2.91-27.78-7.29-39.9-13.81l-.47-.25a.8.8,0,0,0-.41-.09A3.94,3.94,0,0,0,257,104c-.24.17-.36.35-.25.51a.71.71,0,0,0,.18.15l2,1A149.92,149.92,0,0,0,287,116.23a162,162,0,0,0,37.89,6,134.07,134.07,0,0,0,27.44-1.82,119.91,119.91,0,0,0,38.88-14c.75-.42,1.49-.86,2.22-1.3s.22-.64-.52-.66"/></g></g></g></svg>