<svg xmlns="http://www.w3.org/2000/svg" width="16.687" height="16.687" viewBox="0 0 16.687 16.687">
  <path id="footer-presentation" d="M8.344,11.23a3.23,3.23,0,1,0,3.23,3.23A3.231,3.231,0,0,0,8.344,11.23Zm0,4.845A1.615,1.615,0,1,1,9.958,14.46,1.615,1.615,0,0,1,8.344,16.074ZM8.344,8a8.344,8.344,0,0,0,0,16.687,8.613,8.613,0,0,0,4.019-1.03,8.222,8.222,0,0,0,4.324-7.314A8.342,8.342,0,0,0,8.344,8Zm0,15.072a6.69,6.69,0,0,1-4.377-1.628,2.9,2.9,0,0,1,2.342-1.329,6.845,6.845,0,0,0,2.035.323,6.738,6.738,0,0,0,2.035-.323,2.907,2.907,0,0,1,2.342,1.329A6.69,6.69,0,0,1,8.344,23.072Zm5.474-2.829A4.463,4.463,0,0,0,10.281,18.5a10.1,10.1,0,0,1-1.938.323A10.151,10.151,0,0,1,6.406,18.5,4.472,4.472,0,0,0,2.87,20.243a6.725,6.725,0,1,1,12.2-3.9A6.68,6.68,0,0,1,13.817,20.243Z" transform="translate(0 -8)" fill="#f5fbca"/>
</svg>
