<svg xmlns="http://www.w3.org/2000/svg" width="20" height="15.789" viewBox="0 0 20 15.789"><path d="M9.734,6.35,3.333,11.7v5.777a.56.56,0,0,0,.556.564l3.891-.01a.56.56,0,0,0,.553-.564V14.1a.56.56,0,0,1,.556-.564h2.222a.56.56,0,0,1,.556.564v3.371a.568.568,0,0,0,.162.4.551.551,0,0,0,.393.166l3.889.011a.56.56,0,0,0,.556-.564V11.7l-6.4-5.349A.418.418,0,0,0,9.734,6.35ZM19.845,9.988l-2.9-2.429V2.676a.42.42,0,0,0-.417-.423H14.582a.42.42,0,0,0-.417.423V5.236l-3.108-2.6a1.647,1.647,0,0,0-2.118,0L.15,9.988a.427.427,0,0,0-.056.6L.98,11.676a.412.412,0,0,0,.587.057L9.734,4.9a.418.418,0,0,1,.531,0l8.167,6.829a.412.412,0,0,0,.587-.056l.885-1.093a.427.427,0,0,0-.059-.6Z" transform="translate(0.001 -2.254)" fill="rgba(0,36,90,0.7)"/></svg>