<svg xmlns="http://www.w3.org/2000/svg" width="20" height="15.789" viewBox="0 0 20 15.789"><path d="M6.464,7.56a2.311,2.311,0,0,0-1.8,2.285,3.719,3.719,0,0,1,1.559-.954ZM2.994,9.1,2,3.562A.151.151,0,0,1,2.01,3.48,12.329,12.329,0,0,1,7.916,1.968c.05,0,.1.005.152.006a3.016,3.016,0,0,1,1.612-.8,15.393,15.393,0,0,1,1.787-.164A2.011,2.011,0,0,0,10.162.176,14.457,14.457,0,0,0,7.916,0,14.309,14.309,0,0,0,1.037,1.76a2.028,2.028,0,0,0-1,2.144l.992,5.536c.445,2.483,4.26,4.382,6.389,4.382a2.914,2.914,0,0,0,.313-.025,8.257,8.257,0,0,1-1.234-2.084C5,11.312,3.177,10.12,2.994,9.1ZM6.042,4.858a1.208,1.208,0,0,0-.127-.352,1.977,1.977,0,0,1-1.1.565,1.994,1.994,0,0,1-1.234-.159,1.2,1.2,0,0,0,0,.373,1.249,1.249,0,0,0,1.448,1A1.232,1.232,0,0,0,6.042,4.858Zm12.92-1.13A14.328,14.328,0,0,0,9.838,2.145,2.055,2.055,0,0,0,8.149,3.821L7.158,9.357c-.481,2.684,2.977,6.053,4.947,6.394s6.39-1.659,6.871-4.343l.992-5.536a2.028,2.028,0,0,0-1-2.144ZM10.424,6.714a1.248,1.248,0,0,1,1.448-1,1.232,1.232,0,0,1,1.014,1.425,1.208,1.208,0,0,1-.127.352,2.1,2.1,0,0,0-2.337-.406,1.189,1.189,0,0,1,0-.373Zm2.2,6.129A3.3,3.3,0,0,1,9.843,9.361a5.164,5.164,0,0,0,3.109,1.658,5.214,5.214,0,0,0,3.5-.512,3.34,3.34,0,0,1-3.824,2.335ZM16.7,8.176A2.1,2.1,0,0,0,14.36,7.77a1.2,1.2,0,0,1,0-.373,1.249,1.249,0,0,1,1.448-1,1.233,1.233,0,0,1,1.014,1.425,1.2,1.2,0,0,1-.127.352Z" transform="translate(0)" fill="rgba(0,36,90,0.7)"/></svg>