<svg xmlns="http://www.w3.org/2000/svg" width="16.871" height="15" viewBox="0 0 16.871 15"><path d="M16,.283a.456.456,0,0,0-.829-.035,5.023,5.023,0,0,1-4.391,2.563H8.439A5.626,5.626,0,0,0,2.814,8.435a5.792,5.792,0,0,0,.044.6,14.015,14.015,0,0,1,8.392-2.475.469.469,0,0,1,0,.937C3.886,7.5.764,12.012.073,13.708a.939.939,0,0,0,1.737.712,7.707,7.707,0,0,1,2.106-2.654,5.612,5.612,0,0,0,5.123,2.261c4.6-.334,7.836-4.458,7.836-9.508A10.652,10.652,0,0,0,16,.283Z" transform="translate(-0.004 0.002)" fill="rgba(0,36,90,0.7)"/></svg>